<?xml version="1.0" standalone="no"?>
<!DOCTYPE svg PUBLIC "-//W3C//DTD SVG 20010904//EN"
 "http://www.w3.org/TR/2001/REC-SVG-20010904/DTD/svg10.dtd">
<svg version="1.0" xmlns="http://www.w3.org/2000/svg"
 width="3000.000000pt" height="2478.000000pt" viewBox="0 0 3000.000000 2478.000000"
 preserveAspectRatio="xMidYMid meet">

<g transform="translate(0.000000,2478.000000) scale(0.100000,-0.100000)"
fill="#000000" stroke="none">
<path d="M6014 24751 c-12 -14 -61 -46 -110 -71 -76 -39 -89 -49 -92 -73 -3
-23 -7 -26 -27 -21 -21 5 -24 2 -27 -33 -2 -30 -8 -39 -24 -41 -11 -2 -27 4
-34 13 -11 13 -10 22 8 54 23 40 26 70 16 134 l-7 37 -41 -23 c-22 -13 -68
-41 -100 -61 -44 -27 -71 -36 -103 -36 -54 0 -78 -29 -64 -78 10 -35 -5 -57
-33 -46 -21 8 -157 -73 -217 -129 -46 -43 -123 -75 -152 -64 -10 4 -12 -3 -9
-24 3 -17 -4 -41 -16 -61 -30 -49 -44 -118 -26 -125 20 -7 105 15 125 33 15
13 17 13 22 -1 9 -23 29 -18 83 20 53 38 64 34 39 -14 -22 -44 -62 -61 -144
-61 -82 0 -101 -6 -101 -31 0 -18 15 -24 165 -65 l60 -16 -32 -13 c-45 -19
-57 -47 -49 -116 4 -33 3 -59 -2 -59 -19 0 -46 29 -66 71 -23 47 -75 89 -112
89 -28 0 -38 -15 -36 -55 3 -38 -19 -71 -42 -62 -9 4 -24 23 -33 44 -10 21
-18 39 -19 41 -1 1 -28 -7 -60 -19 -37 -14 -72 -36 -94 -60 -35 -37 -38 -38
-140 -48 -58 -6 -138 -18 -178 -27 -41 -9 -84 -13 -97 -10 -14 4 -50 31 -82
61 -64 61 -80 66 -88 32 -5 -19 -11 -23 -35 -19 -24 3 -36 -3 -63 -32 -25 -26
-43 -36 -65 -36 -44 0 -47 -14 -16 -67 26 -44 26 -47 8 -60 -21 -15 -60 -17
-69 -3 -11 17 -24 11 -66 -30 -47 -45 -77 -57 -107 -41 -48 26 -122 5 -161
-45 -34 -43 -25 -100 10 -68 21 19 40 11 33 -14 -25 -78 -50 -98 -83 -67 -16
14 -19 14 -24 1 -3 -9 -39 -32 -79 -52 -70 -35 -72 -37 -47 -46 32 -11 39 -31
39 -117 0 -47 -7 -78 -26 -122 -20 -44 -25 -67 -20 -94 4 -19 11 -35 15 -35 4
0 22 23 39 50 33 54 47 61 57 31 10 -33 35 -34 47 -1 5 17 14 30 19 30 20 0
59 -104 59 -157 0 -42 5 -57 24 -76 30 -30 26 -54 -14 -92 -28 -27 -29 -29
-14 -64 21 -51 43 -71 76 -71 30 0 40 14 42 59 1 33 30 38 93 17 65 -22 74
-21 127 21 33 25 50 33 57 26 19 -19 1 -46 -54 -86 -93 -68 -166 -146 -178
-191 -6 -23 -32 -86 -60 -141 -27 -55 -49 -104 -49 -108 0 -4 11 -7 25 -7 21
0 25 -5 25 -27 0 -46 20 -103 35 -103 8 0 26 18 39 39 14 21 43 52 65 67 22
16 56 55 77 87 20 31 38 57 40 57 2 0 15 -12 29 -27 20 -23 28 -26 43 -17 13
9 16 22 14 57 -2 25 1 48 6 51 19 11 41 -6 54 -40 6 -19 15 -34 18 -34 3 0 32
15 63 34 31 19 57 32 57 30 0 -3 -11 -20 -25 -38 -14 -18 -25 -41 -25 -50 0
-10 -30 -49 -66 -87 l-67 -69 12 -70 c7 -47 8 -76 1 -87 -5 -10 -16 -35 -24
-55 -26 -66 -72 -41 -60 32 4 25 3 41 -2 39 -73 -30 -104 -45 -104 -51 0 -4
18 -20 40 -34 40 -26 47 -40 52 -98 2 -17 13 -36 28 -47 23 -17 32 -17 95 -6
48 8 82 21 106 40 40 30 61 34 78 13 18 -22 -4 -64 -43 -82 -19 -10 -40 -31
-49 -50 -23 -48 -61 -69 -119 -67 -45 2 -48 1 -38 -17 19 -36 9 -100 -15 -100
-7 0 -22 12 -33 27 l-20 28 -8 -39 c-4 -23 -3 -46 3 -55 14 -23 106 -27 148
-6 19 8 57 20 86 25 56 11 99 33 99 52 0 16 47 76 70 88 18 10 19 7 15 -52 -2
-35 -5 -66 -5 -70 0 -4 -26 -15 -57 -24 -34 -10 -73 -31 -93 -50 -19 -18 -64
-52 -100 -76 -85 -58 -123 -112 -124 -175 l-1 -48 -39 0 c-30 0 -43 -6 -59
-27 -20 -26 -20 -34 -10 -140 8 -88 7 -130 -3 -188 -14 -76 -10 -144 8 -167
17 -21 52 -15 101 18 56 37 77 57 185 177 70 77 95 98 158 128 105 50 121 54
289 64 168 10 184 14 292 76 43 24 89 44 104 44 27 0 27 0 22 -65 l-6 -64 34
-14 c19 -8 54 -21 79 -28 52 -16 75 -52 66 -103 -5 -25 -14 -35 -41 -45 -46
-16 -126 -97 -154 -153 -30 -64 -28 -128 5 -162 15 -14 31 -26 35 -26 5 0 9
-11 9 -25 0 -55 39 -95 93 -95 37 0 142 55 183 96 41 42 161 117 174 109 4 -2
13 -31 20 -64 l12 -59 45 28 c98 62 229 75 315 30 21 -11 49 -18 61 -15 12 3
28 1 36 -4 12 -8 12 -16 -2 -53 -9 -24 -17 -49 -17 -56 0 -21 53 -13 110 18
92 49 162 33 177 -41 3 -16 11 -29 18 -29 8 0 46 16 86 35 54 25 87 35 124 35
125 1 220 104 201 222 -6 34 -4 39 25 53 37 20 64 12 139 -39 60 -42 107 -47
150 -16 l27 19 22 -23 c12 -13 39 -31 60 -41 48 -21 101 -9 164 39 65 49 86
60 91 44 3 -7 9 -29 16 -49 23 -75 64 -88 184 -60 105 25 139 26 160 5 21 -20
20 -45 -1 -82 -16 -28 -16 -31 15 -90 38 -73 39 -92 8 -129 -28 -34 -52 -178
-41 -250 13 -91 77 -123 175 -88 70 25 115 19 189 -22 125 -69 181 -130 196
-214 9 -50 -26 -130 -76 -173 -24 -20 -50 -58 -69 -102 -17 -38 -42 -83 -55
-100 -13 -17 -21 -35 -17 -39 11 -11 -29 -35 -58 -35 -38 0 -68 -24 -53 -42
10 -11 -9 -35 -100 -126 -122 -122 -109 -115 -270 -137 -60 -8 -108 -49 -183
-155 -29 -42 -62 -84 -73 -94 -15 -14 -21 -31 -21 -65 0 -54 -22 -92 -74 -127
-40 -27 -117 -57 -179 -68 l-38 -7 36 -49 c47 -64 114 -197 144 -286 l24 -70
-23 -32 c-32 -43 -39 -153 -15 -258 20 -91 17 -148 -15 -253 -26 -85 -23 -141
10 -176 22 -23 22 -25 5 -42 -49 -48 -59 -166 -25 -298 l20 -79 -32 -54 c-61
-99 -147 -162 -224 -162 -56 0 -144 -110 -144 -179 0 -61 19 -99 64 -125 53
-31 125 -110 156 -173 29 -58 24 -133 -14 -223 -22 -49 -28 -79 -26 -123 l1
-58 -69 -67 c-39 -37 -75 -77 -81 -88 -6 -12 -10 -58 -9 -103 0 -73 -2 -86
-29 -129 -41 -67 -122 -108 -212 -106 -36 1 -84 8 -106 16 -30 11 -57 13 -110
7 -163 -19 -341 -4 -456 36 l-41 15 7 -36 c18 -98 107 -234 188 -289 27 -18
47 -41 53 -59 6 -19 30 -46 66 -74 78 -58 83 -87 38 -198 -18 -41 -7 -89 35
-155 67 -105 78 -137 72 -203 -7 -74 3 -89 84 -134 77 -43 92 -63 87 -109 -3
-21 -8 -45 -12 -53 -5 -13 3 -14 48 -12 78 5 157 -20 205 -66 71 -68 77 -150
16 -233 -66 -90 -87 -129 -107 -194 -39 -130 -73 -176 -163 -224 -88 -46 -179
-124 -225 -193 -33 -50 -40 -69 -40 -110 0 -27 7 -63 16 -79 15 -30 15 -32
-27 -102 -23 -40 -50 -88 -60 -107 -26 -48 -40 -129 -27 -150 8 -12 6 -25 -6
-49 -16 -29 -16 -35 -2 -56 9 -13 23 -26 33 -29 31 -10 145 -200 268 -446 37
-74 69 -137 71 -139 2 -2 43 14 92 37 79 38 148 53 164 36 4 -3 -5 -22 -18
-42 -21 -31 -24 -44 -19 -82 5 -38 2 -51 -18 -81 -13 -20 -28 -58 -32 -85 -8
-55 -18 -79 -48 -111 -26 -29 -89 -31 -133 -4 l-32 19 -38 -39 c-44 -45 -87
-60 -152 -53 -69 8 -80 -5 -98 -111 -26 -151 -89 -252 -225 -361 -87 -69 -109
-101 -119 -174 -8 -58 -23 -91 -130 -284 -26 -47 -31 -62 -22 -75 80 -112 106
-237 121 -576 6 -150 11 -187 28 -225 38 -82 40 -83 99 -61 100 39 218 54 364
48 191 -8 225 -20 569 -208 281 -155 472 -301 588 -452 55 -71 124 -201 149
-280 12 -38 24 -58 41 -66 12 -6 23 -17 23 -25 0 -7 -31 -36 -69 -64 -77 -56
-93 -88 -66 -129 9 -14 23 -47 32 -75 19 -66 45 -90 127 -118 48 -16 80 -34
107 -61 24 -24 48 -39 63 -39 35 0 40 -28 20 -100 -9 -33 -14 -63 -10 -67 3
-4 22 1 42 10 39 19 54 15 54 -12 0 -21 -57 -76 -87 -84 -33 -7 -63 19 -63 56
-1 19 -11 44 -25 62 -41 49 -29 12 47 -153 50 -108 107 -209 183 -323 60 -91
125 -197 144 -236 l34 -71 78 -4 c136 -8 265 -91 321 -206 l23 -48 87 -22
c135 -33 215 -77 261 -142 l15 -21 107 41 c166 65 222 130 183 214 -8 20 -8
35 1 66 17 58 38 65 123 45 87 -22 97 -15 105 76 5 57 15 81 87 208 127 226
226 319 385 361 36 10 104 34 151 53 146 61 263 69 387 26 31 -10 69 -19 85
-19 48 0 101 35 153 101 53 65 124 119 160 119 23 0 69 57 156 192 54 84 111
128 166 128 16 0 56 -9 89 -21 84 -29 196 -22 329 21 116 38 216 44 277 17 33
-14 41 -14 65 -2 81 42 227 40 332 -5 43 -19 49 -20 77 -5 16 8 53 15 82 15
77 0 237 -37 309 -72 82 -40 114 -35 262 40 132 66 87 62 501 44 141 -6 267
-15 280 -20 14 -6 55 -30 92 -55 89 -60 152 -75 256 -59 92 15 101 22 192 158
72 107 135 169 180 179 14 3 47 -1 72 -10 41 -13 49 -13 74 0 47 24 111 19
184 -16 49 -23 87 -53 157 -125 106 -107 123 -113 190 -65 50 36 109 108 118
142 3 14 31 51 61 82 47 48 54 61 52 91 -2 42 8 55 89 113 69 49 93 84 93 134
0 18 16 78 35 133 18 56 50 160 70 231 43 159 99 275 165 346 27 30 69 83 93
119 54 80 142 147 264 200 82 35 88 40 94 71 11 66 42 100 172 188 40 27 79
56 86 65 9 11 29 16 61 16 26 0 67 7 90 15 70 25 98 20 121 -19 17 -29 73 -66
83 -55 2 2 13 23 25 46 25 50 71 79 100 63 29 -15 52 -12 94 10 43 24 57 25
57 6 0 -7 10 -26 22 -41 18 -23 27 -26 59 -22 20 3 50 14 65 26 16 11 70 30
121 40 101 22 144 40 186 79 31 29 34 44 12 62 -12 10 -20 9 -40 -4 -46 -30
-94 -15 -156 51 -82 86 -79 136 16 275 18 26 35 53 37 60 4 10 8 10 21 0 20
-17 23 -5 32 118 6 81 34 170 53 170 5 0 14 11 20 25 6 14 29 44 51 68 59 64
64 83 45 186 -25 138 -2 195 118 284 117 87 119 90 106 167 -26 154 40 268
150 257 l42 -5 0 60 c0 103 68 192 195 256 99 49 273 115 301 113 40 -2 62 23
114 131 53 110 65 121 132 119 53 -1 53 -1 118 66 36 38 98 93 137 123 44 33
73 62 73 74 0 10 -14 36 -32 58 -18 23 -39 55 -47 72 -21 41 -139 100 -239
120 -64 13 -84 22 -149 72 -198 152 -330 387 -352 629 -7 73 -17 112 -44 172
-145 325 -139 310 -145 403 -3 62 0 110 13 166 24 111 90 274 140 350 25 37
46 82 50 107 17 103 75 217 228 445 97 144 153 259 164 337 5 40 10 48 40 60
73 31 92 53 157 188 47 98 74 142 105 170 22 20 45 37 51 37 5 0 22 23 36 52
14 28 63 111 109 182 88 141 135 227 155 291 7 22 22 53 32 68 11 15 44 83 75
150 58 130 104 199 156 234 17 12 73 31 122 42 163 35 250 77 292 140 30 44
31 91 2 91 -24 0 -52 14 -99 49 -24 18 -48 26 -76 26 -53 1 -74 18 -74 62 0
46 31 103 93 171 29 31 94 117 146 190 160 226 258 299 414 309 61 4 90 11
114 27 18 11 33 24 33 28 0 3 22 24 50 46 36 29 62 41 98 46 70 9 166 44 351
126 104 46 191 78 244 89 45 9 87 19 93 23 28 18 134 54 306 103 181 52 307
102 366 143 17 13 32 36 39 64 7 23 29 70 50 104 21 33 61 97 88 141 43 70 59
86 115 119 36 21 173 110 305 197 132 88 285 182 339 209 72 36 112 64 144 99
31 35 69 61 137 94 84 41 155 98 155 124 0 4 17 15 39 23 31 13 46 29 80 86
23 40 58 83 79 99 74 54 115 99 143 158 36 76 36 105 -1 223 -20 62 -30 112
-29 144 3 57 -18 92 -72 120 -69 36 -84 60 -88 150 -4 95 10 152 45 174 23 16
27 15 74 -8 43 -21 53 -23 68 -12 9 7 24 14 33 14 23 0 52 48 46 76 -3 15 5
36 20 56 21 29 22 34 8 44 -22 17 -152 47 -164 39 -47 -29 -104 123 -70 187
11 21 15 21 -52 2 -35 -10 -82 4 -138 41 -58 38 -84 42 -186 25 -91 -15 -171
-47 -183 -75 -15 -32 -62 -55 -135 -65 -88 -13 -111 -33 -117 -104 -8 -82 -40
-103 -113 -72 -31 12 -35 12 -62 -10 -33 -26 -74 -31 -108 -12 -12 6 -50 33
-85 59 -36 28 -78 51 -100 55 -20 4 -55 17 -78 30 -48 28 -112 31 -206 10 -35
-8 -70 -14 -79 -13 -9 1 -34 -19 -55 -45 -80 -96 -160 -140 -213 -118 -29 11
-63 64 -75 112 -12 53 -51 84 -139 113 -45 14 -92 35 -104 47 -19 18 -32 20
-121 16 -95 -3 -103 -5 -147 -35 -25 -18 -52 -33 -59 -33 -8 0 -41 -19 -75
-41 -70 -47 -110 -59 -161 -48 -55 12 -63 30 -56 136 6 84 5 94 -14 111 -18
16 -19 23 -9 45 25 55 -12 156 -100 277 -50 68 -68 75 -192 74 -56 -1 -88 -6
-118 -21 l-42 -21 -11 21 c-23 43 -105 120 -146 138 -27 12 -67 19 -106 19
-93 0 -156 15 -254 59 -102 46 -257 80 -290 62 -16 -9 -21 -25 -26 -103 -10
-137 -10 -138 13 -169 27 -36 27 -75 1 -89 -13 -7 -57 -8 -126 -4 -85 6 -108
4 -115 -7 -13 -22 -152 -16 -216 9 l-52 21 -34 -34 c-19 -19 -44 -35 -54 -35
-11 0 -51 20 -89 45 -87 56 -118 58 -221 10 -42 -19 -99 -39 -127 -45 -28 -5
-63 -12 -78 -16 -15 -3 -39 -3 -53 0 -35 9 -102 71 -140 131 -28 44 -47 58
-141 109 -60 32 -117 65 -126 73 -21 19 -40 13 -144 -43 -96 -52 -138 -56
-182 -19 l-30 25 -26 -40 c-29 -44 -56 -51 -105 -25 -20 10 -31 25 -35 49 -8
41 -50 81 -133 125 -68 36 -93 72 -93 130 0 32 -5 44 -25 57 -23 15 -30 15
-99 -1 -47 -11 -88 -15 -112 -11 -22 4 -59 7 -84 6 -38 0 -58 8 -119 47 -47
29 -91 49 -121 54 -25 4 -89 28 -141 52 -52 25 -112 49 -134 53 -53 9 -61 16
-81 77 -9 29 -20 56 -25 61 -10 11 -33 -39 -51 -111 -15 -60 -34 -83 -68 -83
-60 0 -144 88 -138 145 2 22 11 34 35 45 27 13 36 27 63 108 27 76 32 103 28
154 -4 51 -9 65 -32 85 -15 12 -38 23 -51 23 -13 0 -47 9 -75 20 -58 23 -113
26 -128 8 -6 -7 -13 -30 -17 -50 -4 -21 -11 -38 -16 -38 -18 0 -62 48 -87 95
-31 57 -62 68 -108 38 -27 -17 -27 -17 -43 7 -9 14 -38 49 -65 77 -35 38 -49
62 -50 83 -1 16 -3 30 -6 30 -8 0 -95 -55 -170 -107 -34 -23 -78 -45 -98 -48
-56 -8 -98 -20 -195 -54 -83 -29 -165 -40 -181 -24 -4 4 -55 8 -114 8 -95 1
-116 5 -187 33 -47 19 -110 55 -154 88 -52 40 -92 61 -139 75 -56 16 -119 38
-233 81 -15 5 -31 20 -37 33 -17 37 -46 39 -127 10 -54 -20 -83 -26 -107 -21
-87 18 -122 3 -193 -85 -48 -58 -55 -71 -46 -88 14 -25 14 -51 1 -51 -6 0 -36
16 -66 35 -59 38 -84 44 -84 20 0 -8 -8 -15 -17 -15 -32 1 -126 45 -191 89
-68 46 -127 60 -247 61 -39 0 -69 6 -83 16 -13 9 -29 13 -37 10 -17 -6 -21 9
-5 19 5 3 18 19 30 34 l20 29 -47 16 c-27 9 -70 32 -97 51 -36 26 -60 35 -89
35 -71 0 -234 -78 -270 -130 -8 -11 -16 -18 -19 -15 -3 3 -25 -16 -49 -42
l-43 -48 -7 45 c-10 61 -5 74 36 93 41 20 44 31 11 52 -26 17 -42 15 -131 -19
-22 -8 -57 -15 -78 -16 -21 0 -59 -11 -85 -24 -26 -13 -87 -36 -137 -51 -49
-15 -130 -41 -180 -58 l-90 -31 -225 2 c-239 3 -449 16 -515 33 -22 6 -80 27
-129 46 -120 47 -252 80 -364 93 -51 6 -127 20 -170 31 -55 16 -94 20 -139 16
-54 -4 -63 -2 -68 13 -3 10 -25 36 -49 58 -35 32 -66 47 -157 77 -114 37 -115
37 -332 42 l-218 6 -75 72 c-58 57 -74 79 -74 102 0 25 -6 30 -50 46 -28 10
-56 15 -63 11 -6 -5 -47 -37 -90 -72 -95 -77 -122 -88 -168 -69 -31 13 -37 12
-74 -9 -79 -45 -145 -40 -237 18 l-47 30 -30 -21 c-51 -37 -145 -54 -246 -47
-102 8 -111 8 -182 0 -39 -4 -68 0 -116 15 -51 17 -93 22 -218 25 -84 1 -183
9 -219 16 -55 11 -85 10 -191 -4 -94 -12 -134 -13 -160 -5 -36 11 -135 21
-237 23 -60 1 -74 10 -51 33 7 7 -1 19 -29 42 -22 17 -67 71 -101 120 -69 101
-106 136 -153 146 -18 4 -41 14 -50 22 -10 9 -43 22 -75 29 -64 15 -62 16
-117 -62 -22 -32 -30 -23 -40 49 -4 28 -17 59 -31 75 -24 27 -24 27 -56 9 -43
-24 -47 -15 -15 31 14 21 26 43 26 49 0 22 -26 19 -46 -6z"/>
<path d="M19740 17282 c-25 -10 -45 -24 -45 -32 0 -20 54 -32 90 -20 30 11 75
47 75 62 0 14 -73 8 -120 -10z"/>
<path d="M25660 16468 c0 -32 -32 -43 -149 -51 -64 -5 -132 -8 -151 -8 -55 1
-96 -17 -130 -56 -38 -43 -40 -96 -2 -101 19 -3 22 -9 22 -52 0 -112 33 -128
175 -87 37 11 65 12 107 6 78 -12 130 -37 278 -130 108 -68 136 -81 183 -86
47 -5 58 -2 76 16 22 22 21 61 -5 113 -16 32 -18 52 -4 43 17 -10 12 5 -34
104 -24 53 -46 104 -49 114 -4 10 -16 17 -31 17 -13 0 -38 11 -54 25 -16 13
-41 29 -56 34 -17 7 -26 18 -26 33 0 30 -15 52 -28 44 -6 -3 -14 -21 -18 -39
l-7 -32 -9 32 c-6 24 -12 30 -27 26 -12 -3 -26 5 -40 23 -13 17 -21 21 -21 12z"/>
<path d="M24125 16080 c-13 -21 -86 -50 -157 -61 -41 -7 -95 -24 -123 -39 -27
-15 -75 -36 -104 -46 -36 -13 -75 -37 -112 -71 -36 -34 -66 -53 -81 -53 -44 0
-112 -55 -268 -219 -85 -89 -180 -178 -210 -199 -80 -54 -203 -157 -237 -200
-65 -81 -68 -110 -15 -159 32 -30 42 -34 77 -30 63 6 85 -6 85 -47 0 -26 7
-40 31 -60 34 -29 74 -34 83 -10 3 9 6 30 6 48 0 43 22 71 84 106 29 17 63 41
76 55 26 28 50 26 111 -7 54 -30 77 -80 94 -202 28 -201 38 -209 251 -216 169
-6 187 -12 200 -74 13 -62 76 -103 140 -92 23 5 53 24 87 56 29 28 81 75 117
107 36 31 69 63 74 72 5 8 24 71 43 140 43 159 76 232 122 274 25 22 45 54 60
98 13 35 41 99 62 142 27 52 41 97 46 137 6 59 6 59 -27 77 -18 10 -51 30 -74
45 -60 40 -89 36 -176 -23 -70 -48 -78 -51 -125 -47 -108 9 -176 72 -176 164
-1 27 4 62 10 77 15 38 15 37 -19 37 -55 0 -112 43 -94 71 3 5 14 9 26 9 48 0
153 103 141 138 -6 15 -19 16 -28 2z"/>
<path d="M23846 14198 c-24 -34 -20 -48 14 -48 20 0 28 4 24 13 -3 8 2 20 11
27 13 11 13 15 3 21 -21 14 -36 10 -52 -13z"/>
<path d="M21303 13905 c-65 -29 -130 -56 -146 -59 -58 -13 -147 -120 -147
-177 0 -12 7 -30 16 -40 14 -16 11 -18 -38 -29 -87 -21 -85 -18 -85 -114 -1
-106 8 -121 74 -121 26 0 63 3 81 7 24 6 32 4 32 -6 0 -8 19 -21 42 -30 70
-29 106 2 142 120 4 12 27 30 56 44 57 27 75 44 84 82 3 15 42 66 87 113 l80
85 -27 48 c-34 59 -59 87 -100 111 l-32 19 -119 -53z"/>
<path d="M21251 13074 c-29 -36 -43 -90 -39 -144 4 -53 27 -64 62 -31 19 18
37 21 129 23 59 2 107 4 107 5 0 11 -155 121 -165 117 -8 -4 -20 7 -30 25 -19
38 -37 39 -64 5z"/>
<path d="M26579 10247 c-61 -104 -94 -141 -151 -172 -39 -21 -64 -27 -107 -27
-43 0 -63 -5 -86 -22 -16 -13 -70 -45 -119 -72 -164 -91 -212 -154 -204 -267
5 -56 2 -66 -25 -106 -21 -30 -31 -58 -31 -84 -1 -56 15 -64 106 -51 68 10 83
17 205 98 123 81 216 126 262 126 30 0 136 76 163 117 47 72 63 151 48 236
-11 57 -10 59 15 79 28 22 55 68 55 93 0 30 -32 85 -60 105 l-28 20 -43 -73z"/>
<path d="M17866 9430 c-94 -100 -104 -146 -55 -250 17 -36 41 -92 54 -125 12
-33 50 -120 84 -194 34 -74 72 -170 85 -214 l23 -79 35 35 c45 45 92 126 125
219 21 57 27 94 28 168 2 76 6 102 23 129 44 73 34 156 -35 277 l-36 62 -36
-10 c-52 -15 -135 -3 -186 25 l-44 25 -65 -68z"/>
<path d="M25734 9181 c-138 -39 -183 -96 -184 -232 0 -89 -40 -187 -150 -369
-103 -170 -157 -293 -190 -433 -33 -140 -58 -198 -126 -287 -57 -75 -126 -110
-283 -145 -177 -39 -204 -71 -97 -113 81 -32 219 -41 279 -18 56 21 82 50 97
105 15 58 91 133 173 171 34 16 121 41 192 55 129 27 252 70 290 103 21 17
104 223 130 322 8 30 15 87 15 125 0 39 12 129 27 200 44 215 34 475 -18 475
-10 0 -25 13 -34 30 -18 35 -33 36 -121 11z"/>
<path d="M21295 8789 c-41 -20 -54 -20 -201 -3 -48 6 -54 4 -90 -29 -22 -19
-50 -38 -64 -42 -37 -11 -68 -42 -117 -120 -46 -71 -78 -104 -101 -105 -7 0
-31 -14 -54 -30 -62 -45 -164 -73 -246 -68 -57 4 -74 1 -112 -20 -43 -23 -51
-24 -171 -19 -138 6 -196 -3 -241 -35 l-29 -20 24 -27 c45 -48 79 -113 128
-245 33 -89 74 -171 128 -261 43 -71 96 -165 117 -208 l38 -77 36 6 c68 13
202 55 248 78 66 34 88 58 202 226 17 25 49 101 71 172 22 70 53 154 69 185
22 43 28 66 24 90 -9 48 26 110 100 179 123 115 202 181 261 217 74 46 109 75
125 106 28 54 -69 88 -145 50z"/>
<path d="M19124 7961 c-104 -64 -114 -238 -19 -349 43 -50 87 -65 173 -60 85
5 148 44 192 121 49 85 36 146 -38 184 -24 12 -55 33 -69 47 -15 16 -57 35
-108 51 -99 30 -92 30 -131 6z"/>
<path d="M22797 7825 c-23 -49 -52 -60 -116 -46 -29 6 -89 11 -134 11 -66 0
-92 5 -135 25 -53 25 -106 32 -128 17 -6 -4 -13 -28 -16 -54 -11 -93 -104
-233 -194 -289 -44 -27 -63 -63 -70 -136 -21 -198 219 -466 431 -481 76 -5
150 20 245 83 86 57 140 118 187 213 37 75 37 75 35 232 -1 33 -14 70 -47 134
-38 74 -45 98 -45 145 0 32 -5 63 -12 70 -11 10 -8 16 15 33 30 22 33 36 14
62 -12 16 -14 14 -30 -19z"/>
<path d="M17803 7138 c-18 -13 -59 -53 -92 -89 -72 -79 -112 -101 -161 -90
-20 4 -45 14 -57 22 -20 12 -25 11 -48 -11 -29 -28 -33 -70 -7 -93 9 -9 61
-33 114 -55 114 -46 145 -64 166 -101 l15 -28 48 93 c25 51 74 134 108 185 68
102 71 120 26 165 -30 30 -71 31 -112 2z"/>
<path d="M11860 5018 c-52 -11 -191 -51 -308 -90 -208 -69 -216 -73 -290 -133
-311 -253 -482 -545 -482 -822 0 -119 55 -267 192 -519 68 -124 75 -133 142
-181 124 -89 266 -158 610 -294 230 -92 372 -168 456 -246 41 -38 82 -88 98
-117 23 -46 27 -64 30 -176 4 -133 -10 -248 -50 -392 -24 -87 -50 -115 -158
-169 -91 -45 -176 -61 -327 -60 -230 1 -451 52 -548 126 -108 82 -257 154
-481 234 -92 33 -92 33 -146 17 -117 -34 -208 -159 -208 -285 0 -149 68 -221
352 -369 306 -160 476 -239 572 -267 84 -24 101 -25 337 -25 273 0 395 13 536
55 290 89 487 254 620 520 50 100 89 198 102 255 13 57 30 293 32 431 1 97 -1
111 -31 182 -61 147 -188 313 -334 436 -191 161 -364 252 -688 365 -119 41
-236 87 -260 102 -75 48 -172 153 -209 229 -32 65 -34 77 -34 166 0 92 1 98
42 181 96 193 311 337 487 326 73 -4 175 -50 359 -160 113 -68 119 -71 167
-65 69 8 130 37 174 83 51 52 67 87 73 154 5 47 1 65 -22 114 -52 111 -211
244 -410 344 -154 77 -226 86 -395 50z"/>
<path d="M25515 4869 c-42 -16 -73 -47 -100 -99 -105 -207 -215 -786 -245
-1290 -6 -96 -22 -278 -35 -405 -14 -126 -25 -287 -25 -357 0 -69 -7 -211 -16
-315 -23 -263 -23 -711 0 -857 22 -141 47 -205 95 -249 52 -47 98 -60 185 -55
112 7 203 57 244 133 18 35 18 84 3 368 -14 236 -9 639 9 725 18 92 30 92 176
-9 76 -53 158 -123 229 -193 105 -106 148 -161 395 -517 153 -220 243 -271
384 -219 105 40 169 141 170 270 l1 75 -69 115 c-143 239 -179 284 -453 571
-146 154 -269 279 -272 279 -3 1 -21 14 -39 29 l-33 29 57 33 c32 18 80 51
108 74 60 49 219 155 365 245 57 35 122 81 144 101 l39 38 -4 88 c-4 103 -21
144 -83 206 -55 55 -125 89 -183 90 -41 0 -63 -9 -167 -73 -178 -108 -302
-195 -475 -332 -167 -133 -214 -168 -225 -168 -9 0 -2 75 31 355 40 343 52
426 106 725 35 197 52 313 52 377 1 87 0 93 -30 130 -52 65 -102 86 -213 89
-54 2 -109 -1 -126 -7z"/>
<path d="M1430 4583 c-218 -22 -411 -63 -495 -105 -191 -96 -393 -261 -532
-433 -270 -337 -417 -847 -401 -1390 4 -138 5 -141 50 -255 207 -523 487 -787
940 -887 128 -28 504 -25 644 5 203 44 382 118 554 231 49 33 98 62 108 66 23
8 182 205 266 328 77 114 156 266 187 363 20 63 22 87 23 368 1 248 -2 321
-17 416 -127 791 -606 1309 -1202 1298 -49 0 -106 -3 -125 -5z m300 -538 c120
-61 267 -237 360 -430 106 -220 139 -351 146 -585 5 -135 2 -191 -15 -309 -23
-160 -43 -209 -143 -343 -175 -237 -416 -342 -788 -342 -157 0 -169 1 -240 28
-267 101 -439 340 -466 646 -12 142 35 462 92 622 61 172 152 325 262 439 194
204 395 293 675 298 54 1 78 -4 117 -24z"/>
<path d="M18017 3776 c-60 -25 -72 -33 -122 -76 -21 -19 -54 -32 -115 -44
-109 -23 -287 -75 -421 -123 -103 -37 -105 -38 -200 -134 -214 -215 -409 -573
-474 -870 -23 -105 -30 -280 -15 -380 23 -158 97 -314 192 -405 76 -73 350
-260 399 -272 113 -28 236 -34 347 -18 145 22 245 41 265 52 39 22 185 164
248 243 38 47 90 128 116 179 l46 93 28 -52 c73 -133 223 -277 380 -363 54
-30 69 -34 99 -27 60 13 110 42 169 97 104 96 143 207 103 296 -14 33 -44 65
-113 123 -210 176 -261 263 -338 570 -27 110 -52 227 -56 260 -47 428 -168
754 -314 846 -59 38 -139 39 -224 5z m-38 -809 c24 -105 44 -211 43 -235 -2
-83 -43 -198 -148 -410 -91 -188 -111 -221 -162 -270 -41 -41 -75 -64 -119
-81 l-62 -24 -68 44 c-87 57 -170 138 -222 218 -38 60 -41 68 -36 115 23 206
80 366 192 540 116 179 299 295 468 296 l70 0 44 -193z"/>
<path d="M28939 3776 c-61 -24 -103 -52 -133 -85 -11 -12 -26 -21 -35 -21 -35
0 -265 -61 -415 -111 -139 -45 -165 -57 -217 -101 -164 -136 -376 -456 -469
-708 -122 -331 -118 -651 11 -877 50 -87 131 -162 300 -281 114 -80 169 -112
205 -120 85 -20 227 -33 279 -27 55 7 266 42 303 50 33 8 190 152 259 238 72
89 114 154 148 232 l27 59 30 -57 c67 -124 226 -277 375 -359 51 -28 74 -35
97 -31 133 25 274 173 292 304 10 76 -18 123 -127 214 -123 101 -201 192 -250
290 -48 98 -130 419 -154 605 -42 331 -118 564 -233 714 -72 95 -176 121 -293
72z m-69 -688 c7 -40 28 -133 46 -207 29 -116 32 -141 23 -185 -20 -106 -43
-167 -146 -376 -92 -186 -113 -222 -162 -270 -39 -39 -74 -62 -117 -79 l-62
-23 -43 26 c-111 65 -221 174 -270 268 -17 34 -18 47 -10 120 17 149 44 235
119 383 133 264 327 413 538 414 l71 1 13 -72z"/>
<path d="M23435 3770 c-33 -5 -148 -16 -255 -25 l-195 -16 -65 -41 c-274 -171
-369 -277 -416 -464 -15 -59 -16 -82 -6 -177 14 -136 43 -246 86 -323 30 -55
42 -65 162 -142 166 -107 260 -151 458 -213 312 -98 428 -178 450 -309 5 -29
-3 -52 -47 -135 -58 -111 -95 -147 -194 -187 -52 -20 -74 -23 -208 -22 -218 0
-306 20 -637 145 l-208 78 -52 -15 c-39 -12 -66 -30 -110 -74 -98 -99 -132
-204 -87 -276 44 -72 251 -198 394 -240 33 -9 92 -28 130 -41 69 -24 353 -95
430 -107 83 -14 514 72 665 131 114 46 130 61 250 235 132 191 180 277 210
373 28 93 28 155 0 240 -85 259 -263 446 -564 591 -117 56 -302 121 -428 149
-130 29 -171 71 -172 177 -1 51 2 61 29 87 39 39 121 60 268 70 147 9 212 0
353 -48 229 -80 332 -63 396 63 44 86 40 242 -8 323 -30 51 -26 49 -194 106
-248 83 -334 101 -435 87z"/>
<path d="M3837 3686 c-112 -41 -197 -145 -197 -245 0 -22 16 -90 36 -153 19
-62 38 -133 41 -158 3 -27 -8 -126 -26 -245 -49 -320 -61 -470 -61 -749 0
-466 33 -618 143 -666 93 -40 255 -34 333 12 40 24 76 88 93 166 16 77 14 247
-6 370 -14 93 -15 126 -4 272 29 389 85 595 199 721 51 57 130 99 185 99 87
-1 255 -62 281 -103 21 -32 72 -192 91 -283 19 -90 45 -445 46 -609 0 -116 -8
-203 -41 -430 -27 -190 -26 -238 5 -291 28 -47 98 -98 159 -116 67 -18 165
-14 212 10 116 59 183 220 184 438 0 56 7 170 16 255 8 85 17 219 19 299 3
125 7 156 30 225 58 174 140 282 258 340 61 30 89 37 184 46 193 19 336 -24
449 -135 50 -50 52 -53 58 -122 4 -39 18 -115 31 -170 19 -76 25 -125 25 -214
0 -255 28 -476 74 -575 54 -118 124 -161 251 -153 94 6 196 53 233 108 24 34
24 38 19 190 -4 85 -15 227 -26 315 -24 187 -61 580 -61 645 0 36 -12 66 -61
155 -90 161 -126 212 -204 290 -124 122 -288 190 -514 215 -187 21 -362 0
-566 -66 -118 -39 -273 -116 -326 -162 l-45 -41 -53 102 c-83 163 -105 187
-257 287 -180 118 -194 122 -396 118 -188 -3 -215 -12 -345 -105 -41 -29 -78
-53 -82 -53 -5 0 -30 29 -57 65 -65 86 -120 115 -218 115 -39 -1 -88 -7 -109
-14z"/>
<path d="M19953 3580 c-89 -19 -160 -74 -204 -159 -38 -74 -36 -120 11 -261
23 -69 42 -138 42 -155 0 -16 -10 -86 -22 -155 -12 -69 -35 -273 -51 -455 -16
-181 -34 -384 -41 -449 -9 -93 -9 -149 1 -249 27 -289 106 -403 277 -400 122
2 222 61 270 159 l27 56 -13 259 c-7 142 -10 303 -7 358 24 365 29 406 54 485
68 217 166 320 330 347 58 9 79 9 133 -5 76 -20 180 -76 209 -112 81 -102 124
-465 120 -1015 -1 -240 0 -258 19 -296 46 -89 131 -127 270 -121 78 3 91 6
128 33 152 109 182 357 106 850 -95 608 -115 693 -196 828 -96 161 -283 277
-526 327 -90 19 -128 21 -260 17 -143 -4 -161 -7 -240 -36 -47 -18 -91 -33
-97 -34 -7 -1 -41 32 -75 72 -35 41 -76 83 -93 92 -37 22 -116 31 -172 19z"/>
<path d="M14895 3434 c-11 -2 -45 -9 -75 -15 -83 -16 -218 -58 -287 -89 l-63
-29 -32 38 c-53 62 -89 75 -198 76 -121 0 -182 -17 -231 -66 -49 -49 -69 -116
-69 -233 0 -98 21 -297 46 -441 19 -108 19 -103 4 -235 -15 -131 -15 -571 0
-677 8 -58 8 -104 -1 -169 -11 -88 -31 -796 -33 -1179 -1 -197 -1 -201 25
-255 55 -114 116 -149 254 -150 73 0 99 4 140 24 28 12 55 29 61 37 12 15 46
191 63 324 6 44 13 233 15 420 3 187 9 397 12 467 l7 127 131 32 c86 21 173
34 251 39 145 9 200 26 390 120 172 84 306 173 401 265 69 66 76 78 142 225
38 85 74 169 81 185 42 115 62 335 41 480 -41 292 -166 479 -395 590 -147 71
-227 87 -460 91 -110 1 -209 1 -220 -2z m288 -545 c116 -16 186 -67 222 -163
15 -38 17 -65 12 -149 -9 -164 -56 -281 -152 -385 -36 -39 -70 -66 -98 -75
-23 -9 -87 -32 -142 -52 -55 -20 -127 -41 -160 -46 -33 -5 -117 -24 -186 -41
-70 -17 -134 -28 -143 -25 -21 8 -22 134 -2 262 21 127 28 293 18 408 l-8 99
36 32 c77 69 184 130 255 146 39 8 261 2 348 -11z"/>
</g>
</svg>
