<svg xmlns="http://www.w3.org/2000/svg" xmlns:xlink="http://www.w3.org/1999/xlink" width="500" zoomAndPan="magnify" viewBox="0 0 375 374.999991" height="500" preserveAspectRatio="xMidYMid meet" version="1.0"><defs><g/><clipPath id="9eb5952dd5"><path d="M 47.902344 87.019531 L 326.902344 87.019531 L 326.902344 274 L 47.902344 274 Z M 47.902344 87.019531 " clip-rule="nonzero"/></clipPath><clipPath id="ca3fb1a95a"><path d="M 129 264 L 203 264 L 203 337.519531 L 129 337.519531 Z M 129 264 " clip-rule="nonzero"/></clipPath></defs><g clip-path="url(#9eb5952dd5)"><path fill="#db3f1d" d="M 327.089844 215.15625 C 327.089844 247.292969 301.035156 273.320312 268.917969 273.320312 L 106.054688 273.320312 C 73.945312 273.320312 47.902344 247.289062 47.902344 215.15625 L 47.902344 145.359375 C 47.902344 113.25 73.945312 87.214844 106.054688 87.214844 L 268.914062 87.214844 C 301.035156 87.214844 327.066406 113.25 327.066406 145.359375 L 327.066406 215.15625 Z M 327.089844 215.15625 " fill-opacity="1" fill-rule="nonzero"/></g><g clip-path="url(#ca3fb1a95a)"><path fill="#db3f1d" d="M 129.335938 265.574219 L 129.335938 337.300781 L 202.023438 264.597656 Z M 129.335938 265.574219 " fill-opacity="1" fill-rule="nonzero"/></g><g fill="#242526" fill-opacity="1"><g transform="translate(84.408508, 139.806476)"><g><path d="M 52.875 -1.515625 C 52.875 -0.503906 49.875 0 43.875 0 C 37.882812 0 34.890625 -0.503906 34.890625 -1.515625 L 34.890625 -21.984375 L 22.4375 -21.984375 L 22.4375 -1.515625 C 22.4375 -0.503906 19.4375 0 13.4375 0 C 7.445312 0 4.453125 -0.503906 4.453125 -1.515625 L 4.453125 -60.53125 C 4.453125 -61.78125 7.445312 -62.40625 13.4375 -62.40625 C 19.4375 -62.40625 22.4375 -61.78125 22.4375 -60.53125 L 22.4375 -39.609375 L 34.890625 -39.609375 L 34.890625 -60.359375 C 34.890625 -61.179688 36.375 -61.773438 39.34375 -62.140625 C 40.882812 -62.253906 42.398438 -62.3125 43.890625 -62.3125 L 48.421875 -62.140625 C 51.390625 -61.773438 52.875 -61.179688 52.875 -60.359375 Z M 52.875 -1.515625 "/></g></g></g><g fill="#242526" fill-opacity="1"><g transform="translate(138.343696, 139.806476)"><g><path d="M 30.921875 0.890625 C 22.585938 0.890625 15.796875 -1.835938 10.546875 -7.296875 C 5.296875 -12.753906 2.671875 -20.71875 2.671875 -31.1875 C 2.671875 -41.664062 5.328125 -49.601562 10.640625 -55 C 15.953125 -60.40625 22.804688 -63.109375 31.203125 -63.109375 C 39.597656 -63.109375 46.375 -60.453125 51.53125 -55.140625 C 56.695312 -49.828125 59.28125 -41.785156 59.28125 -31.015625 C 59.28125 -20.242188 56.640625 -12.234375 51.359375 -6.984375 C 46.078125 -1.734375 39.265625 0.890625 30.921875 0.890625 Z M 30.96875 -46.015625 C 28.125 -46.015625 25.738281 -44.707031 23.8125 -42.09375 C 21.882812 -39.488281 20.921875 -35.828125 20.921875 -31.109375 C 20.921875 -26.390625 21.835938 -22.769531 23.671875 -20.25 C 25.515625 -17.726562 27.929688 -16.46875 30.921875 -16.46875 C 33.921875 -16.46875 36.351562 -17.742188 38.21875 -20.296875 C 40.09375 -22.847656 41.03125 -26.492188 41.03125 -31.234375 C 41.03125 -35.984375 40.066406 -39.632812 38.140625 -42.1875 C 36.210938 -44.738281 33.820312 -46.015625 30.96875 -46.015625 Z M 30.96875 -46.015625 "/></g></g></g><g fill="#242526" fill-opacity="1"><g transform="translate(196.907079, 139.806476)"><g><path d="M 3.5625 -5.25 L 3.5625 -60.625 C 3.5625 -61.863281 6.570312 -62.484375 12.59375 -62.484375 C 18.613281 -62.484375 21.625 -61.863281 21.625 -60.625 L 21.625 -17 L 35.34375 -17 C 36.40625 -17 37.144531 -15.601562 37.5625 -12.8125 C 37.738281 -11.445312 37.828125 -10.050781 37.828125 -8.625 C 37.828125 -7.207031 37.738281 -5.753906 37.5625 -4.265625 C 37.09375 -1.421875 36.320312 0 35.25 0 L 7.828125 0 C 6.523438 0 5.488281 -0.53125 4.71875 -1.59375 C 3.945312 -2.664062 3.5625 -3.882812 3.5625 -5.25 Z M 3.5625 -5.25 "/></g></g></g><g fill="#242526" fill-opacity="1"><g transform="translate(232.240464, 139.806476)"><g><path d="M 46.28125 0.171875 C 41.125 0.171875 38.335938 -0.65625 37.921875 -2.3125 L 34.984375 -13.796875 L 20.828125 -13.796875 L 18.25 -2.765625 C 17.894531 -0.921875 15.046875 0 9.703125 0 C 6.859375 0 4.75 -0.160156 3.375 -0.484375 C 2.007812 -0.816406 1.328125 -1.070312 1.328125 -1.25 L 17.09375 -61.515625 C 17.09375 -61.984375 21.15625 -62.21875 29.28125 -62.21875 C 37.414062 -62.21875 41.484375 -61.984375 41.484375 -61.515625 L 56.875 -1.15625 C 56.875 -0.738281 55.507812 -0.410156 52.78125 -0.171875 C 50.050781 0.0546875 47.882812 0.171875 46.28125 0.171875 Z M 23.0625 -25.109375 L 32.40625 -25.109375 L 28.390625 -43.53125 L 27.859375 -43.53125 Z M 23.0625 -25.109375 "/></g></g></g><g fill="#242526" fill-opacity="1"><g transform="translate(84.408508, 206.661649)"><g><path d="M 52.875 -1.515625 C 52.875 -0.503906 49.875 0 43.875 0 C 37.882812 0 34.890625 -0.503906 34.890625 -1.515625 L 34.890625 -21.984375 L 22.4375 -21.984375 L 22.4375 -1.515625 C 22.4375 -0.503906 19.4375 0 13.4375 0 C 7.445312 0 4.453125 -0.503906 4.453125 -1.515625 L 4.453125 -60.53125 C 4.453125 -61.78125 7.445312 -62.40625 13.4375 -62.40625 C 19.4375 -62.40625 22.4375 -61.78125 22.4375 -60.53125 L 22.4375 -39.609375 L 34.890625 -39.609375 L 34.890625 -60.359375 C 34.890625 -61.179688 36.375 -61.773438 39.34375 -62.140625 C 40.882812 -62.253906 42.398438 -62.3125 43.890625 -62.3125 L 48.421875 -62.140625 C 51.390625 -61.773438 52.875 -61.179688 52.875 -60.359375 Z M 52.875 -1.515625 "/></g></g></g><g fill="#242526" fill-opacity="1"><g transform="translate(138.343696, 206.661649)"><g><path d="M 30.921875 0.890625 C 22.585938 0.890625 15.796875 -1.835938 10.546875 -7.296875 C 5.296875 -12.753906 2.671875 -20.71875 2.671875 -31.1875 C 2.671875 -41.664062 5.328125 -49.601562 10.640625 -55 C 15.953125 -60.40625 22.804688 -63.109375 31.203125 -63.109375 C 39.597656 -63.109375 46.375 -60.453125 51.53125 -55.140625 C 56.695312 -49.828125 59.28125 -41.785156 59.28125 -31.015625 C 59.28125 -20.242188 56.640625 -12.234375 51.359375 -6.984375 C 46.078125 -1.734375 39.265625 0.890625 30.921875 0.890625 Z M 30.96875 -46.015625 C 28.125 -46.015625 25.738281 -44.707031 23.8125 -42.09375 C 21.882812 -39.488281 20.921875 -35.828125 20.921875 -31.109375 C 20.921875 -26.390625 21.835938 -22.769531 23.671875 -20.25 C 25.515625 -17.726562 27.929688 -16.46875 30.921875 -16.46875 C 33.921875 -16.46875 36.351562 -17.742188 38.21875 -20.296875 C 40.09375 -22.847656 41.03125 -26.492188 41.03125 -31.234375 C 41.03125 -35.984375 40.066406 -39.632812 38.140625 -42.1875 C 36.210938 -44.738281 33.820312 -46.015625 30.96875 -46.015625 Z M 30.96875 -46.015625 "/></g></g></g><g fill="#242526" fill-opacity="1"><g transform="translate(196.907079, 206.661649)"><g><path d="M 3.5625 -5.25 L 3.5625 -60.625 C 3.5625 -61.863281 6.570312 -62.484375 12.59375 -62.484375 C 18.613281 -62.484375 21.625 -61.863281 21.625 -60.625 L 21.625 -17 L 35.34375 -17 C 36.40625 -17 37.144531 -15.601562 37.5625 -12.8125 C 37.738281 -11.445312 37.828125 -10.050781 37.828125 -8.625 C 37.828125 -7.207031 37.738281 -5.753906 37.5625 -4.265625 C 37.09375 -1.421875 36.320312 0 35.25 0 L 7.828125 0 C 6.523438 0 5.488281 -0.53125 4.71875 -1.59375 C 3.945312 -2.664062 3.5625 -3.882812 3.5625 -5.25 Z M 3.5625 -5.25 "/></g></g></g><g fill="#242526" fill-opacity="1"><g transform="translate(232.240464, 206.661649)"><g><path d="M 46.28125 0.171875 C 41.125 0.171875 38.335938 -0.65625 37.921875 -2.3125 L 34.984375 -13.796875 L 20.828125 -13.796875 L 18.25 -2.765625 C 17.894531 -0.921875 15.046875 0 9.703125 0 C 6.859375 0 4.75 -0.160156 3.375 -0.484375 C 2.007812 -0.816406 1.328125 -1.070312 1.328125 -1.25 L 17.09375 -61.515625 C 17.09375 -61.984375 21.15625 -62.21875 29.28125 -62.21875 C 37.414062 -62.21875 41.484375 -61.984375 41.484375 -61.515625 L 56.875 -1.15625 C 56.875 -0.738281 55.507812 -0.410156 52.78125 -0.171875 C 50.050781 0.0546875 47.882812 0.171875 46.28125 0.171875 Z M 23.0625 -25.109375 L 32.40625 -25.109375 L 28.390625 -43.53125 L 27.859375 -43.53125 Z M 23.0625 -25.109375 "/></g></g></g><g fill="#242526" fill-opacity="1"><g transform="translate(84.408508, 273.932893)"><g><path d="M 52.875 -1.515625 C 52.875 -0.503906 49.875 0 43.875 0 C 37.882812 0 34.890625 -0.503906 34.890625 -1.515625 L 34.890625 -21.984375 L 22.4375 -21.984375 L 22.4375 -1.515625 C 22.4375 -0.503906 19.4375 0 13.4375 0 C 7.445312 0 4.453125 -0.503906 4.453125 -1.515625 L 4.453125 -60.53125 C 4.453125 -61.78125 7.445312 -62.40625 13.4375 -62.40625 C 19.4375 -62.40625 22.4375 -61.78125 22.4375 -60.53125 L 22.4375 -39.609375 L 34.890625 -39.609375 L 34.890625 -60.359375 C 34.890625 -61.179688 36.375 -61.773438 39.34375 -62.140625 C 40.882812 -62.253906 42.398438 -62.3125 43.890625 -62.3125 L 48.421875 -62.140625 C 51.390625 -61.773438 52.875 -61.179688 52.875 -60.359375 Z M 52.875 -1.515625 "/></g></g></g><g fill="#242526" fill-opacity="1"><g transform="translate(138.343696, 273.932893)"><g><path d="M 30.921875 0.890625 C 22.585938 0.890625 15.796875 -1.835938 10.546875 -7.296875 C 5.296875 -12.753906 2.671875 -20.71875 2.671875 -31.1875 C 2.671875 -41.664062 5.328125 -49.601562 10.640625 -55 C 15.953125 -60.40625 22.804688 -63.109375 31.203125 -63.109375 C 39.597656 -63.109375 46.375 -60.453125 51.53125 -55.140625 C 56.695312 -49.828125 59.28125 -41.785156 59.28125 -31.015625 C 59.28125 -20.242188 56.640625 -12.234375 51.359375 -6.984375 C 46.078125 -1.734375 39.265625 0.890625 30.921875 0.890625 Z M 30.96875 -46.015625 C 28.125 -46.015625 25.738281 -44.707031 23.8125 -42.09375 C 21.882812 -39.488281 20.921875 -35.828125 20.921875 -31.109375 C 20.921875 -26.390625 21.835938 -22.769531 23.671875 -20.25 C 25.515625 -17.726562 27.929688 -16.46875 30.921875 -16.46875 C 33.921875 -16.46875 36.351562 -17.742188 38.21875 -20.296875 C 40.09375 -22.847656 41.03125 -26.492188 41.03125 -31.234375 C 41.03125 -35.984375 40.066406 -39.632812 38.140625 -42.1875 C 36.210938 -44.738281 33.820312 -46.015625 30.96875 -46.015625 Z M 30.96875 -46.015625 "/></g></g></g><g fill="#242526" fill-opacity="1"><g transform="translate(196.907079, 273.932893)"><g><path d="M 3.5625 -5.25 L 3.5625 -60.625 C 3.5625 -61.863281 6.570312 -62.484375 12.59375 -62.484375 C 18.613281 -62.484375 21.625 -61.863281 21.625 -60.625 L 21.625 -17 L 35.34375 -17 C 36.40625 -17 37.144531 -15.601562 37.5625 -12.8125 C 37.738281 -11.445312 37.828125 -10.050781 37.828125 -8.625 C 37.828125 -7.207031 37.738281 -5.753906 37.5625 -4.265625 C 37.09375 -1.421875 36.320312 0 35.25 0 L 7.828125 0 C 6.523438 0 5.488281 -0.53125 4.71875 -1.59375 C 3.945312 -2.664062 3.5625 -3.882812 3.5625 -5.25 Z M 3.5625 -5.25 "/></g></g></g><g fill="#242526" fill-opacity="1"><g transform="translate(232.240464, 273.932893)"><g><path d="M 46.28125 0.171875 C 41.125 0.171875 38.335938 -0.65625 37.921875 -2.3125 L 34.984375 -13.796875 L 20.828125 -13.796875 L 18.25 -2.765625 C 17.894531 -0.921875 15.046875 0 9.703125 0 C 6.859375 0 4.75 -0.160156 3.375 -0.484375 C 2.007812 -0.816406 1.328125 -1.070312 1.328125 -1.25 L 17.09375 -61.515625 C 17.09375 -61.984375 21.15625 -62.21875 29.28125 -62.21875 C 37.414062 -62.21875 41.484375 -61.984375 41.484375 -61.515625 L 56.875 -1.15625 C 56.875 -0.738281 55.507812 -0.410156 52.78125 -0.171875 C 50.050781 0.0546875 47.882812 0.171875 46.28125 0.171875 Z M 23.0625 -25.109375 L 32.40625 -25.109375 L 28.390625 -43.53125 L 27.859375 -43.53125 Z M 23.0625 -25.109375 "/></g></g></g></svg>