<svg xmlns="http://www.w3.org/2000/svg" xmlns:xlink="http://www.w3.org/1999/xlink" width="500" zoomAndPan="magnify" viewBox="0 0 375 374.999991" height="500" preserveAspectRatio="xMidYMid meet" version="1.0"><defs><g/></defs><g fill="#ff3131" fill-opacity="1"><g transform="translate(86.852371, 195.466173)"><g><path d="M 1.984375 -15.40625 C 1.984375 -17.46875 2.316406 -19.363281 2.984375 -21.09375 C 3.660156 -22.820312 4.695312 -24.203125 6.09375 -25.234375 C 7.5 -26.265625 9.3125 -26.78125 11.53125 -26.78125 C 13.300781 -26.78125 14.835938 -26.328125 16.140625 -25.421875 C 17.441406 -24.523438 18.53125 -23.320312 19.40625 -21.8125 C 20.28125 -20.3125 20.929688 -18.625 21.359375 -16.75 C 21.796875 -14.875 22.015625 -12.960938 22.015625 -11.015625 C 22.015625 -9.773438 21.816406 -8.5 21.421875 -7.1875 C 21.023438 -5.882812 20.429688 -4.671875 19.640625 -3.546875 C 18.847656 -2.421875 17.890625 -1.515625 16.765625 -0.828125 C 15.648438 -0.140625 14.351562 0.203125 12.875 0.203125 C 11.445312 0.203125 10.148438 -0.132812 8.984375 -0.8125 C 7.828125 -1.488281 6.8125 -2.382812 5.9375 -3.5 C 5.070312 -4.625 4.34375 -5.875 3.75 -7.25 C 3.15625 -8.625 2.710938 -10.015625 2.421875 -11.421875 C 2.128906 -12.835938 1.984375 -14.164062 1.984375 -15.40625 Z M 12.640625 -5.578125 C 13.484375 -5.578125 14.191406 -5.828125 14.765625 -6.328125 C 15.347656 -6.835938 15.789062 -7.503906 16.09375 -8.328125 C 16.40625 -9.160156 16.5625 -10.039062 16.5625 -10.96875 C 16.5625 -11.601562 16.5 -12.351562 16.375 -13.21875 C 16.257812 -14.09375 16.066406 -14.992188 15.796875 -15.921875 C 15.535156 -16.847656 15.203125 -17.707031 14.796875 -18.5 C 14.390625 -19.289062 13.894531 -19.929688 13.3125 -20.421875 C 12.726562 -20.910156 12.066406 -21.15625 11.328125 -21.15625 C 9.984375 -21.15625 9 -20.617188 8.375 -19.546875 C 7.757812 -18.472656 7.453125 -17.195312 7.453125 -15.71875 C 7.453125 -15.269531 7.507812 -14.644531 7.625 -13.84375 C 7.738281 -13.039062 7.921875 -12.160156 8.171875 -11.203125 C 8.429688 -10.253906 8.757812 -9.347656 9.15625 -8.484375 C 9.550781 -7.628906 10.035156 -6.929688 10.609375 -6.390625 C 11.191406 -5.847656 11.867188 -5.578125 12.640625 -5.578125 Z M 12.640625 -5.578125 "/></g></g></g><g fill="#ff3131" fill-opacity="1"><g transform="translate(110.848547, 195.466173)"><g><path d="M 8.671875 -3.796875 C 8.648438 -2.765625 8.351562 -1.992188 7.78125 -1.484375 C 7.21875 -0.972656 6.601562 -0.71875 5.9375 -0.71875 C 5.300781 -0.71875 4.710938 -0.953125 4.171875 -1.421875 C 3.628906 -1.898438 3.296875 -2.628906 3.171875 -3.609375 C 3.222656 -5.398438 3.304688 -6.9375 3.421875 -8.21875 C 3.546875 -9.5 3.664062 -10.695312 3.78125 -11.8125 C 3.90625 -12.9375 4.007812 -14.140625 4.09375 -15.421875 C 4.1875 -16.703125 4.234375 -18.242188 4.234375 -20.046875 C 4.234375 -20.492188 4.210938 -20.976562 4.171875 -21.5 C 4.140625 -22.03125 4.125 -22.507812 4.125 -22.9375 C 4.125 -23.351562 4.203125 -23.835938 4.359375 -24.390625 C 4.515625 -24.953125 4.800781 -25.445312 5.21875 -25.875 C 5.644531 -26.3125 6.253906 -26.53125 7.046875 -26.53125 C 7.390625 -26.53125 7.800781 -26.453125 8.28125 -26.296875 C 8.59375 -26.109375 8.992188 -25.765625 9.484375 -25.265625 C 9.972656 -24.765625 10.492188 -24.203125 11.046875 -23.578125 C 11.609375 -22.960938 12.15625 -22.359375 12.6875 -21.765625 C 13.226562 -21.171875 13.71875 -20.675781 14.15625 -20.28125 C 14.59375 -19.882812 14.914062 -19.6875 15.125 -19.6875 C 15.84375 -20.5625 16.585938 -21.429688 17.359375 -22.296875 C 18.140625 -23.171875 18.984375 -23.960938 19.890625 -24.671875 C 20.804688 -25.390625 21.804688 -25.90625 22.890625 -26.21875 C 23.628906 -26.21875 24.242188 -26.101562 24.734375 -25.875 C 25.222656 -25.65625 25.585938 -25.210938 25.828125 -24.546875 C 26.066406 -23.890625 26.1875 -22.90625 26.1875 -21.59375 C 26.1875 -19.53125 26.128906 -17.390625 26.015625 -15.171875 C 25.910156 -12.953125 25.789062 -10.757812 25.65625 -8.59375 C 25.53125 -6.425781 25.414062 -4.40625 25.3125 -2.53125 C 25.28125 -1.5 24.972656 -0.726562 24.390625 -0.21875 C 23.816406 0.289062 23.210938 0.546875 22.578125 0.546875 C 21.941406 0.546875 21.351562 0.3125 20.8125 -0.15625 C 20.269531 -0.632812 19.9375 -1.363281 19.8125 -2.34375 C 19.832031 -4.101562 19.867188 -5.734375 19.921875 -7.234375 C 19.972656 -8.742188 20.046875 -10.25 20.140625 -11.75 C 20.234375 -13.257812 20.332031 -14.890625 20.4375 -16.640625 L 20.484375 -17.3125 C 19.816406 -16.46875 19.113281 -15.679688 18.375 -14.953125 C 17.632812 -14.222656 16.738281 -13.859375 15.6875 -13.859375 C 14.550781 -13.859375 13.46875 -14.179688 12.4375 -14.828125 C 11.40625 -15.472656 10.46875 -16.207031 9.625 -17.03125 C 9.570312 -15.5 9.5 -14.222656 9.40625 -13.203125 C 9.3125 -12.191406 9.21875 -11.265625 9.125 -10.421875 C 9.03125 -9.578125 8.941406 -8.648438 8.859375 -7.640625 C 8.785156 -6.640625 8.722656 -5.359375 8.671875 -3.796875 Z M 8.671875 -3.796875 "/></g></g></g><g fill="#ff3131" fill-opacity="1"><g transform="translate(140.190376, 195.466173)"><g><path d="M 14.734375 -5.546875 C 14.648438 -4.171875 14.253906 -2.847656 13.546875 -1.578125 C 12.835938 -0.316406 11.921875 0.707031 10.796875 1.5 C 9.671875 2.289062 8.445312 2.6875 7.125 2.6875 C 6.226562 2.6875 5.460938 2.445312 4.828125 1.96875 C 4.191406 1.5 3.875 0.84375 3.875 0 C 3.875 -0.601562 4.085938 -1.296875 4.515625 -2.078125 C 4.941406 -2.859375 5.46875 -3.40625 6.09375 -3.71875 C 7.019531 -4.164062 7.707031 -4.628906 8.15625 -5.109375 C 8.601562 -5.585938 8.828125 -6.195312 8.828125 -6.9375 C 8.828125 -7.625 8.609375 -8.375 8.171875 -9.1875 C 7.742188 -10.007812 7.195312 -10.800781 6.53125 -11.5625 C 5.875 -12.332031 5.1875 -12.992188 4.46875 -13.546875 C 3.46875 -14.472656 2.734375 -15.320312 2.265625 -16.09375 C 1.804688 -16.875 1.578125 -17.632812 1.578125 -18.375 C 1.578125 -19.351562 1.921875 -20.484375 2.609375 -21.765625 C 3.296875 -23.046875 4.226562 -24.316406 5.40625 -25.578125 C 6.582031 -26.847656 7.941406 -27.984375 9.484375 -28.984375 C 11.023438 -29.992188 12.644531 -30.710938 14.34375 -31.140625 C 14.519531 -31.242188 14.6875 -31.335938 14.84375 -31.421875 C 15.007812 -31.515625 15.238281 -31.5625 15.53125 -31.5625 C 16.21875 -31.5625 16.84375 -31.421875 17.40625 -31.140625 C 17.976562 -30.867188 18.4375 -30.539062 18.78125 -30.15625 C 19.125 -29.78125 19.296875 -29.421875 19.296875 -29.078125 C 19.296875 -28.410156 19.035156 -27.929688 18.515625 -27.640625 C 18.003906 -27.359375 17.507812 -27.109375 17.03125 -26.890625 C 15.738281 -26.367188 14.523438 -25.738281 13.390625 -25 C 12.253906 -24.257812 11.101562 -23.546875 9.9375 -22.859375 C 9.25 -22.429688 8.582031 -21.84375 7.9375 -21.09375 C 7.289062 -20.34375 6.96875 -19.554688 6.96875 -18.734375 C 6.96875 -18.390625 7.050781 -18.03125 7.21875 -17.65625 C 7.394531 -17.289062 7.679688 -16.953125 8.078125 -16.640625 C 9.191406 -15.742188 10.253906 -14.726562 11.265625 -13.59375 C 12.285156 -12.457031 13.125 -11.253906 13.78125 -9.984375 C 14.445312 -8.710938 14.78125 -7.429688 14.78125 -6.140625 C 14.78125 -6.035156 14.769531 -5.9375 14.75 -5.84375 C 14.738281 -5.75 14.734375 -5.648438 14.734375 -5.546875 Z M 14.734375 -5.546875 "/></g></g></g><g fill="#ff3131" fill-opacity="1"><g transform="translate(157.098555, 195.466173)"><g><path d="M 9.625 -26.5 C 11.132812 -26.5 12.539062 -26.148438 13.84375 -25.453125 C 15.144531 -24.753906 16.191406 -23.816406 16.984375 -22.640625 C 17.785156 -21.460938 18.1875 -20.175781 18.1875 -18.78125 C 18.1875 -17.71875 17.90625 -16.722656 17.34375 -15.796875 C 16.789062 -14.878906 16.082031 -14.085938 15.21875 -13.421875 C 14.363281 -12.765625 13.503906 -12.265625 12.640625 -11.921875 C 11.503906 -11.492188 10.703125 -10.960938 10.234375 -10.328125 C 9.773438 -9.703125 9.546875 -8.859375 9.546875 -7.796875 C 9.546875 -6.847656 9.570312 -5.863281 9.625 -4.84375 C 9.675781 -3.832031 9.703125 -2.835938 9.703125 -1.859375 C 9.703125 -1.273438 9.550781 -0.832031 9.25 -0.53125 C 8.945312 -0.226562 8.570312 -0.078125 8.125 -0.078125 C 7.59375 -0.078125 7.003906 -0.253906 6.359375 -0.609375 C 5.710938 -0.972656 5.15625 -1.460938 4.6875 -2.078125 C 4.226562 -2.703125 4 -3.382812 4 -4.125 C 4 -5.09375 4.03125 -6.054688 4.09375 -7.015625 C 4.164062 -7.984375 4.203125 -8.957031 4.203125 -9.9375 C 4.203125 -11.394531 4.03125 -12.890625 3.6875 -14.421875 C 3.34375 -15.953125 3.171875 -17.46875 3.171875 -18.96875 C 3.171875 -20.320312 3.425781 -21.570312 3.9375 -22.71875 C 4.457031 -23.863281 5.195312 -24.78125 6.15625 -25.46875 C 7.125 -26.15625 8.28125 -26.5 9.625 -26.5 Z M 9.625 -26.5 "/></g></g></g><g fill="#ff3131" fill-opacity="1"><g transform="translate(176.065833, 195.466173)"><g><path d="M 10.140625 -7.453125 C 9.765625 -7.503906 9.421875 -7.585938 9.109375 -7.703125 C 8.796875 -7.816406 8.519531 -7.96875 8.28125 -8.15625 C 8.226562 -7.394531 8.164062 -6.796875 8.09375 -6.359375 C 8.03125 -5.921875 7.976562 -5.476562 7.9375 -5.03125 C 7.894531 -4.582031 7.875 -3.972656 7.875 -3.203125 C 7.851562 -2.171875 7.554688 -1.398438 6.984375 -0.890625 C 6.421875 -0.378906 5.8125 -0.125 5.15625 -0.125 C 4.519531 -0.125 3.929688 -0.359375 3.390625 -0.828125 C 2.847656 -1.304688 2.507812 -2.035156 2.375 -3.015625 C 2.375 -6.316406 2.617188 -9.488281 3.109375 -12.53125 C 3.597656 -15.582031 4.117188 -18.390625 4.671875 -20.953125 C 4.929688 -22.191406 5.253906 -23.332031 5.640625 -24.375 C 6.023438 -25.414062 6.625 -26.253906 7.4375 -26.890625 C 8.257812 -27.523438 9.453125 -27.84375 11.015625 -27.84375 C 11.328125 -27.84375 11.632812 -27.773438 11.9375 -27.640625 C 12.238281 -27.515625 12.5625 -27.316406 12.90625 -27.046875 C 14.09375 -25.859375 15.15625 -24.351562 16.09375 -22.53125 C 17.03125 -20.71875 17.847656 -18.765625 18.546875 -16.671875 C 19.253906 -14.585938 19.851562 -12.53125 20.34375 -10.5 C 20.832031 -8.46875 21.222656 -6.644531 21.515625 -5.03125 L 21.984375 -3.921875 C 22.117188 -3.441406 22.1875 -3.046875 22.1875 -2.734375 C 22.1875 -1.910156 21.925781 -1.25 21.40625 -0.75 C 20.894531 -0.25 20.296875 0 19.609375 0 C 18.785156 0 18.144531 -0.25 17.6875 -0.75 C 17.226562 -1.25 16.878906 -1.867188 16.640625 -2.609375 C 16.398438 -3.347656 16.207031 -4.085938 16.0625 -4.828125 C 15.914062 -5.566406 15.765625 -6.1875 15.609375 -6.6875 C 15.453125 -7.195312 15.203125 -7.453125 14.859375 -7.453125 C 14.828125 -7.453125 14.796875 -7.453125 14.765625 -7.453125 C 14.742188 -7.453125 14.71875 -7.453125 14.6875 -7.453125 Z M 10.734375 -21.234375 C 10.472656 -20.390625 10.144531 -19.472656 9.75 -18.484375 C 9.351562 -17.492188 9.15625 -16.429688 9.15625 -15.296875 C 9.15625 -14.554688 9.222656 -13.976562 9.359375 -13.5625 C 9.503906 -13.15625 9.832031 -12.953125 10.34375 -12.953125 L 13.5 -12.953125 C 13.789062 -12.953125 13.9375 -13.070312 13.9375 -13.3125 C 13.9375 -13.414062 13.921875 -13.515625 13.890625 -13.609375 C 13.867188 -13.703125 13.847656 -13.800781 13.828125 -13.90625 C 13.429688 -15.226562 12.988281 -16.4375 12.5 -17.53125 C 12.007812 -18.625 11.421875 -19.859375 10.734375 -21.234375 Z M 10.734375 -21.234375 "/></g></g></g><g fill="#ff3131" fill-opacity="1"><g transform="translate(199.032458, 195.466173)"><g><path d="M 9.421875 -1.828125 C 9.128906 -1.085938 8.726562 -0.535156 8.21875 -0.171875 C 7.707031 0.179688 7.1875 0.359375 6.65625 0.359375 C 6 0.359375 5.398438 0.109375 4.859375 -0.390625 C 4.316406 -0.898438 4.046875 -1.585938 4.046875 -2.453125 C 4.046875 -3.171875 4.125 -3.925781 4.28125 -4.71875 C 4.4375 -5.507812 4.515625 -6.285156 4.515625 -7.046875 C 4.515625 -8.679688 4.398438 -10.21875 4.171875 -11.65625 C 3.953125 -13.101562 3.726562 -14.554688 3.5 -16.015625 C 3.28125 -17.484375 3.171875 -19.078125 3.171875 -20.796875 C 3.171875 -21.378906 3.222656 -22.019531 3.328125 -22.71875 C 3.429688 -23.414062 3.617188 -24.085938 3.890625 -24.734375 C 4.171875 -25.378906 4.554688 -25.90625 5.046875 -26.3125 C 5.535156 -26.726562 6.148438 -26.9375 6.890625 -26.9375 C 7.734375 -26.9375 8.4375 -26.675781 9 -26.15625 C 9.570312 -25.644531 10.066406 -25.023438 10.484375 -24.296875 C 10.910156 -23.578125 11.3125 -22.898438 11.6875 -22.265625 C 12.550781 -20.804688 13.300781 -19.390625 13.9375 -18.015625 C 14.570312 -16.648438 15.1875 -15.269531 15.78125 -13.875 C 16.375 -12.488281 17.039062 -11.054688 17.78125 -9.578125 C 17.914062 -9.296875 18.039062 -9.09375 18.15625 -8.96875 C 18.28125 -8.851562 18.351562 -8.796875 18.375 -8.796875 C 18.457031 -8.796875 18.5 -8.898438 18.5 -9.109375 C 18.5 -9.210938 18.488281 -9.3125 18.46875 -9.40625 C 18.457031 -9.5 18.453125 -9.597656 18.453125 -9.703125 C 18.140625 -12.179688 17.769531 -14.597656 17.34375 -16.953125 C 16.925781 -19.304688 16.625 -21.84375 16.4375 -24.5625 C 16.644531 -25.425781 17.015625 -26.082031 17.546875 -26.53125 C 18.078125 -26.988281 18.628906 -27.21875 19.203125 -27.21875 C 19.765625 -27.21875 20.300781 -27.015625 20.8125 -26.609375 C 21.332031 -26.210938 21.707031 -25.59375 21.9375 -24.75 C 22.101562 -22.507812 22.414062 -20.28125 22.875 -18.0625 C 23.332031 -15.84375 23.757812 -13.6875 24.15625 -11.59375 C 24.550781 -9.507812 24.75 -7.546875 24.75 -5.703125 C 24.75 -3.929688 24.347656 -2.484375 23.546875 -1.359375 C 22.742188 -0.242188 21.523438 0.3125 19.890625 0.3125 C 19.015625 0.3125 18.191406 -0.0195312 17.421875 -0.6875 C 16.660156 -1.363281 15.945312 -2.253906 15.28125 -3.359375 C 14.625 -4.472656 13.992188 -5.6875 13.390625 -7 C 12.785156 -8.320312 12.195312 -9.644531 11.625 -10.96875 C 11.0625 -12.289062 10.5 -13.476562 9.9375 -14.53125 C 9.832031 -14.71875 9.71875 -14.894531 9.59375 -15.0625 C 9.476562 -15.238281 9.394531 -15.328125 9.34375 -15.328125 C 9.238281 -15.328125 9.1875 -15.195312 9.1875 -14.9375 C 9.1875 -14.851562 9.191406 -14.75 9.203125 -14.625 C 9.222656 -14.507812 9.242188 -14.375 9.265625 -14.21875 C 9.421875 -13 9.578125 -11.835938 9.734375 -10.734375 C 9.898438 -9.628906 9.984375 -8.390625 9.984375 -7.015625 C 9.984375 -6.140625 9.941406 -5.265625 9.859375 -4.390625 C 9.785156 -3.523438 9.640625 -2.671875 9.421875 -1.828125 Z M 9.421875 -1.828125 "/></g></g></g><g fill="#ff3131" fill-opacity="1"><g transform="translate(225.760844, 195.466173)"><g><path d="M 14.734375 -5.546875 C 14.648438 -4.171875 14.253906 -2.847656 13.546875 -1.578125 C 12.835938 -0.316406 11.921875 0.707031 10.796875 1.5 C 9.671875 2.289062 8.445312 2.6875 7.125 2.6875 C 6.226562 2.6875 5.460938 2.445312 4.828125 1.96875 C 4.191406 1.5 3.875 0.84375 3.875 0 C 3.875 -0.601562 4.085938 -1.296875 4.515625 -2.078125 C 4.941406 -2.859375 5.46875 -3.40625 6.09375 -3.71875 C 7.019531 -4.164062 7.707031 -4.628906 8.15625 -5.109375 C 8.601562 -5.585938 8.828125 -6.195312 8.828125 -6.9375 C 8.828125 -7.625 8.609375 -8.375 8.171875 -9.1875 C 7.742188 -10.007812 7.195312 -10.800781 6.53125 -11.5625 C 5.875 -12.332031 5.1875 -12.992188 4.46875 -13.546875 C 3.46875 -14.472656 2.734375 -15.320312 2.265625 -16.09375 C 1.804688 -16.875 1.578125 -17.632812 1.578125 -18.375 C 1.578125 -19.351562 1.921875 -20.484375 2.609375 -21.765625 C 3.296875 -23.046875 4.226562 -24.316406 5.40625 -25.578125 C 6.582031 -26.847656 7.941406 -27.984375 9.484375 -28.984375 C 11.023438 -29.992188 12.644531 -30.710938 14.34375 -31.140625 C 14.519531 -31.242188 14.6875 -31.335938 14.84375 -31.421875 C 15.007812 -31.515625 15.238281 -31.5625 15.53125 -31.5625 C 16.21875 -31.5625 16.84375 -31.421875 17.40625 -31.140625 C 17.976562 -30.867188 18.4375 -30.539062 18.78125 -30.15625 C 19.125 -29.78125 19.296875 -29.421875 19.296875 -29.078125 C 19.296875 -28.410156 19.035156 -27.929688 18.515625 -27.640625 C 18.003906 -27.359375 17.507812 -27.109375 17.03125 -26.890625 C 15.738281 -26.367188 14.523438 -25.738281 13.390625 -25 C 12.253906 -24.257812 11.101562 -23.546875 9.9375 -22.859375 C 9.25 -22.429688 8.582031 -21.84375 7.9375 -21.09375 C 7.289062 -20.34375 6.96875 -19.554688 6.96875 -18.734375 C 6.96875 -18.390625 7.050781 -18.03125 7.21875 -17.65625 C 7.394531 -17.289062 7.679688 -16.953125 8.078125 -16.640625 C 9.191406 -15.742188 10.253906 -14.726562 11.265625 -13.59375 C 12.285156 -12.457031 13.125 -11.253906 13.78125 -9.984375 C 14.445312 -8.710938 14.78125 -7.429688 14.78125 -6.140625 C 14.78125 -6.035156 14.769531 -5.9375 14.75 -5.84375 C 14.738281 -5.75 14.734375 -5.648438 14.734375 -5.546875 Z M 14.734375 -5.546875 "/></g></g></g><g fill="#ff3131" fill-opacity="1"><g transform="translate(242.669023, 195.466173)"><g><path d="M 3.40625 -24.71875 C 3.613281 -25.582031 3.984375 -26.238281 4.515625 -26.6875 C 5.046875 -27.144531 5.597656 -27.375 6.171875 -27.375 C 6.734375 -27.375 7.269531 -27.175781 7.78125 -26.78125 C 8.300781 -26.382812 8.675781 -25.765625 8.90625 -24.921875 C 8.90625 -24.304688 8.90625 -23.6875 8.90625 -23.0625 C 8.90625 -22.445312 8.90625 -21.835938 8.90625 -21.234375 C 8.90625 -20.335938 8.910156 -19.429688 8.921875 -18.515625 C 8.941406 -17.609375 8.960938 -16.691406 8.984375 -15.765625 C 9.492188 -16.660156 10.019531 -17.609375 10.5625 -18.609375 C 11.101562 -19.617188 11.585938 -20.625 12.015625 -21.625 C 12.453125 -22.625 12.738281 -23.550781 12.875 -24.40625 C 13.082031 -25.300781 13.457031 -25.960938 14 -26.390625 C 14.539062 -26.828125 15.101562 -27.046875 15.6875 -27.046875 C 16.394531 -27.046875 17.015625 -26.753906 17.546875 -26.171875 C 18.078125 -25.597656 18.34375 -24.769531 18.34375 -23.6875 C 18.125 -22.34375 17.71875 -21.015625 17.125 -19.703125 C 16.53125 -18.398438 15.921875 -17.128906 15.296875 -15.890625 C 15.660156 -15.304688 16.019531 -14.503906 16.375 -13.484375 C 16.726562 -12.472656 17.125 -11.414062 17.5625 -10.3125 C 18 -9.21875 18.492188 -8.210938 19.046875 -7.296875 C 19.609375 -6.390625 20.242188 -5.753906 20.953125 -5.390625 C 21.484375 -5.015625 21.875 -4.597656 22.125 -4.140625 C 22.375 -3.679688 22.5 -3.222656 22.5 -2.765625 C 22.5 -2.085938 22.234375 -1.488281 21.703125 -0.96875 C 21.171875 -0.457031 20.445312 -0.203125 19.53125 -0.203125 C 18.707031 -0.203125 17.929688 -0.503906 17.203125 -1.109375 C 16.484375 -1.710938 15.8125 -2.515625 15.1875 -3.515625 C 14.570312 -4.523438 13.992188 -5.632812 13.453125 -6.84375 C 12.910156 -8.0625 12.414062 -9.265625 11.96875 -10.453125 C 11.4375 -9.867188 10.800781 -9.578125 10.0625 -9.578125 C 9.875 -9.578125 9.726562 -9.59375 9.625 -9.625 C 9.707031 -8.726562 9.8125 -7.890625 9.9375 -7.109375 C 10.070312 -6.328125 10.1875 -5.535156 10.28125 -4.734375 C 10.375 -3.929688 10.421875 -3.015625 10.421875 -1.984375 C 10.421875 -1.316406 10.164062 -0.734375 9.65625 -0.234375 C 9.15625 0.265625 8.507812 0.515625 7.71875 0.515625 C 6.769531 0.515625 6.070312 0.269531 5.625 -0.21875 C 5.175781 -0.707031 4.882812 -1.328125 4.75 -2.078125 C 4.625 -2.828125 4.5625 -3.570312 4.5625 -4.3125 C 4.5625 -6.132812 4.445312 -7.960938 4.21875 -9.796875 C 3.988281 -11.640625 3.753906 -13.488281 3.515625 -15.34375 C 3.285156 -17.207031 3.171875 -19.0625 3.171875 -20.90625 C 3.171875 -22.175781 3.25 -23.445312 3.40625 -24.71875 Z M 3.40625 -24.71875 "/></g></g></g><g fill="#ff3131" fill-opacity="1"><g transform="translate(265.160494, 195.466173)"><g><path d="M 10.140625 -7.453125 C 9.765625 -7.503906 9.421875 -7.585938 9.109375 -7.703125 C 8.796875 -7.816406 8.519531 -7.96875 8.28125 -8.15625 C 8.226562 -7.394531 8.164062 -6.796875 8.09375 -6.359375 C 8.03125 -5.921875 7.976562 -5.476562 7.9375 -5.03125 C 7.894531 -4.582031 7.875 -3.972656 7.875 -3.203125 C 7.851562 -2.171875 7.554688 -1.398438 6.984375 -0.890625 C 6.421875 -0.378906 5.8125 -0.125 5.15625 -0.125 C 4.519531 -0.125 3.929688 -0.359375 3.390625 -0.828125 C 2.847656 -1.304688 2.507812 -2.035156 2.375 -3.015625 C 2.375 -6.316406 2.617188 -9.488281 3.109375 -12.53125 C 3.597656 -15.582031 4.117188 -18.390625 4.671875 -20.953125 C 4.929688 -22.191406 5.253906 -23.332031 5.640625 -24.375 C 6.023438 -25.414062 6.625 -26.253906 7.4375 -26.890625 C 8.257812 -27.523438 9.453125 -27.84375 11.015625 -27.84375 C 11.328125 -27.84375 11.632812 -27.773438 11.9375 -27.640625 C 12.238281 -27.515625 12.5625 -27.316406 12.90625 -27.046875 C 14.09375 -25.859375 15.15625 -24.351562 16.09375 -22.53125 C 17.03125 -20.71875 17.847656 -18.765625 18.546875 -16.671875 C 19.253906 -14.585938 19.851562 -12.53125 20.34375 -10.5 C 20.832031 -8.46875 21.222656 -6.644531 21.515625 -5.03125 L 21.984375 -3.921875 C 22.117188 -3.441406 22.1875 -3.046875 22.1875 -2.734375 C 22.1875 -1.910156 21.925781 -1.25 21.40625 -0.75 C 20.894531 -0.25 20.296875 0 19.609375 0 C 18.785156 0 18.144531 -0.25 17.6875 -0.75 C 17.226562 -1.25 16.878906 -1.867188 16.640625 -2.609375 C 16.398438 -3.347656 16.207031 -4.085938 16.0625 -4.828125 C 15.914062 -5.566406 15.765625 -6.1875 15.609375 -6.6875 C 15.453125 -7.195312 15.203125 -7.453125 14.859375 -7.453125 C 14.828125 -7.453125 14.796875 -7.453125 14.765625 -7.453125 C 14.742188 -7.453125 14.71875 -7.453125 14.6875 -7.453125 Z M 10.734375 -21.234375 C 10.472656 -20.390625 10.144531 -19.472656 9.75 -18.484375 C 9.351562 -17.492188 9.15625 -16.429688 9.15625 -15.296875 C 9.15625 -14.554688 9.222656 -13.976562 9.359375 -13.5625 C 9.503906 -13.15625 9.832031 -12.953125 10.34375 -12.953125 L 13.5 -12.953125 C 13.789062 -12.953125 13.9375 -13.070312 13.9375 -13.3125 C 13.9375 -13.414062 13.921875 -13.515625 13.890625 -13.609375 C 13.867188 -13.703125 13.847656 -13.800781 13.828125 -13.90625 C 13.429688 -15.226562 12.988281 -16.4375 12.5 -17.53125 C 12.007812 -18.625 11.421875 -19.859375 10.734375 -21.234375 Z M 10.734375 -21.234375 "/></g></g></g><g fill="#ffffff" fill-opacity="1"><g transform="translate(122.100686, 224.985792)"><g><path d="M 2.5625 -0.234375 C 2.9375 -0.234375 3.242188 -0.320312 3.484375 -0.5 C 3.734375 -0.675781 3.859375 -0.953125 3.859375 -1.328125 C 3.859375 -1.609375 3.773438 -1.84375 3.609375 -2.03125 C 3.441406 -2.21875 3.148438 -2.375 2.734375 -2.5 L 1.859375 -2.75 C 1.421875 -2.882812 1.085938 -3.109375 0.859375 -3.421875 C 0.628906 -3.742188 0.515625 -4.144531 0.515625 -4.625 C 0.515625 -4.945312 0.585938 -5.242188 0.734375 -5.515625 C 0.878906 -5.785156 1.101562 -6.003906 1.40625 -6.171875 C 1.707031 -6.335938 2.085938 -6.421875 2.546875 -6.421875 C 3.046875 -6.421875 3.453125 -6.328125 3.765625 -6.140625 C 4.078125 -5.960938 4.289062 -5.726562 4.40625 -5.4375 C 4.53125 -5.144531 4.5625 -4.832031 4.5 -4.5 L 3.4375 -4.296875 C 3.53125 -4.878906 3.484375 -5.320312 3.296875 -5.625 C 3.117188 -5.9375 2.828125 -6.09375 2.421875 -6.09375 C 2.109375 -6.09375 1.851562 -6 1.65625 -5.8125 C 1.46875 -5.632812 1.375 -5.367188 1.375 -5.015625 C 1.375 -4.734375 1.457031 -4.484375 1.625 -4.265625 C 1.789062 -4.046875 2.0625 -3.878906 2.4375 -3.765625 L 3.3125 -3.5 C 3.78125 -3.363281 4.128906 -3.15625 4.359375 -2.875 C 4.597656 -2.601562 4.71875 -2.222656 4.71875 -1.734375 C 4.71875 -1.378906 4.640625 -1.0625 4.484375 -0.78125 C 4.328125 -0.507812 4.085938 -0.296875 3.765625 -0.140625 C 3.441406 0.015625 3.039062 0.09375 2.5625 0.09375 C 2.21875 0.09375 1.890625 0.0390625 1.578125 -0.0625 C 1.273438 -0.164062 1.019531 -0.332031 0.8125 -0.5625 C 0.601562 -0.800781 0.46875 -1.125 0.40625 -1.53125 L 1.03125 -1.75 C 1.0625 -1.351562 1.148438 -1.046875 1.296875 -0.828125 C 1.441406 -0.609375 1.625 -0.453125 1.84375 -0.359375 C 2.0625 -0.273438 2.300781 -0.234375 2.5625 -0.234375 Z M 2.5625 -0.234375 "/></g></g></g><g fill="#ffffff" fill-opacity="1"><g transform="translate(129.937887, 224.985792)"><g><path d="M 0.40625 -6.078125 L 0.40625 -6.328125 L 3.203125 -6.328125 C 3.890625 -6.328125 4.398438 -6.171875 4.734375 -5.859375 C 5.078125 -5.546875 5.25 -5.128906 5.25 -4.609375 L 5.25 -4.390625 C 5.25 -3.867188 5.078125 -3.445312 4.734375 -3.125 C 4.398438 -2.8125 3.890625 -2.65625 3.203125 -2.65625 L 2.234375 -2.65625 L 2.234375 -0.78125 C 2.234375 -0.570312 2.242188 -0.445312 2.265625 -0.40625 C 2.285156 -0.363281 2.34375 -0.335938 2.4375 -0.328125 L 3.140625 -0.265625 L 3.140625 0 L 0.40625 0 L 0.40625 -0.265625 L 0.90625 -0.328125 C 1.007812 -0.335938 1.070312 -0.363281 1.09375 -0.40625 C 1.113281 -0.445312 1.125 -0.570312 1.125 -0.78125 L 1.125 -5.546875 C 1.125 -5.753906 1.113281 -5.878906 1.09375 -5.921875 C 1.070312 -5.960938 1.007812 -5.988281 0.90625 -6 Z M 3.203125 -6 L 2.234375 -6 L 2.234375 -2.984375 L 3.203125 -2.984375 C 3.472656 -2.984375 3.679688 -3.09375 3.828125 -3.3125 C 3.972656 -3.53125 4.046875 -3.828125 4.046875 -4.203125 L 4.046875 -4.796875 C 4.046875 -5.171875 3.972656 -5.460938 3.828125 -5.671875 C 3.679688 -5.890625 3.472656 -6 3.203125 -6 Z M 3.203125 -6 "/></g></g></g><g fill="#ffffff" fill-opacity="1"><g transform="translate(138.110057, 224.985792)"><g><path d="M 1.734375 -0.265625 L 1.734375 0 L -0.0625 0 L -0.0625 -0.265625 L 0.453125 -0.328125 C 0.523438 -0.335938 0.578125 -0.347656 0.609375 -0.359375 C 0.640625 -0.378906 0.664062 -0.421875 0.6875 -0.484375 C 0.707031 -0.546875 0.742188 -0.644531 0.796875 -0.78125 L 2.5625 -6.328125 L 3.375 -6.328125 L 5.15625 -0.78125 C 5.195312 -0.644531 5.226562 -0.546875 5.25 -0.484375 C 5.28125 -0.421875 5.3125 -0.378906 5.34375 -0.359375 C 5.382812 -0.347656 5.4375 -0.335938 5.5 -0.328125 L 6 -0.265625 L 6 0 L 3.4375 0 L 3.4375 -0.265625 L 3.953125 -0.328125 C 4.046875 -0.335938 4.097656 -0.363281 4.109375 -0.40625 C 4.117188 -0.445312 4.085938 -0.570312 4.015625 -0.78125 L 3.671875 -1.9375 L 1.515625 -1.9375 L 1.15625 -0.78125 C 1.09375 -0.570312 1.0625 -0.445312 1.0625 -0.40625 C 1.070312 -0.363281 1.128906 -0.335938 1.234375 -0.328125 Z M 1.625 -2.265625 L 3.5625 -2.265625 L 2.609375 -5.359375 Z M 1.625 -2.265625 "/></g></g></g><g fill="#ffffff" fill-opacity="1"><g transform="translate(146.663728, 224.985792)"><g><path d="M 4.328125 -6.078125 L 4.328125 -6.328125 L 6.140625 -6.328125 L 6.140625 -6.078125 L 5.625 -6 C 5.519531 -5.988281 5.457031 -5.960938 5.4375 -5.921875 C 5.425781 -5.878906 5.421875 -5.753906 5.421875 -5.546875 L 5.421875 0 L 4.90625 0 L 1.484375 -5.515625 L 1.484375 -0.78125 C 1.484375 -0.570312 1.492188 -0.445312 1.515625 -0.40625 C 1.535156 -0.363281 1.59375 -0.335938 1.6875 -0.328125 L 2.203125 -0.265625 L 2.203125 0 L 0.40625 0 L 0.40625 -0.265625 L 0.90625 -0.328125 C 1.007812 -0.335938 1.070312 -0.363281 1.09375 -0.40625 C 1.113281 -0.445312 1.125 -0.570312 1.125 -0.78125 L 1.125 -5.546875 C 1.125 -5.753906 1.113281 -5.878906 1.09375 -5.921875 C 1.070312 -5.960938 1.007812 -5.988281 0.90625 -6 L 0.40625 -6.078125 L 0.40625 -6.328125 L 2.265625 -6.328125 L 5.046875 -1.875 L 5.046875 -5.546875 C 5.046875 -5.753906 5.035156 -5.878906 5.015625 -5.921875 C 4.992188 -5.960938 4.9375 -5.988281 4.84375 -6 Z M 4.328125 -6.078125 "/></g></g></g><g fill="#ffffff" fill-opacity="1"><g transform="translate(155.664025, 224.985792)"><g><path d="M 2.5625 -0.234375 C 2.9375 -0.234375 3.242188 -0.320312 3.484375 -0.5 C 3.734375 -0.675781 3.859375 -0.953125 3.859375 -1.328125 C 3.859375 -1.609375 3.773438 -1.84375 3.609375 -2.03125 C 3.441406 -2.21875 3.148438 -2.375 2.734375 -2.5 L 1.859375 -2.75 C 1.421875 -2.882812 1.085938 -3.109375 0.859375 -3.421875 C 0.628906 -3.742188 0.515625 -4.144531 0.515625 -4.625 C 0.515625 -4.945312 0.585938 -5.242188 0.734375 -5.515625 C 0.878906 -5.785156 1.101562 -6.003906 1.40625 -6.171875 C 1.707031 -6.335938 2.085938 -6.421875 2.546875 -6.421875 C 3.046875 -6.421875 3.453125 -6.328125 3.765625 -6.140625 C 4.078125 -5.960938 4.289062 -5.726562 4.40625 -5.4375 C 4.53125 -5.144531 4.5625 -4.832031 4.5 -4.5 L 3.4375 -4.296875 C 3.53125 -4.878906 3.484375 -5.320312 3.296875 -5.625 C 3.117188 -5.9375 2.828125 -6.09375 2.421875 -6.09375 C 2.109375 -6.09375 1.851562 -6 1.65625 -5.8125 C 1.46875 -5.632812 1.375 -5.367188 1.375 -5.015625 C 1.375 -4.734375 1.457031 -4.484375 1.625 -4.265625 C 1.789062 -4.046875 2.0625 -3.878906 2.4375 -3.765625 L 3.3125 -3.5 C 3.78125 -3.363281 4.128906 -3.15625 4.359375 -2.875 C 4.597656 -2.601562 4.71875 -2.222656 4.71875 -1.734375 C 4.71875 -1.378906 4.640625 -1.0625 4.484375 -0.78125 C 4.328125 -0.507812 4.085938 -0.296875 3.765625 -0.140625 C 3.441406 0.015625 3.039062 0.09375 2.5625 0.09375 C 2.21875 0.09375 1.890625 0.0390625 1.578125 -0.0625 C 1.273438 -0.164062 1.019531 -0.332031 0.8125 -0.5625 C 0.601562 -0.800781 0.46875 -1.125 0.40625 -1.53125 L 1.03125 -1.75 C 1.0625 -1.351562 1.148438 -1.046875 1.296875 -0.828125 C 1.441406 -0.609375 1.625 -0.453125 1.84375 -0.359375 C 2.0625 -0.273438 2.300781 -0.234375 2.5625 -0.234375 Z M 2.5625 -0.234375 "/></g></g></g><g fill="#ffffff" fill-opacity="1"><g transform="translate(163.501224, 224.985792)"><g><path d="M 0.40625 -6.078125 L 0.40625 -6.328125 L 2.953125 -6.328125 L 2.953125 -6.078125 L 2.4375 -6 C 2.34375 -5.988281 2.285156 -5.960938 2.265625 -5.921875 C 2.242188 -5.878906 2.234375 -5.753906 2.234375 -5.546875 L 2.234375 -3.046875 L 4.4375 -5.546875 C 4.625 -5.753906 4.71875 -5.878906 4.71875 -5.921875 C 4.726562 -5.960938 4.6875 -5.988281 4.59375 -6 L 4.078125 -6.078125 L 4.078125 -6.328125 L 5.96875 -6.328125 L 5.96875 -6.078125 L 5.453125 -6 C 5.390625 -6 5.335938 -5.988281 5.296875 -5.96875 C 5.265625 -5.945312 5.21875 -5.90625 5.15625 -5.84375 C 5.101562 -5.78125 5.015625 -5.679688 4.890625 -5.546875 L 3.59375 -4.078125 L 5.203125 -0.78125 C 5.273438 -0.65625 5.328125 -0.5625 5.359375 -0.5 C 5.398438 -0.4375 5.441406 -0.394531 5.484375 -0.375 C 5.535156 -0.351562 5.609375 -0.335938 5.703125 -0.328125 L 6.125 -0.265625 L 6.125 0 L 4.34375 0 L 2.84375 -3.21875 L 2.234375 -2.53125 L 2.234375 -0.78125 C 2.234375 -0.570312 2.242188 -0.445312 2.265625 -0.40625 C 2.285156 -0.363281 2.34375 -0.335938 2.4375 -0.328125 L 2.953125 -0.265625 L 2.953125 0 L 0.40625 0 L 0.40625 -0.265625 L 0.90625 -0.328125 C 1.007812 -0.335938 1.070312 -0.363281 1.09375 -0.40625 C 1.113281 -0.445312 1.125 -0.570312 1.125 -0.78125 L 1.125 -5.546875 C 1.125 -5.753906 1.113281 -5.878906 1.09375 -5.921875 C 1.070312 -5.960938 1.007812 -5.988281 0.90625 -6 Z M 0.40625 -6.078125 "/></g></g></g><g fill="#ffffff" fill-opacity="1"><g transform="translate(172.213073, 224.985792)"><g/></g></g><g fill="#ffffff" fill-opacity="1"><g transform="translate(176.905265, 224.985792)"><g><path d="M 3.359375 -2.609375 L 3.359375 -2.875 L 6 -2.875 L 6 -2.609375 L 5.5 -2.546875 C 5.394531 -2.535156 5.332031 -2.507812 5.3125 -2.46875 C 5.300781 -2.425781 5.296875 -2.300781 5.296875 -2.09375 L 5.296875 0 L 5.03125 0 C 4.863281 -0.175781 4.679688 -0.320312 4.484375 -0.4375 C 4.316406 -0.289062 4.113281 -0.164062 3.875 -0.0625 C 3.644531 0.0390625 3.367188 0.09375 3.046875 0.09375 C 2.535156 0.09375 2.097656 -0.0351562 1.734375 -0.296875 C 1.367188 -0.554688 1.085938 -0.910156 0.890625 -1.359375 C 0.703125 -1.816406 0.609375 -2.335938 0.609375 -2.921875 L 0.609375 -3.515625 C 0.609375 -4.078125 0.703125 -4.578125 0.890625 -5.015625 C 1.085938 -5.453125 1.375 -5.796875 1.75 -6.046875 C 2.125 -6.296875 2.582031 -6.421875 3.125 -6.421875 C 3.632812 -6.421875 4.050781 -6.328125 4.375 -6.140625 C 4.707031 -5.960938 4.953125 -5.722656 5.109375 -5.421875 C 5.265625 -5.117188 5.328125 -4.789062 5.296875 -4.4375 L 4.203125 -4.171875 C 4.265625 -4.796875 4.191406 -5.269531 3.984375 -5.59375 C 3.785156 -5.925781 3.484375 -6.09375 3.078125 -6.09375 C 2.234375 -6.09375 1.8125 -5.34375 1.8125 -3.84375 L 1.8125 -2.5 C 1.8125 -0.988281 2.257812 -0.234375 3.15625 -0.234375 C 3.351562 -0.234375 3.550781 -0.269531 3.75 -0.34375 C 3.957031 -0.425781 4.128906 -0.546875 4.265625 -0.703125 L 4.265625 -2.09375 C 4.265625 -2.300781 4.253906 -2.425781 4.234375 -2.46875 C 4.210938 -2.507812 4.15625 -2.535156 4.0625 -2.546875 Z M 3.359375 -2.609375 "/></g></g></g><g fill="#ffffff" fill-opacity="1"><g transform="translate(185.682242, 224.985792)"><g><path d="M 0.40625 -6.078125 L 0.40625 -6.328125 L 3.21875 -6.328125 C 3.863281 -6.328125 4.363281 -6.179688 4.71875 -5.890625 C 5.070312 -5.597656 5.25 -5.207031 5.25 -4.71875 L 5.25 -4.5 C 5.25 -4.132812 5.144531 -3.820312 4.9375 -3.5625 C 4.738281 -3.300781 4.445312 -3.113281 4.0625 -3 L 5.21875 -0.78125 C 5.300781 -0.644531 5.359375 -0.546875 5.390625 -0.484375 C 5.429688 -0.421875 5.46875 -0.378906 5.5 -0.359375 C 5.53125 -0.347656 5.578125 -0.335938 5.640625 -0.328125 L 6.0625 -0.265625 L 6.0625 0 L 4.328125 0 L 2.921875 -2.890625 L 2.234375 -2.890625 L 2.234375 -0.78125 C 2.234375 -0.570312 2.242188 -0.445312 2.265625 -0.40625 C 2.285156 -0.363281 2.34375 -0.335938 2.4375 -0.328125 L 2.953125 -0.265625 L 2.953125 0 L 0.40625 0 L 0.40625 -0.265625 L 0.90625 -0.328125 C 1.007812 -0.335938 1.070312 -0.363281 1.09375 -0.40625 C 1.113281 -0.445312 1.125 -0.570312 1.125 -0.78125 L 1.125 -5.546875 C 1.125 -5.753906 1.113281 -5.878906 1.09375 -5.921875 C 1.070312 -5.960938 1.007812 -5.988281 0.90625 -6 Z M 3.21875 -6 L 2.234375 -6 L 2.234375 -3.21875 L 3.21875 -3.21875 C 3.488281 -3.21875 3.695312 -3.300781 3.84375 -3.46875 C 3.988281 -3.632812 4.0625 -3.953125 4.0625 -4.421875 L 4.0625 -4.8125 C 4.0625 -5.269531 3.988281 -5.582031 3.84375 -5.75 C 3.695312 -5.914062 3.488281 -6 3.21875 -6 Z M 3.21875 -6 "/></g></g></g><g fill="#ffffff" fill-opacity="1"><g transform="translate(194.34757, 224.985792)"><g><path d="M 1.734375 -0.265625 L 1.734375 0 L -0.0625 0 L -0.0625 -0.265625 L 0.453125 -0.328125 C 0.523438 -0.335938 0.578125 -0.347656 0.609375 -0.359375 C 0.640625 -0.378906 0.664062 -0.421875 0.6875 -0.484375 C 0.707031 -0.546875 0.742188 -0.644531 0.796875 -0.78125 L 2.5625 -6.328125 L 3.375 -6.328125 L 5.15625 -0.78125 C 5.195312 -0.644531 5.226562 -0.546875 5.25 -0.484375 C 5.28125 -0.421875 5.3125 -0.378906 5.34375 -0.359375 C 5.382812 -0.347656 5.4375 -0.335938 5.5 -0.328125 L 6 -0.265625 L 6 0 L 3.4375 0 L 3.4375 -0.265625 L 3.953125 -0.328125 C 4.046875 -0.335938 4.097656 -0.363281 4.109375 -0.40625 C 4.117188 -0.445312 4.085938 -0.570312 4.015625 -0.78125 L 3.671875 -1.9375 L 1.515625 -1.9375 L 1.15625 -0.78125 C 1.09375 -0.570312 1.0625 -0.445312 1.0625 -0.40625 C 1.070312 -0.363281 1.128906 -0.335938 1.234375 -0.328125 Z M 1.625 -2.265625 L 3.5625 -2.265625 L 2.609375 -5.359375 Z M 1.625 -2.265625 "/></g></g></g><g fill="#ffffff" fill-opacity="1"><g transform="translate(202.901239, 224.985792)"><g><path d="M 7.703125 -0.265625 L 7.703125 0 L 5.15625 0 L 5.15625 -0.265625 L 5.671875 -0.328125 C 5.765625 -0.335938 5.820312 -0.363281 5.84375 -0.40625 C 5.863281 -0.445312 5.875 -0.570312 5.875 -0.78125 L 5.875 -5.5625 L 4.171875 -0.75 L 3.171875 -0.75 L 1.484375 -5.546875 L 1.484375 -0.78125 C 1.484375 -0.570312 1.492188 -0.445312 1.515625 -0.40625 C 1.535156 -0.363281 1.59375 -0.335938 1.6875 -0.328125 L 2.203125 -0.265625 L 2.203125 0 L 0.40625 0 L 0.40625 -0.265625 L 0.90625 -0.328125 C 1.007812 -0.335938 1.070312 -0.363281 1.09375 -0.40625 C 1.113281 -0.445312 1.125 -0.570312 1.125 -0.78125 L 1.125 -5.546875 C 1.125 -5.753906 1.113281 -5.878906 1.09375 -5.921875 C 1.070312 -5.960938 1.007812 -5.988281 0.90625 -6 L 0.40625 -6.078125 L 0.40625 -6.328125 L 2.359375 -6.328125 L 4.0625 -1.484375 L 5.796875 -6.328125 L 7.703125 -6.328125 L 7.703125 -6.078125 L 7.203125 -6 C 7.097656 -5.988281 7.035156 -5.960938 7.015625 -5.921875 C 7.003906 -5.878906 7 -5.753906 7 -5.546875 L 7 -0.78125 C 7 -0.570312 7.003906 -0.445312 7.015625 -0.40625 C 7.035156 -0.363281 7.097656 -0.335938 7.203125 -0.328125 Z M 7.703125 -0.265625 "/></g></g></g><g fill="#ffffff" fill-opacity="1"><g transform="translate(213.613606, 224.985792)"><g><path d="M 7.703125 -0.265625 L 7.703125 0 L 5.15625 0 L 5.15625 -0.265625 L 5.671875 -0.328125 C 5.765625 -0.335938 5.820312 -0.363281 5.84375 -0.40625 C 5.863281 -0.445312 5.875 -0.570312 5.875 -0.78125 L 5.875 -5.5625 L 4.171875 -0.75 L 3.171875 -0.75 L 1.484375 -5.546875 L 1.484375 -0.78125 C 1.484375 -0.570312 1.492188 -0.445312 1.515625 -0.40625 C 1.535156 -0.363281 1.59375 -0.335938 1.6875 -0.328125 L 2.203125 -0.265625 L 2.203125 0 L 0.40625 0 L 0.40625 -0.265625 L 0.90625 -0.328125 C 1.007812 -0.335938 1.070312 -0.363281 1.09375 -0.40625 C 1.113281 -0.445312 1.125 -0.570312 1.125 -0.78125 L 1.125 -5.546875 C 1.125 -5.753906 1.113281 -5.878906 1.09375 -5.921875 C 1.070312 -5.960938 1.007812 -5.988281 0.90625 -6 L 0.40625 -6.078125 L 0.40625 -6.328125 L 2.359375 -6.328125 L 4.0625 -1.484375 L 5.796875 -6.328125 L 7.703125 -6.328125 L 7.703125 -6.078125 L 7.203125 -6 C 7.097656 -5.988281 7.035156 -5.960938 7.015625 -5.921875 C 7.003906 -5.878906 7 -5.753906 7 -5.546875 L 7 -0.78125 C 7 -0.570312 7.003906 -0.445312 7.015625 -0.40625 C 7.035156 -0.363281 7.097656 -0.335938 7.203125 -0.328125 Z M 7.703125 -0.265625 "/></g></g></g><g fill="#ffffff" fill-opacity="1"><g transform="translate(224.325979, 224.985792)"><g><path d="M 1.734375 -0.265625 L 1.734375 0 L -0.0625 0 L -0.0625 -0.265625 L 0.453125 -0.328125 C 0.523438 -0.335938 0.578125 -0.347656 0.609375 -0.359375 C 0.640625 -0.378906 0.664062 -0.421875 0.6875 -0.484375 C 0.707031 -0.546875 0.742188 -0.644531 0.796875 -0.78125 L 2.5625 -6.328125 L 3.375 -6.328125 L 5.15625 -0.78125 C 5.195312 -0.644531 5.226562 -0.546875 5.25 -0.484375 C 5.28125 -0.421875 5.3125 -0.378906 5.34375 -0.359375 C 5.382812 -0.347656 5.4375 -0.335938 5.5 -0.328125 L 6 -0.265625 L 6 0 L 3.4375 0 L 3.4375 -0.265625 L 3.953125 -0.328125 C 4.046875 -0.335938 4.097656 -0.363281 4.109375 -0.40625 C 4.117188 -0.445312 4.085938 -0.570312 4.015625 -0.78125 L 3.671875 -1.9375 L 1.515625 -1.9375 L 1.15625 -0.78125 C 1.09375 -0.570312 1.0625 -0.445312 1.0625 -0.40625 C 1.070312 -0.363281 1.128906 -0.335938 1.234375 -0.328125 Z M 1.625 -2.265625 L 3.5625 -2.265625 L 2.609375 -5.359375 Z M 1.625 -2.265625 "/></g></g></g><g fill="#ffffff" fill-opacity="1"><g transform="translate(232.879647, 224.985792)"><g><path d="M 0.109375 -6.328125 L 5.234375 -6.328125 L 5.234375 -4.734375 L 4.96875 -4.734375 L 4.671875 -5.765625 C 4.648438 -5.847656 4.628906 -5.90625 4.609375 -5.9375 C 4.585938 -5.96875 4.546875 -5.984375 4.484375 -5.984375 C 4.421875 -5.992188 4.316406 -6 4.171875 -6 L 3.234375 -6 L 3.234375 -0.78125 C 3.234375 -0.570312 3.238281 -0.445312 3.25 -0.40625 C 3.269531 -0.363281 3.332031 -0.335938 3.4375 -0.328125 L 3.953125 -0.265625 L 3.953125 0 L 1.390625 0 L 1.390625 -0.265625 L 1.90625 -0.328125 C 2.007812 -0.335938 2.066406 -0.363281 2.078125 -0.40625 C 2.097656 -0.445312 2.109375 -0.570312 2.109375 -0.78125 L 2.109375 -6 L 1.171875 -6 C 1.023438 -6 0.921875 -5.992188 0.859375 -5.984375 C 0.796875 -5.984375 0.753906 -5.96875 0.734375 -5.9375 C 0.710938 -5.90625 0.691406 -5.847656 0.671875 -5.765625 L 0.375 -4.734375 L 0.109375 -4.734375 Z M 0.109375 -6.328125 "/></g></g></g><g fill="#ffffff" fill-opacity="1"><g transform="translate(240.828507, 224.985792)"><g><path d="M 0.40625 -6.078125 L 0.40625 -6.328125 L 2.953125 -6.328125 L 2.953125 -6.078125 L 2.4375 -6 C 2.34375 -5.988281 2.285156 -5.960938 2.265625 -5.921875 C 2.242188 -5.878906 2.234375 -5.753906 2.234375 -5.546875 L 2.234375 -0.78125 C 2.234375 -0.570312 2.242188 -0.445312 2.265625 -0.40625 C 2.285156 -0.363281 2.34375 -0.335938 2.4375 -0.328125 L 2.953125 -0.265625 L 2.953125 0 L 0.40625 0 L 0.40625 -0.265625 L 0.90625 -0.328125 C 1.007812 -0.335938 1.070312 -0.363281 1.09375 -0.40625 C 1.113281 -0.445312 1.125 -0.570312 1.125 -0.78125 L 1.125 -5.546875 C 1.125 -5.753906 1.113281 -5.878906 1.09375 -5.921875 C 1.070312 -5.960938 1.007812 -5.988281 0.90625 -6 Z M 0.40625 -6.078125 "/></g></g></g><g fill="#ffffff" fill-opacity="1"><g transform="translate(246.786152, 224.985792)"><g><path d="M 0.40625 -6.078125 L 0.40625 -6.328125 L 2.953125 -6.328125 L 2.953125 -6.078125 L 2.4375 -6 C 2.34375 -5.988281 2.285156 -5.960938 2.265625 -5.921875 C 2.242188 -5.878906 2.234375 -5.753906 2.234375 -5.546875 L 2.234375 -3.046875 L 4.4375 -5.546875 C 4.625 -5.753906 4.71875 -5.878906 4.71875 -5.921875 C 4.726562 -5.960938 4.6875 -5.988281 4.59375 -6 L 4.078125 -6.078125 L 4.078125 -6.328125 L 5.96875 -6.328125 L 5.96875 -6.078125 L 5.453125 -6 C 5.390625 -6 5.335938 -5.988281 5.296875 -5.96875 C 5.265625 -5.945312 5.21875 -5.90625 5.15625 -5.84375 C 5.101562 -5.78125 5.015625 -5.679688 4.890625 -5.546875 L 3.59375 -4.078125 L 5.203125 -0.78125 C 5.273438 -0.65625 5.328125 -0.5625 5.359375 -0.5 C 5.398438 -0.4375 5.441406 -0.394531 5.484375 -0.375 C 5.535156 -0.351562 5.609375 -0.335938 5.703125 -0.328125 L 6.125 -0.265625 L 6.125 0 L 4.34375 0 L 2.84375 -3.21875 L 2.234375 -2.53125 L 2.234375 -0.78125 C 2.234375 -0.570312 2.242188 -0.445312 2.265625 -0.40625 C 2.285156 -0.363281 2.34375 -0.335938 2.4375 -0.328125 L 2.953125 -0.265625 L 2.953125 0 L 0.40625 0 L 0.40625 -0.265625 L 0.90625 -0.328125 C 1.007812 -0.335938 1.070312 -0.363281 1.09375 -0.40625 C 1.113281 -0.445312 1.125 -0.570312 1.125 -0.78125 L 1.125 -5.546875 C 1.125 -5.753906 1.113281 -5.878906 1.09375 -5.921875 C 1.070312 -5.960938 1.007812 -5.988281 0.90625 -6 Z M 0.40625 -6.078125 "/></g></g></g><path stroke-linecap="round" transform="matrix(0.75, 0, 0, 0.75, 165.866638, 124.137486)" fill="none" stroke-linejoin="miter" d="M 8.000733 7.998977 L 49.688235 7.998977 " stroke="#ff3131" stroke-width="16" stroke-opacity="1" stroke-miterlimit="4"/><g fill="#ffffff" fill-opacity="1"><g transform="translate(48.483356, 185.33826)"><g><path d="M 4.09375 -2.0625 L 4.359375 -2.0625 L 4.359375 0 L 0.453125 0 L 0.453125 -0.65625 C 0.453125 -1.039062 0.507812 -1.363281 0.625 -1.625 C 0.75 -1.882812 0.914062 -2.109375 1.125 -2.296875 C 1.332031 -2.492188 1.550781 -2.671875 1.78125 -2.828125 C 2.007812 -2.972656 2.238281 -3.128906 2.46875 -3.296875 C 2.695312 -3.460938 2.882812 -3.664062 3.03125 -3.90625 C 3.1875 -4.144531 3.265625 -4.453125 3.265625 -4.828125 C 3.265625 -5.671875 2.976562 -6.09375 2.40625 -6.09375 C 2.0625 -6.09375 1.816406 -5.941406 1.671875 -5.640625 C 1.535156 -5.335938 1.5 -4.90625 1.5625 -4.34375 L 0.453125 -4.5 C 0.390625 -4.832031 0.414062 -5.144531 0.53125 -5.4375 C 0.65625 -5.726562 0.875 -5.960938 1.1875 -6.140625 C 1.507812 -6.328125 1.921875 -6.421875 2.421875 -6.421875 C 2.910156 -6.421875 3.300781 -6.34375 3.59375 -6.1875 C 3.894531 -6.03125 4.113281 -5.820312 4.25 -5.5625 C 4.394531 -5.300781 4.46875 -5.023438 4.46875 -4.734375 C 4.46875 -4.367188 4.390625 -4.066406 4.234375 -3.828125 C 4.085938 -3.585938 3.894531 -3.390625 3.65625 -3.234375 C 3.414062 -3.085938 3.15625 -2.957031 2.875 -2.84375 C 2.59375 -2.738281 2.320312 -2.625 2.0625 -2.5 C 1.75 -2.363281 1.476562 -2.175781 1.25 -1.9375 C 1.03125 -1.695312 0.894531 -1.375 0.84375 -0.96875 L 3.390625 -0.96875 C 3.535156 -0.96875 3.640625 -0.972656 3.703125 -0.984375 C 3.765625 -0.992188 3.804688 -1.015625 3.828125 -1.046875 C 3.847656 -1.078125 3.867188 -1.128906 3.890625 -1.203125 Z M 4.09375 -2.0625 "/></g></g></g><g fill="#ffffff" fill-opacity="1"><g transform="translate(56.050717, 185.33826)"><g><path d="M 5.15625 -3.46875 L 5.15625 -2.875 C 5.15625 -2.28125 5.066406 -1.757812 4.890625 -1.3125 C 4.710938 -0.863281 4.453125 -0.515625 4.109375 -0.265625 C 3.765625 -0.0234375 3.351562 0.09375 2.875 0.09375 C 2.382812 0.09375 1.96875 -0.0234375 1.625 -0.265625 C 1.289062 -0.515625 1.035156 -0.863281 0.859375 -1.3125 C 0.679688 -1.757812 0.59375 -2.28125 0.59375 -2.875 L 0.59375 -3.46875 C 0.59375 -4.0625 0.679688 -4.578125 0.859375 -5.015625 C 1.035156 -5.460938 1.289062 -5.804688 1.625 -6.046875 C 1.96875 -6.296875 2.382812 -6.421875 2.875 -6.421875 C 3.351562 -6.421875 3.765625 -6.296875 4.109375 -6.046875 C 4.453125 -5.804688 4.710938 -5.460938 4.890625 -5.015625 C 5.066406 -4.578125 5.15625 -4.0625 5.15625 -3.46875 Z M 3.90625 -4.109375 C 3.90625 -4.816406 3.816406 -5.320312 3.640625 -5.625 C 3.460938 -5.9375 3.207031 -6.09375 2.875 -6.09375 C 2.53125 -6.09375 2.269531 -5.9375 2.09375 -5.625 C 1.914062 -5.320312 1.828125 -4.816406 1.828125 -4.109375 L 1.828125 -2.21875 C 1.828125 -1.507812 1.914062 -1 2.09375 -0.6875 C 2.269531 -0.382812 2.53125 -0.234375 2.875 -0.234375 C 3.207031 -0.234375 3.460938 -0.382812 3.640625 -0.6875 C 3.816406 -1 3.90625 -1.507812 3.90625 -2.21875 Z M 3.90625 -4.109375 "/></g></g></g><path stroke-linecap="butt" transform="matrix(0.75, 0, 0, 0.75, 65.835103, 181.963246)" fill="none" stroke-linejoin="miter" d="M 0.00111216 0.502131 L 8.855279 0.502131 " stroke="#ffffff" stroke-width="1" stroke-opacity="1" stroke-miterlimit="4"/><g fill="#ffffff" fill-opacity="1"><g transform="translate(313.671108, 185.33826)"><g><path d="M 4.09375 -2.0625 L 4.359375 -2.0625 L 4.359375 0 L 0.453125 0 L 0.453125 -0.65625 C 0.453125 -1.039062 0.507812 -1.363281 0.625 -1.625 C 0.75 -1.882812 0.914062 -2.109375 1.125 -2.296875 C 1.332031 -2.492188 1.550781 -2.671875 1.78125 -2.828125 C 2.007812 -2.972656 2.238281 -3.128906 2.46875 -3.296875 C 2.695312 -3.460938 2.882812 -3.664062 3.03125 -3.90625 C 3.1875 -4.144531 3.265625 -4.453125 3.265625 -4.828125 C 3.265625 -5.671875 2.976562 -6.09375 2.40625 -6.09375 C 2.0625 -6.09375 1.816406 -5.941406 1.671875 -5.640625 C 1.535156 -5.335938 1.5 -4.90625 1.5625 -4.34375 L 0.453125 -4.5 C 0.390625 -4.832031 0.414062 -5.144531 0.53125 -5.4375 C 0.65625 -5.726562 0.875 -5.960938 1.1875 -6.140625 C 1.507812 -6.328125 1.921875 -6.421875 2.421875 -6.421875 C 2.910156 -6.421875 3.300781 -6.34375 3.59375 -6.1875 C 3.894531 -6.03125 4.113281 -5.820312 4.25 -5.5625 C 4.394531 -5.300781 4.46875 -5.023438 4.46875 -4.734375 C 4.46875 -4.367188 4.390625 -4.066406 4.234375 -3.828125 C 4.085938 -3.585938 3.894531 -3.390625 3.65625 -3.234375 C 3.414062 -3.085938 3.15625 -2.957031 2.875 -2.84375 C 2.59375 -2.738281 2.320312 -2.625 2.0625 -2.5 C 1.75 -2.363281 1.476562 -2.175781 1.25 -1.9375 C 1.03125 -1.695312 0.894531 -1.375 0.84375 -0.96875 L 3.390625 -0.96875 C 3.535156 -0.96875 3.640625 -0.972656 3.703125 -0.984375 C 3.765625 -0.992188 3.804688 -1.015625 3.828125 -1.046875 C 3.847656 -1.078125 3.867188 -1.128906 3.890625 -1.203125 Z M 4.09375 -2.0625 "/></g></g></g><g fill="#ffffff" fill-opacity="1"><g transform="translate(321.238469, 185.33826)"><g><path d="M 3.796875 -7.140625 L 4.0625 -7.140625 L 4.0625 -5.359375 L 1.09375 -5.359375 L 0.984375 -3.5625 C 1.148438 -3.6875 1.34375 -3.78125 1.5625 -3.84375 C 1.789062 -3.90625 2.023438 -3.9375 2.265625 -3.9375 C 2.691406 -3.9375 3.0625 -3.851562 3.375 -3.6875 C 3.6875 -3.53125 3.929688 -3.304688 4.109375 -3.015625 C 4.285156 -2.722656 4.375 -2.375 4.375 -1.96875 C 4.375 -1.601562 4.300781 -1.265625 4.15625 -0.953125 C 4.007812 -0.640625 3.773438 -0.382812 3.453125 -0.1875 C 3.140625 0 2.722656 0.09375 2.203125 0.09375 C 1.722656 0.09375 1.320312 -0.0195312 1 -0.25 C 0.675781 -0.476562 0.46875 -0.851562 0.375 -1.375 L 1.046875 -1.5625 C 1.109375 -1.082031 1.226562 -0.738281 1.40625 -0.53125 C 1.59375 -0.332031 1.828125 -0.234375 2.109375 -0.234375 C 2.472656 -0.234375 2.738281 -0.367188 2.90625 -0.640625 C 3.070312 -0.910156 3.15625 -1.351562 3.15625 -1.96875 C 3.15625 -2.289062 3.125 -2.570312 3.0625 -2.8125 C 3.007812 -3.0625 2.90625 -3.253906 2.75 -3.390625 C 2.59375 -3.535156 2.375 -3.609375 2.09375 -3.609375 C 1.90625 -3.609375 1.707031 -3.570312 1.5 -3.5 C 1.289062 -3.425781 1.078125 -3.289062 0.859375 -3.09375 L 0.640625 -3.234375 L 0.8125 -6.328125 L 3.1875 -6.328125 C 3.40625 -6.328125 3.535156 -6.335938 3.578125 -6.359375 C 3.628906 -6.390625 3.664062 -6.460938 3.6875 -6.578125 Z M 3.796875 -7.140625 "/></g></g></g><path stroke-linecap="butt" transform="matrix(0.75, 0, 0, 0.75, 302.976635, 181.963246)" fill="none" stroke-linejoin="miter" d="M -0.0000966727 0.502131 L 8.854071 0.502131 " stroke="#ffffff" stroke-width="1" stroke-opacity="1" stroke-miterlimit="4"/></svg>