<svg xmlns="http://www.w3.org/2000/svg" xmlns:xlink="http://www.w3.org/1999/xlink" width="2000" zoomAndPan="magnify" viewBox="0 0 1500 562.499983" height="750" preserveAspectRatio="xMidYMid meet" version="1.0"><defs><g/><clipPath id="8c3af2a06d"><path d="M 0.667969 0 L 1499.332031 0 L 1499.332031 562 L 0.667969 562 Z M 0.667969 0 " clip-rule="nonzero"/></clipPath><clipPath id="ad92d1554e"><path d="M 0.667969 0 L 1499.332031 0 L 1499.332031 562 L 0.667969 562 Z M 0.667969 0 " clip-rule="nonzero"/></clipPath><clipPath id="61eacdac29"><rect x="0" width="1500" y="0" height="562"/></clipPath></defs><g clip-path="url(#8c3af2a06d)"><path fill="#ffffff" d="M 0.667969 0 L 1499.332031 0 L 1499.332031 562 L 0.667969 562 Z M 0.667969 0 " fill-opacity="1" fill-rule="nonzero"/><path fill="#ffffff" d="M 0.667969 0 L 1499.332031 0 L 1499.332031 562 L 0.667969 562 Z M 0.667969 0 " fill-opacity="1" fill-rule="nonzero"/><g transform="matrix(1, 0, 0, 1, 0.000000000000000222, 0)"><g clip-path="url(#61eacdac29)"><g clip-path="url(#ad92d1554e)"><path fill="#0b00cb" d="M 0.667969 0 L 1500.066406 0 L 1500.066406 562 L 0.667969 562 Z M 0.667969 0 " fill-opacity="1" fill-rule="nonzero"/></g></g></g></g><g fill="#ffffff" fill-opacity="1"><g transform="translate(120.079474, 370.920267)"><g><path d="M 85.609375 2.875 C 74.578125 2.875 64.503906 1.035156 55.390625 -2.640625 C 46.273438 -6.316406 38.519531 -11.789062 32.125 -19.0625 C 25.738281 -26.332031 20.785156 -35.363281 17.265625 -46.15625 C 13.742188 -56.945312 11.984375 -69.457031 11.984375 -83.6875 C 11.984375 -97.914062 13.742188 -110.421875 17.265625 -121.203125 C 20.785156 -131.992188 25.738281 -141.023438 32.125 -148.296875 C 38.519531 -155.578125 46.273438 -161.054688 55.390625 -164.734375 C 64.503906 -168.410156 74.578125 -170.25 85.609375 -170.25 C 96.628906 -170.25 106.695312 -168.410156 115.8125 -164.734375 C 124.925781 -161.054688 132.679688 -155.578125 139.078125 -148.296875 C 145.472656 -141.023438 150.425781 -131.992188 153.9375 -121.203125 C 157.457031 -110.421875 159.21875 -97.914062 159.21875 -83.6875 C 159.21875 -69.457031 157.457031 -56.945312 153.9375 -46.15625 C 150.425781 -35.363281 145.472656 -26.332031 139.078125 -19.0625 C 132.679688 -11.789062 124.925781 -6.316406 115.8125 -2.640625 C 106.695312 1.035156 96.628906 2.875 85.609375 2.875 Z M 85.609375 -29.5 C 96.628906 -29.5 105.21875 -33.09375 111.375 -40.28125 C 117.53125 -47.476562 120.609375 -57.789062 120.609375 -71.21875 L 120.609375 -96.15625 C 120.609375 -109.582031 117.53125 -119.890625 111.375 -127.078125 C 105.21875 -134.273438 96.628906 -137.875 85.609375 -137.875 C 74.578125 -137.875 65.984375 -134.273438 59.828125 -127.078125 C 53.671875 -119.890625 50.59375 -109.582031 50.59375 -96.15625 L 50.59375 -71.21875 C 50.59375 -57.789062 53.671875 -47.476562 59.828125 -40.28125 C 65.984375 -33.09375 74.578125 -29.5 85.609375 -29.5 Z M 85.609375 -29.5 "/></g></g></g><g fill="#ffffff" fill-opacity="1"><g transform="translate(291.286985, 370.920267)"><g><path d="M 59.21875 2.875 C 47.070312 2.875 36.84375 0.914062 28.53125 -3 C 20.21875 -6.914062 12.785156 -12.46875 6.234375 -19.65625 L 27.09375 -40.765625 C 31.570312 -35.804688 36.523438 -31.890625 41.953125 -29.015625 C 47.390625 -26.140625 53.546875 -24.703125 60.421875 -24.703125 C 67.453125 -24.703125 72.328125 -25.78125 75.046875 -27.9375 C 77.765625 -30.09375 79.125 -33.007812 79.125 -36.6875 C 79.125 -42.601562 74.890625 -46.117188 66.421875 -47.234375 L 52.75 -48.921875 C 24.457031 -52.429688 10.3125 -65.378906 10.3125 -87.765625 C 10.3125 -93.835938 11.46875 -99.390625 13.78125 -104.421875 C 16.101562 -109.460938 19.378906 -113.78125 23.609375 -117.375 C 27.847656 -120.96875 32.960938 -123.765625 38.953125 -125.765625 C 44.953125 -127.765625 51.707031 -128.765625 59.21875 -128.765625 C 65.78125 -128.765625 71.578125 -128.320312 76.609375 -127.4375 C 81.640625 -126.5625 86.113281 -125.285156 90.03125 -123.609375 C 93.945312 -121.929688 97.546875 -119.851562 100.828125 -117.375 C 104.109375 -114.894531 107.347656 -112.132812 110.546875 -109.09375 L 90.15625 -88.234375 C 86.15625 -92.234375 81.640625 -95.390625 76.609375 -97.703125 C 71.578125 -100.023438 66.421875 -101.1875 61.140625 -101.1875 C 55.066406 -101.1875 50.75 -100.226562 48.1875 -98.3125 C 45.632812 -96.394531 44.359375 -93.835938 44.359375 -90.640625 C 44.359375 -87.285156 45.273438 -84.6875 47.109375 -82.84375 C 48.953125 -81.007812 52.429688 -79.691406 57.546875 -78.890625 L 71.6875 -76.96875 C 99.34375 -73.289062 113.171875 -60.660156 113.171875 -39.078125 C 113.171875 -33.003906 111.890625 -27.410156 109.328125 -22.296875 C 106.773438 -17.179688 103.140625 -12.742188 98.421875 -8.984375 C 93.710938 -5.234375 88.039062 -2.316406 81.40625 -0.234375 C 74.769531 1.835938 67.375 2.875 59.21875 2.875 Z M 59.21875 2.875 "/></g></g></g><g fill="#ffffff" fill-opacity="1"><g transform="translate(412.139368, 370.920267)"><g><path d="M 67.375 2.875 C 57.945312 2.875 49.554688 1.316406 42.203125 -1.796875 C 34.847656 -4.910156 28.691406 -9.304688 23.734375 -14.984375 C 18.785156 -20.660156 15.03125 -27.570312 12.46875 -35.71875 C 9.90625 -43.875 8.625 -52.988281 8.625 -63.0625 C 8.625 -73.132812 9.90625 -82.207031 12.46875 -90.28125 C 15.03125 -98.351562 18.785156 -105.265625 23.734375 -111.015625 C 28.691406 -116.773438 34.847656 -121.171875 42.203125 -124.203125 C 49.554688 -127.242188 57.945312 -128.765625 67.375 -128.765625 C 80.164062 -128.765625 90.835938 -125.882812 99.390625 -120.125 C 107.941406 -114.375 114.054688 -106.300781 117.734375 -95.90625 L 88.953125 -83.4375 C 87.835938 -88.238281 85.519531 -92.316406 82 -95.671875 C 78.488281 -99.023438 73.613281 -100.703125 67.375 -100.703125 C 60.1875 -100.703125 54.753906 -98.34375 51.078125 -93.625 C 47.398438 -88.914062 45.5625 -82.566406 45.5625 -74.578125 L 45.5625 -51.078125 C 45.5625 -43.078125 47.398438 -36.757812 51.078125 -32.125 C 54.753906 -27.488281 60.1875 -25.171875 67.375 -25.171875 C 73.769531 -25.171875 78.84375 -26.890625 82.59375 -30.328125 C 86.351562 -33.765625 89.113281 -38.28125 90.875 -43.875 L 118.453125 -31.890625 C 114.296875 -19.898438 107.859375 -11.109375 99.140625 -5.515625 C 90.429688 0.078125 79.84375 2.875 67.375 2.875 Z M 67.375 2.875 "/></g></g></g><g fill="#ffffff" fill-opacity="1"><g transform="translate(536.108915, 370.920267)"><g><path d="M 109.578125 0 C 103.179688 0 97.863281 -1.992188 93.625 -5.984375 C 89.394531 -9.984375 86.722656 -15.34375 85.609375 -22.0625 L 84.15625 -22.0625 C 82.238281 -13.90625 78.003906 -7.707031 71.453125 -3.46875 C 64.898438 0.757812 56.828125 2.875 47.234375 2.875 C 34.609375 2.875 24.9375 -0.476562 18.21875 -7.1875 C 11.507812 -13.90625 8.15625 -22.78125 8.15625 -33.8125 C 8.15625 -47.082031 12.988281 -56.953125 22.65625 -63.421875 C 32.332031 -69.898438 45.484375 -73.140625 62.109375 -73.140625 L 82 -73.140625 L 82 -81.046875 C 82 -87.117188 80.398438 -91.953125 77.203125 -95.546875 C 74.003906 -99.148438 68.648438 -100.953125 61.140625 -100.953125 C 54.109375 -100.953125 48.515625 -99.429688 44.359375 -96.390625 C 40.203125 -93.359375 36.765625 -89.921875 34.046875 -86.078125 L 12.953125 -104.78125 C 18.066406 -112.289062 24.5 -118.164062 32.25 -122.40625 C 40 -126.644531 50.507812 -128.765625 63.78125 -128.765625 C 81.6875 -128.765625 95.113281 -124.847656 104.0625 -117.015625 C 113.019531 -109.179688 117.5 -97.75 117.5 -82.71875 L 117.5 -27.578125 L 129.234375 -27.578125 L 129.234375 0 Z M 60.421875 -21.8125 C 66.335938 -21.8125 71.410156 -23.09375 75.640625 -25.65625 C 79.878906 -28.21875 82 -32.375 82 -38.125 L 82 -52.984375 L 64.734375 -52.984375 C 50.828125 -52.984375 43.875 -48.269531 43.875 -38.84375 L 43.875 -35.25 C 43.875 -30.613281 45.3125 -27.210938 48.1875 -25.046875 C 51.070312 -22.890625 55.148438 -21.8125 60.421875 -21.8125 Z M 60.421875 -21.8125 "/></g></g></g><g fill="#ffffff" fill-opacity="1"><g transform="translate(672.547409, 370.920267)"><g><path d="M 16.546875 0 L 16.546875 -125.890625 L 52.03125 -125.890625 L 52.03125 -98.546875 L 53.234375 -98.546875 C 53.867188 -102.066406 54.984375 -105.460938 56.578125 -108.734375 C 58.179688 -112.015625 60.300781 -114.929688 62.9375 -117.484375 C 65.582031 -120.046875 68.738281 -122.085938 72.40625 -123.609375 C 76.082031 -125.128906 80.398438 -125.890625 85.359375 -125.890625 L 91.59375 -125.890625 L 91.59375 -92.796875 L 82.71875 -92.796875 C 72.332031 -92.796875 64.617188 -91.4375 59.578125 -88.71875 C 54.546875 -86 52.03125 -80.960938 52.03125 -73.609375 L 52.03125 0 Z M 16.546875 0 "/></g></g></g><g fill="#ffffff" fill-opacity="1"><g transform="translate(769.421131, 370.920267)"><g/></g></g><g fill="#ffffff" fill-opacity="1"><g transform="translate(826.010702, 370.920267)"><g><path d="M 85.609375 2.875 C 74.578125 2.875 64.503906 1.035156 55.390625 -2.640625 C 46.273438 -6.316406 38.519531 -11.789062 32.125 -19.0625 C 25.738281 -26.332031 20.785156 -35.363281 17.265625 -46.15625 C 13.742188 -56.945312 11.984375 -69.457031 11.984375 -83.6875 C 11.984375 -97.914062 13.742188 -110.421875 17.265625 -121.203125 C 20.785156 -131.992188 25.738281 -141.023438 32.125 -148.296875 C 38.519531 -155.578125 46.273438 -161.054688 55.390625 -164.734375 C 64.503906 -168.410156 74.578125 -170.25 85.609375 -170.25 C 96.628906 -170.25 106.695312 -168.410156 115.8125 -164.734375 C 124.925781 -161.054688 132.679688 -155.578125 139.078125 -148.296875 C 145.472656 -141.023438 150.425781 -131.992188 153.9375 -121.203125 C 157.457031 -110.421875 159.21875 -97.914062 159.21875 -83.6875 C 159.21875 -69.457031 157.457031 -56.945312 153.9375 -46.15625 C 150.425781 -35.363281 145.472656 -26.332031 139.078125 -19.0625 C 132.679688 -11.789062 124.925781 -6.316406 115.8125 -2.640625 C 106.695312 1.035156 96.628906 2.875 85.609375 2.875 Z M 85.609375 -29.5 C 96.628906 -29.5 105.21875 -33.09375 111.375 -40.28125 C 117.53125 -47.476562 120.609375 -57.789062 120.609375 -71.21875 L 120.609375 -96.15625 C 120.609375 -109.582031 117.53125 -119.890625 111.375 -127.078125 C 105.21875 -134.273438 96.628906 -137.875 85.609375 -137.875 C 74.578125 -137.875 65.984375 -134.273438 59.828125 -127.078125 C 53.671875 -119.890625 50.59375 -109.582031 50.59375 -96.15625 L 50.59375 -71.21875 C 50.59375 -57.789062 53.671875 -47.476562 59.828125 -40.28125 C 65.984375 -33.09375 74.578125 -29.5 85.609375 -29.5 Z M 59.234375 -182.46875 C 52.035156 -182.46875 47.035156 -183.945312 44.234375 -186.90625 C 41.441406 -189.863281 40.046875 -193.421875 40.046875 -197.578125 L 40.046875 -203.578125 C 40.046875 -207.734375 41.441406 -211.289062 44.234375 -214.25 C 47.035156 -217.207031 52.035156 -218.6875 59.234375 -218.6875 C 66.421875 -218.6875 71.410156 -217.207031 74.203125 -214.25 C 77.003906 -211.289062 78.40625 -207.734375 78.40625 -203.578125 L 78.40625 -197.578125 C 78.40625 -193.421875 77.003906 -189.863281 74.203125 -186.90625 C 71.410156 -183.945312 66.421875 -182.46875 59.234375 -182.46875 Z M 111.984375 -182.46875 C 104.785156 -182.46875 99.785156 -183.945312 96.984375 -186.90625 C 94.191406 -189.863281 92.796875 -193.421875 92.796875 -197.578125 L 92.796875 -203.578125 C 92.796875 -207.734375 94.191406 -211.289062 96.984375 -214.25 C 99.785156 -217.207031 104.785156 -218.6875 111.984375 -218.6875 C 119.171875 -218.6875 124.164062 -217.207031 126.96875 -214.25 C 129.769531 -211.289062 131.171875 -207.734375 131.171875 -203.578125 L 131.171875 -197.578125 C 131.171875 -193.421875 129.769531 -189.863281 126.96875 -186.90625 C 124.164062 -183.945312 119.171875 -182.46875 111.984375 -182.46875 Z M 111.984375 -182.46875 "/></g></g></g><g fill="#ffffff" fill-opacity="1"><g transform="translate(997.218213, 370.920267)"><g><path d="M 16.546875 -177.4375 L 52.03125 -177.4375 L 52.03125 -104.546875 L 53.46875 -104.546875 C 55.707031 -111.097656 59.625 -116.769531 65.21875 -121.5625 C 70.8125 -126.363281 78.566406 -128.765625 88.484375 -128.765625 C 101.429688 -128.765625 111.21875 -124.445312 117.84375 -115.8125 C 124.476562 -107.175781 127.796875 -94.867188 127.796875 -78.890625 L 127.796875 0 L 92.3125 0 L 92.3125 -76.015625 C 92.3125 -84.160156 91.03125 -90.191406 88.46875 -94.109375 C 85.914062 -98.023438 81.363281 -99.984375 74.8125 -99.984375 C 71.9375 -99.984375 69.140625 -99.625 66.421875 -98.90625 C 63.703125 -98.1875 61.265625 -97.023438 59.109375 -95.421875 C 56.953125 -93.828125 55.234375 -91.867188 53.953125 -89.546875 C 52.671875 -87.234375 52.03125 -84.5625 52.03125 -81.53125 L 52.03125 0 L 16.546875 0 Z M 16.546875 -177.4375 "/></g></g></g><g fill="#ffffff" fill-opacity="1"><g transform="translate(1140.130966, 370.920267)"><g><path d="M 16.546875 0 L 16.546875 -125.890625 L 52.03125 -125.890625 L 52.03125 -98.546875 L 53.234375 -98.546875 C 53.867188 -102.066406 54.984375 -105.460938 56.578125 -108.734375 C 58.179688 -112.015625 60.300781 -114.929688 62.9375 -117.484375 C 65.582031 -120.046875 68.738281 -122.085938 72.40625 -123.609375 C 76.082031 -125.128906 80.398438 -125.890625 85.359375 -125.890625 L 91.59375 -125.890625 L 91.59375 -92.796875 L 82.71875 -92.796875 C 72.332031 -92.796875 64.617188 -91.4375 59.578125 -88.71875 C 54.546875 -86 52.03125 -80.960938 52.03125 -73.609375 L 52.03125 0 Z M 16.546875 0 "/></g></g></g><g fill="#ffffff" fill-opacity="1"><g transform="translate(1237.004688, 370.920267)"><g><path d="M 16.546875 0 L 16.546875 -125.890625 L 52.03125 -125.890625 L 52.03125 -104.546875 L 53.46875 -104.546875 C 55.707031 -111.097656 59.625 -116.769531 65.21875 -121.5625 C 70.8125 -126.363281 78.566406 -128.765625 88.484375 -128.765625 C 101.429688 -128.765625 111.21875 -124.445312 117.84375 -115.8125 C 124.476562 -107.175781 127.796875 -94.867188 127.796875 -78.890625 L 127.796875 0 L 92.3125 0 L 92.3125 -76.015625 C 92.3125 -84.160156 91.03125 -90.191406 88.46875 -94.109375 C 85.914062 -98.023438 81.363281 -99.984375 74.8125 -99.984375 C 71.9375 -99.984375 69.140625 -99.625 66.421875 -98.90625 C 63.703125 -98.1875 61.265625 -97.023438 59.109375 -95.421875 C 56.953125 -93.828125 55.234375 -91.867188 53.953125 -89.546875 C 52.671875 -87.234375 52.03125 -84.5625 52.03125 -81.53125 L 52.03125 0 Z M 16.546875 0 "/></g></g></g></svg>