<svg xmlns="http://www.w3.org/2000/svg" xmlns:xlink="http://www.w3.org/1999/xlink" width="2000" zoomAndPan="magnify" viewBox="0 0 1500 749.999995" height="1000" preserveAspectRatio="xMidYMid meet" version="1.0"><defs><g/><clipPath id="1c54963e33"><path d="M 0 18.746094 L 1500 18.746094 L 1500 731.253906 L 0 731.253906 Z M 0 18.746094 " clip-rule="nonzero"/></clipPath><clipPath id="221efb27e4"><path d="M 35.25 18.746094 L 1464.75 18.746094 C 1484.21875 18.746094 1500 34.527344 1500 53.996094 L 1500 696.003906 C 1500 715.472656 1484.21875 731.253906 1464.75 731.253906 L 35.25 731.253906 C 15.78125 731.253906 0 715.472656 0 696.003906 L 0 53.996094 C 0 34.527344 15.78125 18.746094 35.25 18.746094 Z M 35.25 18.746094 " clip-rule="nonzero"/></clipPath><clipPath id="3f08646663"><path d="M 0 0.746094 L 1500 0.746094 L 1500 713.253906 L 0 713.253906 Z M 0 0.746094 " clip-rule="nonzero"/></clipPath><clipPath id="62af9139b6"><path d="M 35.25 0.746094 L 1464.75 0.746094 C 1484.21875 0.746094 1500 16.527344 1500 35.996094 L 1500 678.003906 C 1500 697.472656 1484.21875 713.253906 1464.75 713.253906 L 35.25 713.253906 C 15.78125 713.253906 0 697.472656 0 678.003906 L 0 35.996094 C 0 16.527344 15.78125 0.746094 35.25 0.746094 Z M 35.25 0.746094 " clip-rule="nonzero"/></clipPath><clipPath id="0a1d023ca3"><rect x="0" width="1500" y="0" height="714"/></clipPath><clipPath id="29900ad1d1"><path d="M 0.0078125 18.746094 L 1499.992188 18.746094 L 1499.992188 731.246094 L 0.0078125 731.246094 Z M 0.0078125 18.746094 " clip-rule="nonzero"/></clipPath><clipPath id="cc518826bf"><path d="M 35.257812 18.746094 L 1464.742188 18.746094 C 1484.210938 18.746094 1499.992188 34.527344 1499.992188 53.996094 L 1499.992188 695.996094 C 1499.992188 715.464844 1484.210938 731.246094 1464.742188 731.246094 L 35.257812 731.246094 C 15.789062 731.246094 0.0078125 715.464844 0.0078125 695.996094 L 0.0078125 53.996094 C 0.0078125 34.527344 15.789062 18.746094 35.257812 18.746094 Z M 35.257812 18.746094 " clip-rule="nonzero"/></clipPath><clipPath id="44f35c2667"><rect x="0" width="1387" y="0" height="353"/></clipPath><clipPath id="d6636d1637"><path d="M 1361.503906 602.214844 L 1453.753906 602.214844 L 1453.753906 694 L 1361.503906 694 Z M 1361.503906 602.214844 " clip-rule="nonzero"/></clipPath><clipPath id="7f24b1d5c2"><path d="M 1361.503906 41 L 1453.753906 41 L 1453.753906 133 L 1361.503906 133 Z M 1361.503906 41 " clip-rule="nonzero"/></clipPath><clipPath id="e10746b80a"><path d="M 27.269531 41 L 119.519531 41 L 119.519531 133 L 27.269531 133 Z M 27.269531 41 " clip-rule="nonzero"/></clipPath><clipPath id="01c945b727"><path d="M 27.269531 602.214844 L 119.519531 602.214844 L 119.519531 694 L 27.269531 694 Z M 27.269531 602.214844 " clip-rule="nonzero"/></clipPath><clipPath id="63f5c7e3fe"><rect x="0" width="609" y="0" height="152"/></clipPath></defs><g clip-path="url(#1c54963e33)"><g clip-path="url(#221efb27e4)"><g transform="matrix(1, 0, 0, 1, 0, 18)"><g clip-path="url(#0a1d023ca3)"><g clip-path="url(#3f08646663)"><g clip-path="url(#62af9139b6)"><path fill="#04052e" d="M 0 0.746094 L 1500.160156 0.746094 L 1500.160156 713.253906 L 0 713.253906 Z M 0 0.746094 " fill-opacity="1" fill-rule="nonzero"/></g></g></g></g></g></g><g clip-path="url(#29900ad1d1)"><g clip-path="url(#cc518826bf)"><path stroke-linecap="butt" transform="matrix(0.75, 0, 0, 0.75, 0.00688173, 18.74676)" fill="none" stroke-linejoin="miter" d="M 47.001243 -0.000888182 L 1952.980503 -0.000888182 C 1978.938837 -0.000888182 1999.980505 21.04078 1999.980505 46.999114 L 1999.980505 902.999156 C 1999.980505 928.95749 1978.938837 949.999158 1952.980503 949.999158 L 47.001243 949.999158 C 21.042909 949.999158 0.00124103 928.95749 0.00124103 902.999156 L 0.00124103 46.999114 C 0.00124103 21.04078 21.042909 -0.000888182 47.001243 -0.000888182 Z M 47.001243 -0.000888182 " stroke="#02010a" stroke-width="32" stroke-opacity="1" stroke-miterlimit="4"/></g></g><g transform="matrix(1, 0, 0, 1, 113, 151)"><g clip-path="url(#44f35c2667)"><g fill="#140152" fill-opacity="1"><g transform="translate(0.889492, 277.248345)"><g><path d="M 96.265625 3.234375 C 83.867188 3.234375 72.546875 1.164062 62.296875 -2.96875 C 52.046875 -7.101562 43.320312 -13.257812 36.125 -21.4375 C 28.9375 -29.613281 23.363281 -39.769531 19.40625 -51.90625 C 15.457031 -64.039062 13.484375 -78.109375 13.484375 -94.109375 C 13.484375 -110.109375 15.457031 -124.175781 19.40625 -136.3125 C 23.363281 -148.445312 28.9375 -158.601562 36.125 -166.78125 C 43.320312 -174.96875 52.046875 -181.128906 62.296875 -185.265625 C 72.546875 -189.398438 83.867188 -191.46875 96.265625 -191.46875 C 108.671875 -191.46875 120 -189.398438 130.25 -185.265625 C 140.5 -181.128906 149.21875 -174.96875 156.40625 -166.78125 C 163.601562 -158.601562 169.175781 -148.445312 173.125 -136.3125 C 177.082031 -124.175781 179.0625 -110.109375 179.0625 -94.109375 C 179.0625 -78.109375 177.082031 -64.039062 173.125 -51.90625 C 169.175781 -39.769531 163.601562 -29.613281 156.40625 -21.4375 C 149.21875 -13.257812 140.5 -7.101562 130.25 -2.96875 C 120 1.164062 108.671875 3.234375 96.265625 3.234375 Z M 96.265625 -33.171875 C 108.671875 -33.171875 118.332031 -37.210938 125.25 -45.296875 C 132.175781 -53.390625 135.640625 -64.988281 135.640625 -80.09375 L 135.640625 -108.140625 C 135.640625 -123.242188 132.175781 -134.835938 125.25 -142.921875 C 118.332031 -151.015625 108.671875 -155.0625 96.265625 -155.0625 C 83.867188 -155.0625 74.207031 -151.015625 67.28125 -142.921875 C 60.363281 -134.835938 56.90625 -123.242188 56.90625 -108.140625 L 56.90625 -80.09375 C 56.90625 -64.988281 60.363281 -53.390625 67.28125 -45.296875 C 74.207031 -37.210938 83.867188 -33.171875 96.265625 -33.171875 Z M 96.265625 -33.171875 "/></g></g></g><g fill="#140152" fill-opacity="1"><g transform="translate(274.341602, 277.248345)"><g><path d="M 81.703125 3.234375 C 65.171875 3.234375 51.148438 0.40625 39.640625 -5.25 C 28.128906 -10.914062 18.332031 -18.242188 10.25 -27.234375 L 37.21875 -54.46875 C 49.976562 -40.09375 65.707031 -32.90625 84.40625 -32.90625 C 94.476562 -32.90625 101.941406 -34.972656 106.796875 -39.109375 C 111.648438 -43.242188 114.078125 -48.722656 114.078125 -55.546875 C 114.078125 -60.765625 112.632812 -65.125 109.75 -68.625 C 106.875 -72.132812 101.035156 -74.519531 92.234375 -75.78125 L 73.625 -78.203125 C 53.664062 -80.722656 39.054688 -86.742188 29.796875 -96.265625 C 20.535156 -105.796875 15.90625 -118.472656 15.90625 -134.296875 C 15.90625 -142.742188 17.523438 -150.472656 20.765625 -157.484375 C 24.003906 -164.492188 28.632812 -170.515625 34.65625 -175.546875 C 40.675781 -180.585938 48.046875 -184.5 56.765625 -187.28125 C 65.484375 -190.070312 75.414062 -191.46875 86.5625 -191.46875 C 100.769531 -191.46875 113.265625 -189.21875 124.046875 -184.71875 C 134.835938 -180.226562 144.097656 -173.671875 151.828125 -165.046875 L 124.59375 -137.53125 C 120.09375 -142.75 114.648438 -147.019531 108.265625 -150.34375 C 101.890625 -153.664062 93.847656 -155.328125 84.140625 -155.328125 C 74.972656 -155.328125 68.140625 -153.707031 63.640625 -150.46875 C 59.148438 -147.238281 56.90625 -142.75 56.90625 -137 C 56.90625 -130.519531 58.65625 -125.84375 62.15625 -122.96875 C 65.664062 -120.09375 71.375 -118.023438 79.28125 -116.765625 L 97.890625 -113.796875 C 117.304688 -110.742188 131.6875 -104.765625 141.03125 -95.859375 C 150.382812 -86.960938 155.0625 -74.335938 155.0625 -57.984375 C 155.0625 -48.992188 153.441406 -40.722656 150.203125 -33.171875 C 146.972656 -25.617188 142.253906 -19.144531 136.046875 -13.75 C 129.847656 -8.351562 122.160156 -4.171875 112.984375 -1.203125 C 103.816406 1.753906 93.390625 3.234375 81.703125 3.234375 Z M 81.703125 3.234375 "/></g></g></g><g fill="#140152" fill-opacity="1"><g transform="translate(523.52305, 277.248345)"><g><path d="M 96.8125 3.234375 C 84.050781 3.234375 72.546875 1.210938 62.296875 -2.828125 C 52.046875 -6.878906 43.320312 -12.90625 36.125 -20.90625 C 28.9375 -28.90625 23.363281 -38.878906 19.40625 -50.828125 C 15.457031 -62.785156 13.484375 -76.765625 13.484375 -92.765625 C 13.484375 -108.585938 15.457031 -122.65625 19.40625 -134.96875 C 23.363281 -147.28125 28.9375 -157.613281 36.125 -165.96875 C 43.320312 -174.332031 52.046875 -180.671875 62.296875 -184.984375 C 72.546875 -189.304688 84.050781 -191.46875 96.8125 -191.46875 C 114.25 -191.46875 128.628906 -187.914062 139.953125 -180.8125 C 151.285156 -173.707031 160.367188 -162.515625 167.203125 -147.234375 L 131.875 -128.90625 C 129.351562 -136.8125 125.441406 -143.144531 120.140625 -147.90625 C 114.835938 -152.675781 107.0625 -155.0625 96.8125 -155.0625 C 84.769531 -155.0625 75.109375 -151.148438 67.828125 -143.328125 C 60.546875 -135.503906 56.90625 -124.132812 56.90625 -109.21875 L 56.90625 -79.015625 C 56.90625 -64.085938 60.546875 -52.710938 67.828125 -44.890625 C 75.109375 -37.078125 84.769531 -33.171875 96.8125 -33.171875 C 106.875 -33.171875 114.914062 -35.910156 120.9375 -41.390625 C 126.96875 -46.878906 131.421875 -53.488281 134.296875 -61.21875 L 167.734375 -41.796875 C 160.722656 -27.410156 151.507812 -16.304688 140.09375 -8.484375 C 128.675781 -0.671875 114.25 3.234375 96.8125 3.234375 Z M 96.8125 3.234375 "/></g></g></g><g fill="#140152" fill-opacity="1"><g transform="translate(779.985632, 277.248345)"><g><path d="M 136.71875 0 L 123.234375 -44.765625 L 60.40625 -44.765625 L 46.921875 0 L 5.390625 0 L 67.421875 -188.234375 L 118.109375 -188.234375 L 179.328125 0 Z M 92.234375 -151.015625 L 90.875 -151.015625 L 70.109375 -79.546875 L 113.265625 -79.546875 Z M 92.234375 -151.015625 "/></g></g></g><g fill="#140152" fill-opacity="1"><g transform="translate(1045.617183, 277.248345)"><g><path d="M 61.75 0 L 20.765625 0 L 20.765625 -188.234375 L 110.03125 -188.234375 C 118.65625 -188.234375 126.472656 -186.789062 133.484375 -183.90625 C 140.492188 -181.03125 146.472656 -176.941406 151.421875 -171.640625 C 156.367188 -166.335938 160.1875 -160 162.875 -152.625 C 165.570312 -145.257812 166.921875 -137.082031 166.921875 -128.09375 C 166.921875 -115.332031 164.085938 -104.1875 158.421875 -94.65625 C 152.765625 -85.125 144.179688 -78.203125 132.671875 -73.890625 L 169.625 0 L 124.046875 0 L 91.15625 -69.03125 L 61.75 -69.03125 Z M 104.90625 -103.546875 C 111.019531 -103.546875 115.828125 -105.117188 119.328125 -108.265625 C 122.835938 -111.421875 124.59375 -116.050781 124.59375 -122.15625 L 124.59375 -134.03125 C 124.59375 -140.144531 122.835938 -144.773438 119.328125 -147.921875 C 115.828125 -151.066406 111.019531 -152.640625 104.90625 -152.640625 L 61.75 -152.640625 L 61.75 -103.546875 Z M 104.90625 -103.546875 "/></g></g></g><g fill="#140152" fill-opacity="1"><g transform="translate(1308.283477, 277.248345)"><g/></g></g></g></g><g clip-path="url(#d6636d1637)"><path fill="#22007c" d="M 1409.882812 603.59375 C 1411.34375 602.273438 1413.632812 602.511719 1414.785156 604.109375 C 1415.785156 605.488281 1417.660156 605.886719 1419.128906 605.03125 C 1420.835938 604.042969 1423.019531 604.753906 1423.820312 606.554688 C 1424.507812 608.113281 1426.261719 608.890625 1427.875 608.363281 C 1429.75 607.75 1431.738281 608.898438 1432.148438 610.828125 C 1432.496094 612.492188 1434.050781 613.621094 1435.738281 613.4375 C 1437.699219 613.226562 1439.40625 614.765625 1439.402344 616.738281 C 1439.398438 618.4375 1440.683594 619.863281 1442.375 620.039062 C 1444.332031 620.238281 1445.683594 622.097656 1445.269531 624.027344 C 1444.914062 625.6875 1445.875 627.351562 1447.492188 627.871094 C 1449.367188 628.476562 1450.300781 630.578125 1449.496094 632.375 C 1448.800781 633.929688 1449.394531 635.753906 1450.867188 636.601562 C 1452.578125 637.582031 1453.054688 639.828125 1451.894531 641.421875 C 1450.894531 642.796875 1451.09375 644.703125 1452.359375 645.839844 C 1453.824219 647.152344 1453.824219 649.453125 1452.359375 650.765625 C 1451.09375 651.902344 1450.894531 653.808594 1451.894531 655.183594 C 1453.054688 656.777344 1452.578125 659.023438 1450.867188 660.003906 C 1449.394531 660.851562 1448.800781 662.675781 1449.496094 664.230469 C 1450.304688 666.027344 1449.367188 668.125 1447.492188 668.734375 C 1445.875 669.253906 1444.914062 670.917969 1445.269531 672.578125 C 1445.683594 674.507812 1444.332031 676.367188 1442.375 676.566406 C 1440.683594 676.742188 1439.398438 678.167969 1439.402344 679.867188 C 1439.40625 681.839844 1437.699219 683.378906 1435.738281 683.167969 C 1434.046875 682.984375 1432.496094 684.113281 1432.148438 685.777344 C 1431.742188 687.707031 1429.75 688.855469 1427.875 688.242188 C 1426.261719 687.714844 1424.507812 688.496094 1423.820312 690.050781 C 1423.019531 691.851562 1420.835938 692.5625 1419.128906 691.574219 C 1417.660156 690.71875 1415.785156 691.117188 1414.785156 692.496094 C 1413.632812 694.09375 1411.347656 694.332031 1409.882812 693.011719 C 1408.625 691.871094 1406.703125 691.871094 1405.441406 693.011719 C 1403.980469 694.332031 1401.695312 694.09375 1400.539062 692.496094 C 1399.542969 691.117188 1397.664062 690.71875 1396.195312 691.574219 C 1394.492188 692.5625 1392.304688 691.851562 1391.507812 690.050781 C 1390.820312 688.496094 1389.066406 687.714844 1387.449219 688.242188 C 1385.574219 688.855469 1383.585938 687.707031 1383.179688 685.777344 C 1382.832031 684.113281 1381.277344 682.984375 1379.589844 683.167969 C 1377.628906 683.378906 1375.921875 681.839844 1375.925781 679.867188 C 1375.929688 678.167969 1374.644531 676.742188 1372.953125 676.566406 C 1370.992188 676.367188 1369.640625 674.507812 1370.054688 672.578125 C 1370.414062 670.917969 1369.453125 669.253906 1367.835938 668.734375 C 1365.960938 668.128906 1365.027344 666.027344 1365.828125 664.230469 C 1366.523438 662.675781 1365.929688 660.851562 1364.457031 660.003906 C 1362.75 659.023438 1362.269531 656.777344 1363.433594 655.183594 C 1364.433594 653.808594 1364.234375 651.902344 1362.96875 650.765625 C 1361.503906 649.449219 1361.503906 647.152344 1362.96875 645.835938 C 1364.234375 644.699219 1364.4375 642.792969 1363.433594 641.417969 C 1362.273438 639.828125 1362.75 637.578125 1364.460938 636.597656 C 1365.933594 635.75 1366.527344 633.925781 1365.832031 632.371094 C 1365.027344 630.574219 1365.960938 628.476562 1367.835938 627.867188 C 1369.453125 627.347656 1370.414062 625.683594 1370.058594 624.023438 C 1369.644531 622.09375 1370.996094 620.234375 1372.957031 620.035156 C 1374.644531 619.859375 1375.929688 618.433594 1375.925781 616.734375 C 1375.921875 614.761719 1377.628906 613.222656 1379.589844 613.433594 C 1381.28125 613.617188 1382.832031 612.488281 1383.183594 610.824219 C 1383.585938 608.894531 1385.578125 607.746094 1387.453125 608.359375 C 1389.066406 608.886719 1390.820312 608.105469 1391.507812 606.550781 C 1392.308594 604.75 1394.492188 604.039062 1396.199219 605.027344 C 1397.667969 605.882812 1399.546875 605.484375 1400.542969 604.105469 C 1401.699219 602.507812 1403.980469 602.269531 1405.445312 603.589844 C 1406.703125 604.734375 1408.625 604.734375 1409.882812 603.59375 Z M 1409.882812 603.59375 " fill-opacity="1" fill-rule="nonzero"/></g><path fill="#000000" d="M 1449.902344 648.300781 C 1449.902344 649.683594 1449.832031 651.0625 1449.699219 652.441406 C 1449.5625 653.816406 1449.359375 655.183594 1449.089844 656.539062 C 1448.820312 657.898438 1448.484375 659.238281 1448.082031 660.5625 C 1447.679688 661.886719 1447.214844 663.1875 1446.6875 664.464844 C 1446.15625 665.742188 1445.566406 666.992188 1444.914062 668.210938 C 1444.261719 669.429688 1443.550781 670.617188 1442.785156 671.765625 C 1442.015625 672.917969 1441.191406 674.027344 1440.3125 675.097656 C 1439.4375 676.164062 1438.507812 677.1875 1437.53125 678.167969 C 1436.550781 679.144531 1435.527344 680.074219 1434.460938 680.949219 C 1433.390625 681.828125 1432.28125 682.652344 1431.128906 683.421875 C 1429.980469 684.1875 1428.792969 684.898438 1427.574219 685.550781 C 1426.355469 686.203125 1425.105469 686.792969 1423.828125 687.324219 C 1422.550781 687.851562 1421.25 688.316406 1419.925781 688.71875 C 1418.601562 689.121094 1417.261719 689.457031 1415.902344 689.726562 C 1414.546875 689.996094 1413.179688 690.199219 1411.804688 690.335938 C 1410.425781 690.46875 1409.046875 690.539062 1407.664062 690.539062 C 1406.28125 690.539062 1404.898438 690.46875 1403.523438 690.335938 C 1402.148438 690.199219 1400.78125 689.996094 1399.421875 689.726562 C 1398.066406 689.457031 1396.726562 689.121094 1395.402344 688.71875 C 1394.078125 688.316406 1392.777344 687.851562 1391.5 687.324219 C 1390.222656 686.792969 1388.972656 686.203125 1387.753906 685.550781 C 1386.53125 684.898438 1385.347656 684.1875 1384.195312 683.421875 C 1383.046875 682.652344 1381.9375 681.828125 1380.867188 680.949219 C 1379.796875 680.074219 1378.773438 679.144531 1377.796875 678.167969 C 1376.816406 677.1875 1375.890625 676.164062 1375.011719 675.097656 C 1374.136719 674.027344 1373.3125 672.917969 1372.542969 671.765625 C 1371.773438 670.617188 1371.066406 669.429688 1370.414062 668.210938 C 1369.761719 666.992188 1369.167969 665.742188 1368.640625 664.464844 C 1368.109375 663.1875 1367.644531 661.886719 1367.242188 660.5625 C 1366.84375 659.238281 1366.507812 657.898438 1366.238281 656.539062 C 1365.964844 655.183594 1365.765625 653.816406 1365.628906 652.441406 C 1365.492188 651.0625 1365.425781 649.683594 1365.425781 648.300781 C 1365.425781 646.917969 1365.492188 645.535156 1365.628906 644.160156 C 1365.765625 642.785156 1365.964844 641.417969 1366.238281 640.058594 C 1366.507812 638.703125 1366.84375 637.363281 1367.242188 636.039062 C 1367.644531 634.714844 1368.109375 633.414062 1368.640625 632.136719 C 1369.167969 630.859375 1369.761719 629.609375 1370.414062 628.390625 C 1371.066406 627.167969 1371.773438 625.984375 1372.542969 624.832031 C 1373.3125 623.683594 1374.136719 622.574219 1375.011719 621.503906 C 1375.890625 620.433594 1376.816406 619.410156 1377.796875 618.433594 C 1378.773438 617.453125 1379.796875 616.527344 1380.867188 615.648438 C 1381.9375 614.773438 1383.046875 613.949219 1384.195312 613.179688 C 1385.347656 612.410156 1386.53125 611.703125 1387.753906 611.050781 C 1388.972656 610.398438 1390.222656 609.804688 1391.5 609.277344 C 1392.777344 608.746094 1394.078125 608.28125 1395.402344 607.878906 C 1396.726562 607.480469 1398.066406 607.144531 1399.421875 606.875 C 1400.78125 606.601562 1402.148438 606.402344 1403.523438 606.265625 C 1404.898438 606.128906 1406.28125 606.0625 1407.664062 606.0625 C 1409.046875 606.0625 1410.425781 606.128906 1411.804688 606.265625 C 1413.179688 606.402344 1414.546875 606.601562 1415.902344 606.875 C 1417.261719 607.144531 1418.601562 607.480469 1419.925781 607.878906 C 1421.25 608.28125 1422.550781 608.746094 1423.828125 609.277344 C 1425.105469 609.804688 1426.355469 610.398438 1427.574219 611.050781 C 1428.792969 611.703125 1429.980469 612.410156 1431.128906 613.179688 C 1432.28125 613.949219 1433.390625 614.773438 1434.460938 615.648438 C 1435.527344 616.527344 1436.550781 617.453125 1437.53125 618.433594 C 1438.507812 619.410156 1439.4375 620.433594 1440.3125 621.503906 C 1441.191406 622.574219 1442.015625 623.683594 1442.785156 624.832031 C 1443.550781 625.984375 1444.261719 627.167969 1444.914062 628.390625 C 1445.566406 629.609375 1446.15625 630.859375 1446.6875 632.136719 C 1447.214844 633.414062 1447.679688 634.714844 1448.082031 636.039062 C 1448.484375 637.363281 1448.820312 638.703125 1449.089844 640.058594 C 1449.359375 641.417969 1449.5625 642.785156 1449.699219 644.160156 C 1449.832031 645.535156 1449.902344 646.917969 1449.902344 648.300781 Z M 1449.902344 648.300781 " fill-opacity="1" fill-rule="nonzero"/><path fill="#22007c" d="M 1407.664062 675.480469 C 1392.675781 675.480469 1380.484375 663.289062 1380.484375 648.300781 C 1380.484375 633.3125 1392.675781 621.121094 1407.664062 621.121094 C 1422.652344 621.121094 1434.84375 633.3125 1434.84375 648.300781 C 1434.84375 663.289062 1422.652344 675.480469 1407.664062 675.480469 Z M 1407.664062 623.683594 C 1394.089844 623.683594 1383.046875 634.726562 1383.046875 648.300781 C 1383.046875 661.875 1394.089844 672.914062 1407.664062 672.914062 C 1421.238281 672.914062 1432.277344 661.875 1432.277344 648.300781 C 1432.277344 634.726562 1421.238281 623.683594 1407.664062 623.683594 Z M 1407.664062 623.683594 " fill-opacity="1" fill-rule="nonzero"/><g clip-path="url(#7f24b1d5c2)"><path fill="#22007c" d="M 1409.882812 42.179688 C 1411.34375 40.859375 1413.632812 41.097656 1414.785156 42.695312 C 1415.785156 44.070312 1417.660156 44.472656 1419.128906 43.617188 C 1420.835938 42.628906 1423.019531 43.339844 1423.820312 45.140625 C 1424.507812 46.695312 1426.261719 47.476562 1427.875 46.949219 C 1429.75 46.335938 1431.738281 47.484375 1432.148438 49.414062 C 1432.496094 51.078125 1434.050781 52.207031 1435.738281 52.023438 C 1437.699219 51.8125 1439.40625 53.351562 1439.402344 55.324219 C 1439.398438 57.023438 1440.683594 58.449219 1442.375 58.625 C 1444.332031 58.824219 1445.683594 60.683594 1445.269531 62.613281 C 1444.914062 64.273438 1445.875 65.9375 1447.492188 66.457031 C 1449.367188 67.0625 1450.300781 69.164062 1449.496094 70.960938 C 1448.800781 72.515625 1449.394531 74.339844 1450.867188 75.1875 C 1452.578125 76.167969 1453.054688 78.414062 1451.894531 80.007812 C 1450.894531 81.382812 1451.09375 83.289062 1452.359375 84.425781 C 1453.824219 85.738281 1453.824219 88.039062 1452.359375 89.351562 C 1451.09375 90.488281 1450.894531 92.394531 1451.894531 93.769531 C 1453.054688 95.359375 1452.578125 97.609375 1450.867188 98.589844 C 1449.394531 99.4375 1448.800781 101.261719 1449.496094 102.816406 C 1450.304688 104.613281 1449.367188 106.710938 1447.492188 107.320312 C 1445.875 107.839844 1444.914062 109.503906 1445.269531 111.164062 C 1445.683594 113.09375 1444.332031 114.953125 1442.375 115.152344 C 1440.683594 115.328125 1439.398438 116.753906 1439.402344 118.453125 C 1439.40625 120.425781 1437.699219 121.964844 1435.738281 121.753906 C 1434.046875 121.570312 1432.496094 122.699219 1432.148438 124.363281 C 1431.742188 126.292969 1429.75 127.441406 1427.875 126.828125 C 1426.261719 126.300781 1424.507812 127.082031 1423.820312 128.636719 C 1423.019531 130.4375 1420.835938 131.148438 1419.128906 130.160156 C 1417.660156 129.304688 1415.785156 129.703125 1414.785156 131.082031 C 1413.632812 132.679688 1411.347656 132.917969 1409.882812 131.597656 C 1408.625 130.457031 1406.703125 130.457031 1405.441406 131.597656 C 1403.980469 132.917969 1401.695312 132.675781 1400.539062 131.082031 C 1399.542969 129.703125 1397.664062 129.304688 1396.195312 130.160156 C 1394.492188 131.148438 1392.304688 130.4375 1391.507812 128.636719 C 1390.820312 127.078125 1389.066406 126.300781 1387.449219 126.828125 C 1385.574219 127.441406 1383.585938 126.292969 1383.179688 124.363281 C 1382.832031 122.699219 1381.277344 121.570312 1379.589844 121.753906 C 1377.628906 121.964844 1375.921875 120.425781 1375.925781 118.453125 C 1375.929688 116.753906 1374.644531 115.328125 1372.953125 115.152344 C 1370.992188 114.953125 1369.640625 113.09375 1370.054688 111.164062 C 1370.414062 109.503906 1369.453125 107.839844 1367.835938 107.320312 C 1365.960938 106.714844 1365.027344 104.613281 1365.828125 102.816406 C 1366.523438 101.261719 1365.929688 99.4375 1364.457031 98.589844 C 1362.75 97.609375 1362.269531 95.359375 1363.433594 93.769531 C 1364.433594 92.394531 1364.234375 90.488281 1362.96875 89.351562 C 1361.503906 88.035156 1361.503906 85.738281 1362.96875 84.421875 C 1364.234375 83.285156 1364.4375 81.378906 1363.433594 80.003906 C 1362.273438 78.410156 1362.75 76.164062 1364.460938 75.183594 C 1365.933594 74.335938 1366.527344 72.511719 1365.832031 70.957031 C 1365.027344 69.160156 1365.960938 67.0625 1367.835938 66.453125 C 1369.453125 65.933594 1370.414062 64.269531 1370.058594 62.609375 C 1369.644531 60.679688 1370.996094 58.820312 1372.957031 58.621094 C 1374.644531 58.445312 1375.929688 57.019531 1375.925781 55.320312 C 1375.921875 53.347656 1377.628906 51.808594 1379.589844 52.019531 C 1381.28125 52.203125 1382.832031 51.074219 1383.183594 49.410156 C 1383.585938 47.480469 1385.578125 46.332031 1387.453125 46.945312 C 1389.066406 47.472656 1390.820312 46.691406 1391.507812 45.136719 C 1392.308594 43.335938 1394.492188 42.625 1396.199219 43.613281 C 1397.667969 44.46875 1399.546875 44.070312 1400.542969 42.691406 C 1401.699219 41.09375 1403.980469 40.855469 1405.445312 42.175781 C 1406.703125 43.320312 1408.625 43.320312 1409.882812 42.179688 Z M 1409.882812 42.179688 " fill-opacity="1" fill-rule="nonzero"/></g><path fill="#000000" d="M 1449.902344 86.886719 C 1449.902344 88.269531 1449.832031 89.648438 1449.699219 91.027344 C 1449.5625 92.402344 1449.359375 93.769531 1449.089844 95.125 C 1448.820312 96.484375 1448.484375 97.824219 1448.082031 99.148438 C 1447.679688 100.46875 1447.214844 101.773438 1446.6875 103.050781 C 1446.15625 104.328125 1445.566406 105.578125 1444.914062 106.796875 C 1444.261719 108.015625 1443.550781 109.203125 1442.785156 110.351562 C 1442.015625 111.503906 1441.191406 112.613281 1440.3125 113.679688 C 1439.4375 114.75 1438.507812 115.773438 1437.53125 116.753906 C 1436.550781 117.730469 1435.527344 118.660156 1434.460938 119.535156 C 1433.390625 120.414062 1432.28125 121.238281 1431.128906 122.003906 C 1429.980469 122.773438 1428.792969 123.484375 1427.574219 124.136719 C 1426.355469 124.789062 1425.105469 125.378906 1423.828125 125.910156 C 1422.550781 126.4375 1421.25 126.902344 1419.925781 127.304688 C 1418.601562 127.707031 1417.261719 128.042969 1415.902344 128.3125 C 1414.546875 128.582031 1413.179688 128.785156 1411.804688 128.921875 C 1410.425781 129.054688 1409.046875 129.125 1407.664062 129.125 C 1406.28125 129.125 1404.898438 129.054688 1403.523438 128.921875 C 1402.148438 128.785156 1400.78125 128.582031 1399.421875 128.3125 C 1398.066406 128.042969 1396.726562 127.707031 1395.402344 127.304688 C 1394.078125 126.902344 1392.777344 126.4375 1391.5 125.910156 C 1390.222656 125.378906 1388.972656 124.789062 1387.753906 124.136719 C 1386.53125 123.484375 1385.347656 122.773438 1384.195312 122.003906 C 1383.046875 121.238281 1381.9375 120.414062 1380.867188 119.535156 C 1379.796875 118.660156 1378.773438 117.730469 1377.796875 116.753906 C 1376.816406 115.773438 1375.890625 114.75 1375.011719 113.679688 C 1374.136719 112.613281 1373.3125 111.503906 1372.542969 110.351562 C 1371.773438 109.203125 1371.066406 108.015625 1370.414062 106.796875 C 1369.761719 105.578125 1369.167969 104.328125 1368.640625 103.050781 C 1368.109375 101.773438 1367.644531 100.46875 1367.242188 99.148438 C 1366.84375 97.824219 1366.507812 96.484375 1366.238281 95.125 C 1365.964844 93.769531 1365.765625 92.402344 1365.628906 91.027344 C 1365.492188 89.648438 1365.425781 88.269531 1365.425781 86.886719 C 1365.425781 85.503906 1365.492188 84.121094 1365.628906 82.746094 C 1365.765625 81.367188 1365.964844 80.003906 1366.238281 78.644531 C 1366.507812 77.289062 1366.84375 75.949219 1367.242188 74.625 C 1367.644531 73.300781 1368.109375 72 1368.640625 70.722656 C 1369.167969 69.445312 1369.761719 68.195312 1370.414062 66.976562 C 1371.066406 65.753906 1371.773438 64.570312 1372.542969 63.417969 C 1373.3125 62.269531 1374.136719 61.160156 1375.011719 60.089844 C 1375.890625 59.019531 1376.816406 57.996094 1377.796875 57.019531 C 1378.773438 56.039062 1379.796875 55.113281 1380.867188 54.234375 C 1381.9375 53.355469 1383.046875 52.535156 1384.195312 51.765625 C 1385.347656 50.996094 1386.53125 50.285156 1387.753906 49.636719 C 1388.972656 48.984375 1390.222656 48.390625 1391.5 47.863281 C 1392.777344 47.332031 1394.078125 46.867188 1395.402344 46.464844 C 1396.726562 46.066406 1398.066406 45.730469 1399.421875 45.457031 C 1400.78125 45.1875 1402.148438 44.984375 1403.523438 44.851562 C 1404.898438 44.714844 1406.28125 44.648438 1407.664062 44.648438 C 1409.046875 44.648438 1410.425781 44.714844 1411.804688 44.851562 C 1413.179688 44.984375 1414.546875 45.1875 1415.902344 45.457031 C 1417.261719 45.730469 1418.601562 46.066406 1419.925781 46.464844 C 1421.25 46.867188 1422.550781 47.332031 1423.828125 47.863281 C 1425.105469 48.390625 1426.355469 48.984375 1427.574219 49.636719 C 1428.792969 50.285156 1429.980469 50.996094 1431.128906 51.765625 C 1432.28125 52.535156 1433.390625 53.355469 1434.460938 54.234375 C 1435.527344 55.113281 1436.550781 56.039062 1437.53125 57.019531 C 1438.507812 57.996094 1439.4375 59.019531 1440.3125 60.089844 C 1441.191406 61.160156 1442.015625 62.269531 1442.785156 63.417969 C 1443.550781 64.570312 1444.261719 65.753906 1444.914062 66.976562 C 1445.566406 68.195312 1446.15625 69.445312 1446.6875 70.722656 C 1447.214844 72 1447.679688 73.300781 1448.082031 74.625 C 1448.484375 75.949219 1448.820312 77.289062 1449.089844 78.644531 C 1449.359375 80.003906 1449.5625 81.367188 1449.699219 82.746094 C 1449.832031 84.121094 1449.902344 85.503906 1449.902344 86.886719 Z M 1449.902344 86.886719 " fill-opacity="1" fill-rule="nonzero"/><path fill="#22007c" d="M 1407.664062 114.066406 C 1392.675781 114.066406 1380.484375 101.875 1380.484375 86.886719 C 1380.484375 71.898438 1392.675781 59.707031 1407.664062 59.707031 C 1422.652344 59.707031 1434.84375 71.898438 1434.84375 86.886719 C 1434.84375 101.875 1422.652344 114.066406 1407.664062 114.066406 Z M 1407.664062 62.269531 C 1394.089844 62.269531 1383.046875 73.3125 1383.046875 86.886719 C 1383.046875 100.460938 1394.089844 111.5 1407.664062 111.5 C 1421.238281 111.5 1432.277344 100.460938 1432.277344 86.886719 C 1432.277344 73.3125 1421.238281 62.269531 1407.664062 62.269531 Z M 1407.664062 62.269531 " fill-opacity="1" fill-rule="nonzero"/><g clip-path="url(#e10746b80a)"><path fill="#22007c" d="M 75.652344 42.179688 C 77.113281 40.859375 79.398438 41.097656 80.554688 42.695312 C 81.550781 44.070312 83.429688 44.472656 84.898438 43.617188 C 86.605469 42.628906 88.789062 43.339844 89.585938 45.140625 C 90.277344 46.695312 92.03125 47.476562 93.644531 46.949219 C 95.519531 46.335938 97.507812 47.484375 97.914062 49.414062 C 98.265625 51.078125 99.816406 52.207031 101.507812 52.023438 C 103.46875 51.8125 105.175781 53.351562 105.171875 55.324219 C 105.167969 57.023438 106.449219 58.449219 108.140625 58.625 C 110.101562 58.824219 111.453125 60.683594 111.039062 62.613281 C 110.683594 64.273438 111.640625 65.9375 113.257812 66.457031 C 115.136719 67.0625 116.070312 69.164062 115.265625 70.960938 C 114.570312 72.515625 115.164062 74.339844 116.636719 75.1875 C 118.347656 76.167969 118.824219 78.414062 117.664062 80.007812 C 116.660156 81.382812 116.859375 83.289062 118.125 84.425781 C 119.59375 85.738281 119.59375 88.039062 118.125 89.351562 C 116.859375 90.488281 116.660156 92.394531 117.664062 93.769531 C 118.824219 95.359375 118.347656 97.609375 116.636719 98.589844 C 115.164062 99.4375 114.570312 101.261719 115.265625 102.816406 C 116.070312 104.613281 115.136719 106.710938 113.257812 107.320312 C 111.640625 107.839844 110.683594 109.503906 111.039062 111.164062 C 111.453125 113.09375 110.101562 114.953125 108.140625 115.152344 C 106.449219 115.328125 105.167969 116.753906 105.171875 118.453125 C 105.175781 120.425781 103.46875 121.964844 101.507812 121.753906 C 99.816406 121.570312 98.265625 122.699219 97.914062 124.363281 C 97.511719 126.292969 95.519531 127.441406 93.644531 126.828125 C 92.03125 126.300781 90.277344 127.082031 89.585938 128.636719 C 88.789062 130.4375 86.605469 131.148438 84.898438 130.160156 C 83.425781 129.304688 81.550781 129.703125 80.554688 131.082031 C 79.398438 132.679688 77.117188 132.917969 75.652344 131.597656 C 74.390625 130.457031 72.472656 130.457031 71.210938 131.597656 C 69.75 132.917969 67.464844 132.675781 66.308594 131.082031 C 65.3125 129.703125 63.433594 129.304688 61.964844 130.160156 C 60.257812 131.148438 58.074219 130.4375 57.277344 128.636719 C 56.585938 127.078125 54.832031 126.300781 53.21875 126.828125 C 51.34375 127.441406 49.355469 126.292969 48.949219 124.363281 C 48.597656 122.699219 47.046875 121.570312 45.355469 121.753906 C 43.394531 121.964844 41.6875 120.425781 41.691406 118.453125 C 41.695312 116.753906 40.414062 115.328125 38.722656 115.152344 C 36.761719 114.953125 35.410156 113.09375 35.824219 111.164062 C 36.179688 109.503906 35.222656 107.839844 33.605469 107.320312 C 31.726562 106.714844 30.792969 104.613281 31.597656 102.816406 C 32.292969 101.261719 31.699219 99.4375 30.226562 98.589844 C 28.515625 97.609375 28.039062 95.359375 29.199219 93.769531 C 30.203125 92.394531 30.003906 90.488281 28.738281 89.351562 C 27.269531 88.035156 27.269531 85.738281 28.738281 84.421875 C 30.003906 83.285156 30.203125 81.378906 29.203125 80.003906 C 28.039062 78.410156 28.519531 76.164062 30.226562 75.183594 C 31.703125 74.335938 32.292969 72.511719 31.601562 70.957031 C 30.792969 69.160156 31.730469 67.0625 33.605469 66.453125 C 35.222656 65.933594 36.183594 64.269531 35.824219 62.609375 C 35.410156 60.679688 36.761719 58.820312 38.722656 58.621094 C 40.414062 58.445312 41.699219 57.019531 41.695312 55.320312 C 41.691406 53.347656 43.398438 51.808594 45.359375 52.019531 C 47.050781 52.203125 48.601562 51.074219 48.949219 49.410156 C 49.355469 47.480469 51.347656 46.332031 53.21875 46.945312 C 54.835938 47.472656 56.589844 46.691406 57.277344 45.136719 C 58.074219 43.335938 60.261719 42.625 61.964844 43.613281 C 63.4375 44.46875 65.3125 44.070312 66.308594 42.691406 C 67.464844 41.09375 69.75 40.855469 71.214844 42.175781 C 72.472656 43.320312 74.390625 43.320312 75.652344 42.179688 Z M 75.652344 42.179688 " fill-opacity="1" fill-rule="nonzero"/></g><path fill="#000000" d="M 115.671875 86.886719 C 115.671875 88.269531 115.601562 89.648438 115.464844 91.027344 C 115.332031 92.402344 115.128906 93.769531 114.859375 95.125 C 114.589844 96.484375 114.253906 97.824219 113.851562 99.148438 C 113.449219 100.46875 112.984375 101.773438 112.453125 103.050781 C 111.925781 104.328125 111.335938 105.578125 110.683594 106.796875 C 110.03125 108.015625 109.320312 109.203125 108.550781 110.351562 C 107.78125 111.503906 106.960938 112.613281 106.082031 113.679688 C 105.203125 114.75 104.277344 115.773438 103.296875 116.753906 C 102.320312 117.730469 101.296875 118.660156 100.226562 119.535156 C 99.15625 120.414062 98.046875 121.238281 96.898438 122.003906 C 95.746094 122.773438 94.5625 123.484375 93.34375 124.136719 C 92.121094 124.789062 90.875 125.378906 89.59375 125.910156 C 88.316406 126.4375 87.015625 126.902344 85.691406 127.304688 C 84.367188 127.707031 83.027344 128.042969 81.671875 128.3125 C 80.316406 128.582031 78.949219 128.785156 77.570312 128.921875 C 76.195312 129.054688 74.816406 129.125 73.429688 129.125 C 72.046875 129.125 70.667969 129.054688 69.292969 128.921875 C 67.914062 128.785156 66.546875 128.582031 65.191406 128.3125 C 63.835938 128.042969 62.496094 127.707031 61.171875 127.304688 C 59.847656 126.902344 58.546875 126.4375 57.269531 125.910156 C 55.988281 125.378906 54.742188 124.789062 53.519531 124.136719 C 52.300781 123.484375 51.117188 122.773438 49.964844 122.003906 C 48.816406 121.238281 47.707031 120.414062 46.636719 119.535156 C 45.566406 118.660156 44.542969 117.730469 43.566406 116.753906 C 42.585938 115.773438 41.660156 114.75 40.78125 113.679688 C 39.902344 112.613281 39.082031 111.503906 38.3125 110.351562 C 37.542969 109.203125 36.832031 108.015625 36.179688 106.796875 C 35.527344 105.578125 34.9375 104.328125 34.410156 103.050781 C 33.878906 101.773438 33.414062 100.46875 33.011719 99.148438 C 32.609375 97.824219 32.273438 96.484375 32.003906 95.125 C 31.734375 93.769531 31.53125 92.402344 31.398438 91.027344 C 31.261719 89.648438 31.191406 88.269531 31.191406 86.886719 C 31.191406 85.503906 31.261719 84.121094 31.398438 82.746094 C 31.53125 81.367188 31.734375 80.003906 32.003906 78.644531 C 32.273438 77.289062 32.609375 75.949219 33.011719 74.625 C 33.414062 73.300781 33.878906 72 34.410156 70.722656 C 34.9375 69.445312 35.527344 68.195312 36.179688 66.976562 C 36.832031 65.753906 37.542969 64.570312 38.3125 63.417969 C 39.082031 62.269531 39.902344 61.160156 40.78125 60.089844 C 41.660156 59.019531 42.585938 57.996094 43.566406 57.019531 C 44.542969 56.039062 45.566406 55.113281 46.636719 54.234375 C 47.707031 53.355469 48.816406 52.535156 49.964844 51.765625 C 51.117188 50.996094 52.300781 50.285156 53.519531 49.636719 C 54.742188 48.984375 55.988281 48.390625 57.269531 47.863281 C 58.546875 47.332031 59.847656 46.867188 61.171875 46.464844 C 62.496094 46.066406 63.835938 45.730469 65.191406 45.457031 C 66.546875 45.1875 67.914062 44.984375 69.292969 44.851562 C 70.667969 44.714844 72.046875 44.648438 73.429688 44.648438 C 74.816406 44.648438 76.195312 44.714844 77.570312 44.851562 C 78.949219 44.984375 80.316406 45.1875 81.671875 45.457031 C 83.027344 45.730469 84.367188 46.066406 85.691406 46.464844 C 87.015625 46.867188 88.316406 47.332031 89.59375 47.863281 C 90.875 48.390625 92.121094 48.984375 93.34375 49.636719 C 94.5625 50.285156 95.746094 50.996094 96.898438 51.765625 C 98.046875 52.535156 99.15625 53.355469 100.226562 54.234375 C 101.296875 55.113281 102.320312 56.039062 103.296875 57.019531 C 104.277344 57.996094 105.203125 59.019531 106.082031 60.089844 C 106.960938 61.160156 107.78125 62.269531 108.550781 63.417969 C 109.320312 64.570312 110.03125 65.753906 110.683594 66.976562 C 111.335938 68.195312 111.925781 69.445312 112.453125 70.722656 C 112.984375 72 113.449219 73.300781 113.851562 74.625 C 114.253906 75.949219 114.589844 77.289062 114.859375 78.644531 C 115.128906 80.003906 115.332031 81.367188 115.464844 82.746094 C 115.601562 84.121094 115.671875 85.503906 115.671875 86.886719 Z M 115.671875 86.886719 " fill-opacity="1" fill-rule="nonzero"/><path fill="#22007c" d="M 73.429688 114.066406 C 58.445312 114.066406 46.253906 101.875 46.253906 86.886719 C 46.253906 71.898438 58.445312 59.707031 73.429688 59.707031 C 88.417969 59.707031 100.609375 71.898438 100.609375 86.886719 C 100.609375 101.875 88.417969 114.066406 73.429688 114.066406 Z M 73.429688 62.269531 C 59.859375 62.269531 48.816406 73.3125 48.816406 86.886719 C 48.816406 100.460938 59.859375 111.5 73.429688 111.5 C 87.003906 111.5 98.046875 100.460938 98.046875 86.886719 C 98.046875 73.3125 87.003906 62.269531 73.429688 62.269531 Z M 73.429688 62.269531 " fill-opacity="1" fill-rule="nonzero"/><g clip-path="url(#01c945b727)"><path fill="#22007c" d="M 75.652344 603.59375 C 77.113281 602.273438 79.398438 602.511719 80.554688 604.109375 C 81.550781 605.488281 83.429688 605.886719 84.898438 605.03125 C 86.605469 604.042969 88.789062 604.753906 89.585938 606.554688 C 90.277344 608.113281 92.03125 608.890625 93.644531 608.363281 C 95.519531 607.75 97.507812 608.898438 97.914062 610.828125 C 98.265625 612.492188 99.816406 613.621094 101.507812 613.4375 C 103.46875 613.226562 105.175781 614.765625 105.171875 616.738281 C 105.167969 618.4375 106.449219 619.863281 108.140625 620.039062 C 110.101562 620.238281 111.453125 622.097656 111.039062 624.027344 C 110.683594 625.6875 111.640625 627.351562 113.257812 627.871094 C 115.136719 628.476562 116.070312 630.578125 115.265625 632.375 C 114.570312 633.929688 115.164062 635.753906 116.636719 636.601562 C 118.347656 637.582031 118.824219 639.828125 117.664062 641.421875 C 116.660156 642.796875 116.859375 644.703125 118.125 645.839844 C 119.59375 647.152344 119.59375 649.453125 118.125 650.765625 C 116.859375 651.902344 116.660156 653.808594 117.664062 655.183594 C 118.824219 656.777344 118.347656 659.023438 116.636719 660.003906 C 115.164062 660.851562 114.570312 662.675781 115.265625 664.230469 C 116.070312 666.027344 115.136719 668.125 113.257812 668.734375 C 111.640625 669.253906 110.683594 670.917969 111.039062 672.578125 C 111.453125 674.507812 110.101562 676.367188 108.140625 676.566406 C 106.449219 676.742188 105.167969 678.167969 105.171875 679.867188 C 105.175781 681.839844 103.46875 683.378906 101.507812 683.167969 C 99.816406 682.984375 98.265625 684.113281 97.914062 685.777344 C 97.511719 687.707031 95.519531 688.855469 93.644531 688.242188 C 92.03125 687.714844 90.277344 688.496094 89.585938 690.050781 C 88.789062 691.851562 86.605469 692.5625 84.898438 691.574219 C 83.425781 690.71875 81.550781 691.117188 80.554688 692.496094 C 79.398438 694.09375 77.117188 694.332031 75.652344 693.011719 C 74.390625 691.871094 72.472656 691.871094 71.210938 693.011719 C 69.75 694.332031 67.464844 694.09375 66.308594 692.496094 C 65.3125 691.117188 63.433594 690.71875 61.964844 691.574219 C 60.257812 692.5625 58.074219 691.851562 57.277344 690.050781 C 56.585938 688.496094 54.832031 687.714844 53.21875 688.242188 C 51.34375 688.855469 49.355469 687.707031 48.949219 685.777344 C 48.597656 684.113281 47.046875 682.984375 45.355469 683.167969 C 43.394531 683.378906 41.6875 681.839844 41.691406 679.867188 C 41.695312 678.167969 40.414062 676.742188 38.722656 676.566406 C 36.761719 676.367188 35.410156 674.507812 35.824219 672.578125 C 36.179688 670.917969 35.222656 669.253906 33.605469 668.734375 C 31.726562 668.128906 30.792969 666.027344 31.597656 664.230469 C 32.292969 662.675781 31.699219 660.851562 30.226562 660.003906 C 28.515625 659.023438 28.039062 656.777344 29.199219 655.183594 C 30.203125 653.808594 30.003906 651.902344 28.738281 650.765625 C 27.269531 649.449219 27.269531 647.152344 28.738281 645.835938 C 30.003906 644.699219 30.203125 642.792969 29.203125 641.417969 C 28.039062 639.828125 28.519531 637.578125 30.226562 636.597656 C 31.703125 635.75 32.292969 633.925781 31.601562 632.371094 C 30.792969 630.574219 31.730469 628.476562 33.605469 627.867188 C 35.222656 627.347656 36.183594 625.683594 35.824219 624.023438 C 35.410156 622.09375 36.761719 620.234375 38.722656 620.035156 C 40.414062 619.859375 41.699219 618.433594 41.695312 616.734375 C 41.691406 614.761719 43.398438 613.222656 45.359375 613.433594 C 47.050781 613.617188 48.601562 612.488281 48.949219 610.824219 C 49.355469 608.894531 51.347656 607.746094 53.21875 608.359375 C 54.835938 608.886719 56.589844 608.105469 57.277344 606.550781 C 58.074219 604.75 60.261719 604.039062 61.964844 605.027344 C 63.4375 605.882812 65.3125 605.484375 66.308594 604.105469 C 67.464844 602.507812 69.75 602.269531 71.214844 603.589844 C 72.472656 604.734375 74.390625 604.734375 75.652344 603.59375 Z M 75.652344 603.59375 " fill-opacity="1" fill-rule="nonzero"/></g><path fill="#000000" d="M 115.671875 648.300781 C 115.671875 649.683594 115.601562 651.0625 115.464844 652.441406 C 115.332031 653.816406 115.128906 655.183594 114.859375 656.539062 C 114.589844 657.898438 114.253906 659.238281 113.851562 660.5625 C 113.449219 661.886719 112.984375 663.1875 112.453125 664.464844 C 111.925781 665.742188 111.335938 666.992188 110.683594 668.210938 C 110.03125 669.429688 109.320312 670.617188 108.550781 671.765625 C 107.78125 672.917969 106.960938 674.027344 106.082031 675.097656 C 105.203125 676.164062 104.277344 677.1875 103.296875 678.167969 C 102.320312 679.144531 101.296875 680.074219 100.226562 680.949219 C 99.15625 681.828125 98.046875 682.652344 96.898438 683.421875 C 95.746094 684.1875 94.5625 684.898438 93.34375 685.550781 C 92.121094 686.203125 90.875 686.792969 89.59375 687.324219 C 88.316406 687.851562 87.015625 688.316406 85.691406 688.71875 C 84.367188 689.121094 83.027344 689.457031 81.671875 689.726562 C 80.316406 689.996094 78.949219 690.199219 77.570312 690.335938 C 76.195312 690.46875 74.816406 690.539062 73.429688 690.539062 C 72.046875 690.539062 70.667969 690.46875 69.292969 690.335938 C 67.914062 690.199219 66.546875 689.996094 65.191406 689.726562 C 63.835938 689.457031 62.496094 689.121094 61.171875 688.71875 C 59.847656 688.316406 58.546875 687.851562 57.269531 687.324219 C 55.988281 686.792969 54.742188 686.203125 53.519531 685.550781 C 52.300781 684.898438 51.117188 684.1875 49.964844 683.421875 C 48.816406 682.652344 47.707031 681.828125 46.636719 680.949219 C 45.566406 680.074219 44.542969 679.144531 43.566406 678.167969 C 42.585938 677.1875 41.660156 676.164062 40.78125 675.097656 C 39.902344 674.027344 39.082031 672.917969 38.3125 671.765625 C 37.542969 670.617188 36.832031 669.429688 36.179688 668.210938 C 35.527344 666.992188 34.9375 665.742188 34.410156 664.464844 C 33.878906 663.1875 33.414062 661.886719 33.011719 660.5625 C 32.609375 659.238281 32.273438 657.898438 32.003906 656.539062 C 31.734375 655.183594 31.53125 653.816406 31.398438 652.441406 C 31.261719 651.0625 31.191406 649.683594 31.191406 648.300781 C 31.191406 646.917969 31.261719 645.535156 31.398438 644.160156 C 31.53125 642.785156 31.734375 641.417969 32.003906 640.058594 C 32.273438 638.703125 32.609375 637.363281 33.011719 636.039062 C 33.414062 634.714844 33.878906 633.414062 34.410156 632.136719 C 34.9375 630.859375 35.527344 629.609375 36.179688 628.390625 C 36.832031 627.167969 37.542969 625.984375 38.3125 624.832031 C 39.082031 623.683594 39.902344 622.574219 40.78125 621.503906 C 41.660156 620.433594 42.585938 619.410156 43.566406 618.433594 C 44.542969 617.453125 45.566406 616.527344 46.636719 615.648438 C 47.707031 614.773438 48.816406 613.949219 49.964844 613.179688 C 51.117188 612.410156 52.300781 611.703125 53.519531 611.050781 C 54.742188 610.398438 55.988281 609.804688 57.269531 609.277344 C 58.546875 608.746094 59.847656 608.28125 61.171875 607.878906 C 62.496094 607.480469 63.835938 607.144531 65.191406 606.875 C 66.546875 606.601562 67.914062 606.402344 69.292969 606.265625 C 70.667969 606.128906 72.046875 606.0625 73.429688 606.0625 C 74.816406 606.0625 76.195312 606.128906 77.570312 606.265625 C 78.949219 606.402344 80.316406 606.601562 81.671875 606.875 C 83.027344 607.144531 84.367188 607.480469 85.691406 607.878906 C 87.015625 608.28125 88.316406 608.746094 89.59375 609.277344 C 90.875 609.804688 92.121094 610.398438 93.34375 611.050781 C 94.5625 611.703125 95.746094 612.410156 96.898438 613.179688 C 98.046875 613.949219 99.15625 614.773438 100.226562 615.648438 C 101.296875 616.527344 102.320312 617.453125 103.296875 618.433594 C 104.277344 619.410156 105.203125 620.433594 106.082031 621.503906 C 106.960938 622.574219 107.78125 623.683594 108.550781 624.832031 C 109.320312 625.984375 110.03125 627.167969 110.683594 628.390625 C 111.335938 629.609375 111.925781 630.859375 112.453125 632.136719 C 112.984375 633.414062 113.449219 634.714844 113.851562 636.039062 C 114.253906 637.363281 114.589844 638.703125 114.859375 640.058594 C 115.128906 641.417969 115.332031 642.785156 115.464844 644.160156 C 115.601562 645.535156 115.671875 646.917969 115.671875 648.300781 Z M 115.671875 648.300781 " fill-opacity="1" fill-rule="nonzero"/><path fill="#22007c" d="M 73.429688 675.480469 C 58.445312 675.480469 46.253906 663.289062 46.253906 648.300781 C 46.253906 633.3125 58.445312 621.121094 73.429688 621.121094 C 88.417969 621.121094 100.609375 633.3125 100.609375 648.300781 C 100.609375 663.289062 88.417969 675.480469 73.429688 675.480469 Z M 73.429688 623.683594 C 59.859375 623.683594 48.816406 634.726562 48.816406 648.300781 C 48.816406 661.875 59.859375 672.914062 73.429688 672.914062 C 87.003906 672.914062 98.046875 661.875 98.046875 648.300781 C 98.046875 634.726562 87.003906 623.683594 73.429688 623.683594 Z M 73.429688 623.683594 " fill-opacity="1" fill-rule="nonzero"/><g transform="matrix(1, 0, 0, 1, 480, 503)"><g clip-path="url(#63f5c7e3fe)"><g fill="#22007c" fill-opacity="1"><g transform="translate(1.390048, 118.553287)"><g><path d="M 41.375 1.390625 C 36.039062 1.390625 31.171875 0.503906 26.765625 -1.265625 C 22.367188 -3.046875 18.625 -5.691406 15.53125 -9.203125 C 12.4375 -12.722656 10.039062 -17.085938 8.34375 -22.296875 C 6.644531 -27.515625 5.796875 -33.566406 5.796875 -40.453125 C 5.796875 -47.328125 6.644531 -53.367188 8.34375 -58.578125 C 10.039062 -63.796875 12.4375 -68.160156 15.53125 -71.671875 C 18.625 -75.191406 22.367188 -77.835938 26.765625 -79.609375 C 31.171875 -81.390625 36.039062 -82.28125 41.375 -82.28125 C 46.707031 -82.28125 51.570312 -81.390625 55.96875 -79.609375 C 60.375 -77.835938 64.125 -75.191406 67.21875 -71.671875 C 70.3125 -68.160156 72.707031 -63.796875 74.40625 -58.578125 C 76.101562 -53.367188 76.953125 -47.328125 76.953125 -40.453125 C 76.953125 -33.566406 76.101562 -27.515625 74.40625 -22.296875 C 72.707031 -17.085938 70.3125 -12.722656 67.21875 -9.203125 C 64.125 -5.691406 60.375 -3.046875 55.96875 -1.265625 C 51.570312 0.503906 46.707031 1.390625 41.375 1.390625 Z M 41.375 -14.25 C 46.707031 -14.25 50.859375 -15.988281 53.828125 -19.46875 C 56.804688 -22.945312 58.296875 -27.929688 58.296875 -34.421875 L 58.296875 -46.46875 C 58.296875 -52.957031 56.804688 -57.941406 53.828125 -61.421875 C 50.859375 -64.898438 46.707031 -66.640625 41.375 -66.640625 C 36.039062 -66.640625 31.882812 -64.898438 28.90625 -61.421875 C 25.9375 -57.941406 24.453125 -52.957031 24.453125 -46.46875 L 24.453125 -34.421875 C 24.453125 -27.929688 25.9375 -22.945312 28.90625 -19.46875 C 31.882812 -15.988281 36.039062 -14.25 41.375 -14.25 Z M 28.625 -88.1875 C 25.144531 -88.1875 22.726562 -88.898438 21.375 -90.328125 C 20.03125 -91.765625 19.359375 -93.488281 19.359375 -95.5 L 19.359375 -98.390625 C 19.359375 -100.398438 20.03125 -102.117188 21.375 -103.546875 C 22.726562 -104.972656 25.144531 -105.6875 28.625 -105.6875 C 32.101562 -105.6875 34.519531 -104.972656 35.875 -103.546875 C 37.226562 -102.117188 37.90625 -100.398438 37.90625 -98.390625 L 37.90625 -95.5 C 37.90625 -93.488281 37.226562 -91.765625 35.875 -90.328125 C 34.519531 -88.898438 32.101562 -88.1875 28.625 -88.1875 Z M 54.125 -88.1875 C 50.644531 -88.1875 48.226562 -88.898438 46.875 -90.328125 C 45.53125 -91.765625 44.859375 -93.488281 44.859375 -95.5 L 44.859375 -98.390625 C 44.859375 -100.398438 45.53125 -102.117188 46.875 -103.546875 C 48.226562 -104.972656 50.644531 -105.6875 54.125 -105.6875 C 57.601562 -105.6875 60.015625 -104.972656 61.359375 -103.546875 C 62.710938 -102.117188 63.390625 -100.398438 63.390625 -98.390625 L 63.390625 -95.5 C 63.390625 -93.488281 62.710938 -91.765625 61.359375 -90.328125 C 60.015625 -88.898438 57.601562 -88.1875 54.125 -88.1875 Z M 54.125 -88.1875 "/></g></g></g><g fill="#22007c" fill-opacity="1"><g transform="translate(153.654461, 118.553287)"><g><path d="M 57.359375 -33.140625 L 26.53125 -33.140625 L 26.53125 0 L 8.921875 0 L 8.921875 -80.890625 L 26.53125 -80.890625 L 26.53125 -48.671875 L 57.359375 -48.671875 L 57.359375 -80.890625 L 74.984375 -80.890625 L 74.984375 0 L 57.359375 0 Z M 57.359375 -33.140625 "/></g></g></g><g fill="#22007c" fill-opacity="1"><g transform="translate(307.077599, 118.553287)"><g><path d="M 26.53125 0 L 8.921875 0 L 8.921875 -80.890625 L 47.28125 -80.890625 C 50.988281 -80.890625 54.347656 -80.269531 57.359375 -79.03125 C 60.378906 -77.800781 62.953125 -76.046875 65.078125 -73.765625 C 67.203125 -71.484375 68.84375 -68.757812 70 -65.59375 C 71.15625 -62.425781 71.734375 -58.910156 71.734375 -55.046875 C 71.734375 -49.554688 70.515625 -44.765625 68.078125 -40.671875 C 65.648438 -36.578125 61.960938 -33.601562 57.015625 -31.75 L 72.890625 0 L 53.3125 0 L 39.171875 -29.671875 L 26.53125 -29.671875 Z M 45.078125 -44.5 C 47.703125 -44.5 49.769531 -45.175781 51.28125 -46.53125 C 52.789062 -47.882812 53.546875 -49.875 53.546875 -52.5 L 53.546875 -57.59375 C 53.546875 -60.21875 52.789062 -62.207031 51.28125 -63.5625 C 49.769531 -64.914062 47.703125 -65.59375 45.078125 -65.59375 L 26.53125 -65.59375 L 26.53125 -44.5 Z M 45.078125 -44.5 "/></g></g></g><g fill="#22007c" fill-opacity="1"><g transform="translate(454.707095, 118.553287)"><g><path d="M 33.609375 -38.25 L 25.84375 -54.46875 L 25.5 -54.46875 L 25.5 0 L 8.921875 0 L 8.921875 -80.890625 L 28.15625 -80.890625 L 50.296875 -42.640625 L 58.0625 -26.421875 L 58.40625 -26.421875 L 58.40625 -80.890625 L 74.984375 -80.890625 L 74.984375 0 L 55.75 0 Z M 33.609375 -38.25 "/></g></g></g></g></g></svg>