<svg xmlns="http://www.w3.org/2000/svg" xmlns:xlink="http://www.w3.org/1999/xlink" width="500" zoomAndPan="magnify" viewBox="0 0 375 374.999991" height="500" preserveAspectRatio="xMidYMid meet" version="1.0"><defs><g/></defs><g fill="#ff3131" fill-opacity="1"><g transform="translate(23.329333, 205.734361)"><g><path d="M 3.234375 -25.140625 C 3.234375 -28.492188 3.78125 -31.582031 4.875 -34.40625 C 5.976562 -37.226562 7.671875 -39.476562 9.953125 -41.15625 C 12.234375 -42.832031 15.179688 -43.671875 18.796875 -43.671875 C 21.679688 -43.671875 24.191406 -42.9375 26.328125 -41.46875 C 28.460938 -40.007812 30.238281 -38.050781 31.65625 -35.59375 C 33.082031 -33.144531 34.148438 -30.390625 34.859375 -27.328125 C 35.566406 -24.273438 35.921875 -21.15625 35.921875 -17.96875 C 35.921875 -15.9375 35.597656 -13.851562 34.953125 -11.71875 C 34.304688 -9.59375 33.335938 -7.613281 32.046875 -5.78125 C 30.753906 -3.945312 29.191406 -2.46875 27.359375 -1.34375 C 25.523438 -0.226562 23.40625 0.328125 21 0.328125 C 18.675781 0.328125 16.566406 -0.21875 14.671875 -1.3125 C 12.773438 -2.414062 11.113281 -3.882812 9.6875 -5.71875 C 8.269531 -7.550781 7.078125 -9.585938 6.109375 -11.828125 C 5.140625 -14.066406 4.414062 -16.335938 3.9375 -18.640625 C 3.46875 -20.941406 3.234375 -23.109375 3.234375 -25.140625 Z M 20.609375 -9.109375 C 21.984375 -9.109375 23.144531 -9.515625 24.09375 -10.328125 C 25.039062 -11.148438 25.757812 -12.238281 26.25 -13.59375 C 26.75 -14.957031 27 -16.390625 27 -17.890625 C 27 -18.929688 26.898438 -20.160156 26.703125 -21.578125 C 26.515625 -23.003906 26.207031 -24.46875 25.78125 -25.96875 C 25.351562 -27.476562 24.800781 -28.878906 24.125 -30.171875 C 23.457031 -31.460938 22.648438 -32.503906 21.703125 -33.296875 C 20.753906 -34.097656 19.679688 -34.5 18.484375 -34.5 C 16.285156 -34.5 14.675781 -33.625 13.65625 -31.875 C 12.644531 -30.132812 12.140625 -28.0625 12.140625 -25.65625 C 12.140625 -24.914062 12.238281 -23.890625 12.4375 -22.578125 C 12.632812 -21.265625 12.9375 -19.832031 13.34375 -18.28125 C 13.75 -16.726562 14.273438 -15.253906 14.921875 -13.859375 C 15.566406 -12.460938 16.363281 -11.320312 17.3125 -10.4375 C 18.257812 -9.550781 19.359375 -9.109375 20.609375 -9.109375 Z M 20.609375 -9.109375 "/></g></g></g><g fill="#ff3131" fill-opacity="1"><g transform="translate(62.47309, 205.734361)"><g><path d="M 14.15625 -6.203125 C 14.101562 -4.523438 13.613281 -3.265625 12.6875 -2.421875 C 11.769531 -1.578125 10.769531 -1.15625 9.6875 -1.15625 C 8.65625 -1.15625 7.695312 -1.539062 6.8125 -2.3125 C 5.925781 -3.09375 5.378906 -4.28125 5.171875 -5.875 C 5.253906 -8.800781 5.390625 -11.3125 5.578125 -13.40625 C 5.773438 -15.5 5.96875 -17.457031 6.15625 -19.28125 C 6.351562 -21.113281 6.523438 -23.070312 6.671875 -25.15625 C 6.828125 -27.25 6.90625 -29.757812 6.90625 -32.6875 C 6.90625 -33.425781 6.875 -34.222656 6.8125 -35.078125 C 6.75 -35.941406 6.71875 -36.71875 6.71875 -37.40625 C 6.71875 -38.09375 6.847656 -38.890625 7.109375 -39.796875 C 7.367188 -40.703125 7.84375 -41.507812 8.53125 -42.21875 C 9.21875 -42.925781 10.207031 -43.28125 11.5 -43.28125 C 12.0625 -43.28125 12.726562 -43.15625 13.5 -42.90625 C 14.019531 -42.601562 14.675781 -42.039062 15.46875 -41.21875 C 16.269531 -40.40625 17.117188 -39.488281 18.015625 -38.46875 C 18.921875 -37.457031 19.816406 -36.46875 20.703125 -35.5 C 21.585938 -34.53125 22.382812 -33.722656 23.09375 -33.078125 C 23.800781 -32.429688 24.332031 -32.109375 24.6875 -32.109375 C 25.84375 -33.535156 27.054688 -34.957031 28.328125 -36.375 C 29.597656 -37.789062 30.972656 -39.082031 32.453125 -40.25 C 33.941406 -41.414062 35.570312 -42.253906 37.34375 -42.765625 C 38.550781 -42.765625 39.550781 -42.582031 40.34375 -42.21875 C 41.144531 -41.851562 41.738281 -41.128906 42.125 -40.046875 C 42.507812 -38.972656 42.703125 -37.363281 42.703125 -35.21875 C 42.703125 -31.851562 42.613281 -28.359375 42.4375 -24.734375 C 42.269531 -21.117188 42.078125 -17.546875 41.859375 -14.015625 C 41.648438 -10.484375 41.457031 -7.191406 41.28125 -4.140625 C 41.238281 -2.453125 40.742188 -1.1875 39.796875 -0.34375 C 38.847656 0.488281 37.859375 0.90625 36.828125 0.90625 C 35.796875 0.90625 34.835938 0.519531 33.953125 -0.25 C 33.066406 -1.03125 32.515625 -2.21875 32.296875 -3.8125 C 32.347656 -6.695312 32.414062 -9.363281 32.5 -11.8125 C 32.582031 -14.269531 32.695312 -16.726562 32.84375 -19.1875 C 33 -21.644531 33.164062 -24.296875 33.34375 -27.140625 L 33.40625 -28.234375 C 32.320312 -26.859375 31.175781 -25.578125 29.96875 -24.390625 C 28.769531 -23.203125 27.304688 -22.609375 25.578125 -22.609375 C 23.734375 -22.609375 21.96875 -23.132812 20.28125 -24.1875 C 18.601562 -25.25 17.078125 -26.445312 15.703125 -27.78125 C 15.617188 -25.28125 15.5 -23.203125 15.34375 -21.546875 C 15.195312 -19.890625 15.046875 -18.367188 14.890625 -16.984375 C 14.742188 -15.609375 14.601562 -14.101562 14.46875 -12.46875 C 14.34375 -10.832031 14.238281 -8.742188 14.15625 -6.203125 Z M 14.15625 -6.203125 "/></g></g></g><g fill="#ff3131" fill-opacity="1"><g transform="translate(110.336995, 205.734361)"><g><path d="M 24.03125 -9.046875 C 23.90625 -6.804688 23.257812 -4.648438 22.09375 -2.578125 C 20.9375 -0.515625 19.441406 1.160156 17.609375 2.453125 C 15.773438 3.742188 13.78125 4.390625 11.625 4.390625 C 10.164062 4.390625 8.914062 4 7.875 3.21875 C 6.84375 2.445312 6.328125 1.375 6.328125 0 C 6.328125 -0.988281 6.671875 -2.117188 7.359375 -3.390625 C 8.054688 -4.660156 8.921875 -5.554688 9.953125 -6.078125 C 11.460938 -6.804688 12.582031 -7.554688 13.3125 -8.328125 C 14.039062 -9.109375 14.40625 -10.101562 14.40625 -11.3125 C 14.40625 -12.425781 14.050781 -13.648438 13.34375 -14.984375 C 12.632812 -16.328125 11.738281 -17.617188 10.65625 -18.859375 C 9.582031 -20.109375 8.460938 -21.1875 7.296875 -22.09375 C 5.660156 -23.601562 4.460938 -24.992188 3.703125 -26.265625 C 2.953125 -27.535156 2.578125 -28.773438 2.578125 -29.984375 C 2.578125 -31.578125 3.132812 -33.414062 4.25 -35.5 C 5.375 -37.59375 6.894531 -39.671875 8.8125 -41.734375 C 10.726562 -43.804688 12.945312 -45.660156 15.46875 -47.296875 C 17.988281 -48.929688 20.628906 -50.09375 23.390625 -50.78125 C 23.691406 -50.957031 23.96875 -51.117188 24.21875 -51.265625 C 24.476562 -51.421875 24.847656 -51.5 25.328125 -51.5 C 26.441406 -51.5 27.460938 -51.269531 28.390625 -50.8125 C 29.316406 -50.363281 30.0625 -49.828125 30.625 -49.203125 C 31.1875 -48.578125 31.46875 -47.984375 31.46875 -47.421875 C 31.46875 -46.347656 31.046875 -45.570312 30.203125 -45.09375 C 29.359375 -44.625 28.550781 -44.21875 27.78125 -43.875 C 25.664062 -43.007812 23.679688 -41.972656 21.828125 -40.765625 C 19.984375 -39.554688 18.113281 -38.394531 16.21875 -37.28125 C 15.09375 -36.59375 14.003906 -35.632812 12.953125 -34.40625 C 11.898438 -33.175781 11.375 -31.894531 11.375 -30.5625 C 11.375 -30 11.515625 -29.414062 11.796875 -28.8125 C 12.078125 -28.207031 12.539062 -27.648438 13.1875 -27.140625 C 14.988281 -25.671875 16.71875 -24.007812 18.375 -22.15625 C 20.039062 -20.300781 21.410156 -18.34375 22.484375 -16.28125 C 23.554688 -14.21875 24.09375 -12.128906 24.09375 -10.015625 C 24.09375 -9.835938 24.082031 -9.671875 24.0625 -9.515625 C 24.039062 -9.367188 24.03125 -9.210938 24.03125 -9.046875 Z M 24.03125 -9.046875 "/></g></g></g><g fill="#ff3131" fill-opacity="1"><g transform="translate(137.918491, 205.734361)"><g><path d="M 15.703125 -43.21875 C 18.148438 -43.21875 20.441406 -42.644531 22.578125 -41.5 C 24.710938 -40.363281 26.425781 -38.835938 27.71875 -36.921875 C 29.007812 -35.003906 29.65625 -32.90625 29.65625 -30.625 C 29.65625 -28.90625 29.203125 -27.289062 28.296875 -25.78125 C 27.390625 -24.269531 26.238281 -22.972656 24.84375 -21.890625 C 23.445312 -20.816406 22.035156 -20.003906 20.609375 -19.453125 C 18.753906 -18.753906 17.453125 -17.890625 16.703125 -16.859375 C 15.953125 -15.828125 15.578125 -14.453125 15.578125 -12.734375 C 15.578125 -11.179688 15.617188 -9.570312 15.703125 -7.90625 C 15.785156 -6.25 15.828125 -4.625 15.828125 -3.03125 C 15.828125 -2.082031 15.578125 -1.359375 15.078125 -0.859375 C 14.585938 -0.367188 13.976562 -0.125 13.25 -0.125 C 12.382812 -0.125 11.421875 -0.414062 10.359375 -1 C 9.304688 -1.582031 8.40625 -2.378906 7.65625 -3.390625 C 6.90625 -4.398438 6.53125 -5.507812 6.53125 -6.71875 C 6.53125 -8.3125 6.582031 -9.894531 6.6875 -11.46875 C 6.789062 -13.039062 6.84375 -14.625 6.84375 -16.21875 C 6.84375 -18.582031 6.5625 -21.015625 6 -23.515625 C 5.445312 -26.015625 5.171875 -28.492188 5.171875 -30.953125 C 5.171875 -33.148438 5.585938 -35.179688 6.421875 -37.046875 C 7.265625 -38.921875 8.472656 -40.414062 10.046875 -41.53125 C 11.617188 -42.65625 13.503906 -43.21875 15.703125 -43.21875 Z M 15.703125 -43.21875 "/></g></g></g><g fill="#ff3131" fill-opacity="1"><g transform="translate(168.858845, 205.734361)"><g><path d="M 16.546875 -12.140625 C 15.941406 -12.234375 15.378906 -12.375 14.859375 -12.5625 C 14.335938 -12.757812 13.882812 -13.007812 13.5 -13.3125 C 13.414062 -12.0625 13.316406 -11.078125 13.203125 -10.359375 C 13.097656 -9.648438 13.015625 -8.929688 12.953125 -8.203125 C 12.890625 -7.472656 12.859375 -6.484375 12.859375 -5.234375 C 12.816406 -3.554688 12.332031 -2.296875 11.40625 -1.453125 C 10.476562 -0.609375 9.476562 -0.1875 8.40625 -0.1875 C 7.363281 -0.1875 6.398438 -0.570312 5.515625 -1.34375 C 4.640625 -2.125 4.09375 -3.3125 3.875 -4.90625 C 3.875 -10.289062 4.269531 -15.46875 5.0625 -20.4375 C 5.863281 -25.414062 6.71875 -29.992188 7.625 -34.171875 C 8.050781 -36.203125 8.578125 -38.066406 9.203125 -39.765625 C 9.828125 -41.460938 10.804688 -42.828125 12.140625 -43.859375 C 13.484375 -44.898438 15.425781 -45.421875 17.96875 -45.421875 C 18.476562 -45.421875 18.976562 -45.3125 19.46875 -45.09375 C 19.96875 -44.882812 20.5 -44.5625 21.0625 -44.125 C 23 -42.1875 24.734375 -39.726562 26.265625 -36.75 C 27.796875 -33.78125 29.128906 -30.59375 30.265625 -27.1875 C 31.410156 -23.789062 32.378906 -20.429688 33.171875 -17.109375 C 33.972656 -13.796875 34.609375 -10.828125 35.078125 -8.203125 L 35.859375 -6.390625 C 36.078125 -5.617188 36.1875 -4.972656 36.1875 -4.453125 C 36.1875 -3.117188 35.765625 -2.039062 34.921875 -1.21875 C 34.078125 -0.40625 33.097656 0 31.984375 0 C 30.648438 0 29.601562 -0.40625 28.84375 -1.21875 C 28.09375 -2.039062 27.519531 -3.054688 27.125 -4.265625 C 26.738281 -5.472656 26.425781 -6.675781 26.1875 -7.875 C 25.957031 -9.082031 25.710938 -10.09375 25.453125 -10.90625 C 25.191406 -11.726562 24.785156 -12.140625 24.234375 -12.140625 C 24.179688 -12.140625 24.132812 -12.140625 24.09375 -12.140625 C 24.050781 -12.140625 24.007812 -12.140625 23.96875 -12.140625 Z M 17.515625 -34.625 C 17.078125 -33.25 16.535156 -31.753906 15.890625 -30.140625 C 15.242188 -28.523438 14.921875 -26.789062 14.921875 -24.9375 C 14.921875 -23.726562 15.039062 -22.789062 15.28125 -22.125 C 15.519531 -21.457031 16.046875 -21.125 16.859375 -21.125 L 22.03125 -21.125 C 22.507812 -21.125 22.75 -21.316406 22.75 -21.703125 C 22.75 -21.878906 22.722656 -22.039062 22.671875 -22.1875 C 22.628906 -22.34375 22.585938 -22.503906 22.546875 -22.671875 C 21.898438 -24.828125 21.175781 -26.796875 20.375 -28.578125 C 19.582031 -30.367188 18.628906 -32.382812 17.515625 -34.625 Z M 17.515625 -34.625 "/></g></g></g><g fill="#ff3131" fill-opacity="1"><g transform="translate(206.323188, 205.734361)"><g><path d="M 15.375 -2.96875 C 14.90625 -1.757812 14.25 -0.863281 13.40625 -0.28125 C 12.5625 0.289062 11.710938 0.578125 10.859375 0.578125 C 9.773438 0.578125 8.789062 0.171875 7.90625 -0.640625 C 7.03125 -1.460938 6.59375 -2.582031 6.59375 -4 C 6.59375 -5.164062 6.71875 -6.394531 6.96875 -7.6875 C 7.226562 -8.976562 7.359375 -10.25 7.359375 -11.5 C 7.359375 -14.164062 7.175781 -16.671875 6.8125 -19.015625 C 6.445312 -21.367188 6.082031 -23.738281 5.71875 -26.125 C 5.351562 -28.519531 5.171875 -31.117188 5.171875 -33.921875 C 5.171875 -34.867188 5.253906 -35.910156 5.421875 -37.046875 C 5.597656 -38.191406 5.910156 -39.289062 6.359375 -40.34375 C 6.816406 -41.40625 7.441406 -42.269531 8.234375 -42.9375 C 9.035156 -43.601562 10.035156 -43.9375 11.234375 -43.9375 C 12.617188 -43.9375 13.773438 -43.515625 14.703125 -42.671875 C 15.628906 -41.835938 16.4375 -40.828125 17.125 -39.640625 C 17.8125 -38.453125 18.457031 -37.34375 19.0625 -36.3125 C 20.476562 -33.9375 21.703125 -31.628906 22.734375 -29.390625 C 23.773438 -27.148438 24.78125 -24.898438 25.75 -22.640625 C 26.71875 -20.378906 27.804688 -18.046875 29.015625 -15.640625 C 29.222656 -15.160156 29.425781 -14.820312 29.625 -14.625 C 29.820312 -14.4375 29.941406 -14.34375 29.984375 -14.34375 C 30.109375 -14.34375 30.171875 -14.515625 30.171875 -14.859375 C 30.171875 -15.035156 30.160156 -15.195312 30.140625 -15.34375 C 30.117188 -15.5 30.109375 -15.660156 30.109375 -15.828125 C 29.585938 -19.878906 28.984375 -23.820312 28.296875 -27.65625 C 27.609375 -31.488281 27.113281 -35.625 26.8125 -40.0625 C 27.15625 -41.476562 27.757812 -42.550781 28.625 -43.28125 C 29.488281 -44.019531 30.390625 -44.390625 31.328125 -44.390625 C 32.234375 -44.390625 33.109375 -44.066406 33.953125 -43.421875 C 34.796875 -42.773438 35.410156 -41.757812 35.796875 -40.375 C 36.054688 -36.71875 36.5625 -33.078125 37.3125 -29.453125 C 38.0625 -25.835938 38.757812 -22.328125 39.40625 -18.921875 C 40.050781 -15.523438 40.375 -12.316406 40.375 -9.296875 C 40.375 -6.410156 39.71875 -4.050781 38.40625 -2.21875 C 37.09375 -0.394531 35.101562 0.515625 32.4375 0.515625 C 31.007812 0.515625 29.671875 -0.03125 28.421875 -1.125 C 27.171875 -2.226562 26.007812 -3.679688 24.9375 -5.484375 C 23.863281 -7.296875 22.832031 -9.28125 21.84375 -11.4375 C 20.851562 -13.59375 19.894531 -15.742188 18.96875 -17.890625 C 18.039062 -20.046875 17.125 -21.988281 16.21875 -23.71875 C 16.039062 -24.007812 15.851562 -24.296875 15.65625 -24.578125 C 15.46875 -24.859375 15.332031 -25 15.25 -25 C 15.070312 -25 14.984375 -24.785156 14.984375 -24.359375 C 14.984375 -24.222656 14.992188 -24.054688 15.015625 -23.859375 C 15.035156 -23.671875 15.070312 -23.445312 15.125 -23.1875 C 15.375 -21.207031 15.628906 -19.3125 15.890625 -17.5 C 16.148438 -15.695312 16.28125 -13.675781 16.28125 -11.4375 C 16.28125 -10.007812 16.210938 -8.585938 16.078125 -7.171875 C 15.953125 -5.753906 15.71875 -4.351562 15.375 -2.96875 Z M 15.375 -2.96875 "/></g></g></g><g fill="#ff3131" fill-opacity="1"><g transform="translate(249.923923, 205.734361)"><g><path d="M 24.03125 -9.046875 C 23.90625 -6.804688 23.257812 -4.648438 22.09375 -2.578125 C 20.9375 -0.515625 19.441406 1.160156 17.609375 2.453125 C 15.773438 3.742188 13.78125 4.390625 11.625 4.390625 C 10.164062 4.390625 8.914062 4 7.875 3.21875 C 6.84375 2.445312 6.328125 1.375 6.328125 0 C 6.328125 -0.988281 6.671875 -2.117188 7.359375 -3.390625 C 8.054688 -4.660156 8.921875 -5.554688 9.953125 -6.078125 C 11.460938 -6.804688 12.582031 -7.554688 13.3125 -8.328125 C 14.039062 -9.109375 14.40625 -10.101562 14.40625 -11.3125 C 14.40625 -12.425781 14.050781 -13.648438 13.34375 -14.984375 C 12.632812 -16.328125 11.738281 -17.617188 10.65625 -18.859375 C 9.582031 -20.109375 8.460938 -21.1875 7.296875 -22.09375 C 5.660156 -23.601562 4.460938 -24.992188 3.703125 -26.265625 C 2.953125 -27.535156 2.578125 -28.773438 2.578125 -29.984375 C 2.578125 -31.578125 3.132812 -33.414062 4.25 -35.5 C 5.375 -37.59375 6.894531 -39.671875 8.8125 -41.734375 C 10.726562 -43.804688 12.945312 -45.660156 15.46875 -47.296875 C 17.988281 -48.929688 20.628906 -50.09375 23.390625 -50.78125 C 23.691406 -50.957031 23.96875 -51.117188 24.21875 -51.265625 C 24.476562 -51.421875 24.847656 -51.5 25.328125 -51.5 C 26.441406 -51.5 27.460938 -51.269531 28.390625 -50.8125 C 29.316406 -50.363281 30.0625 -49.828125 30.625 -49.203125 C 31.1875 -48.578125 31.46875 -47.984375 31.46875 -47.421875 C 31.46875 -46.347656 31.046875 -45.570312 30.203125 -45.09375 C 29.359375 -44.625 28.550781 -44.21875 27.78125 -43.875 C 25.664062 -43.007812 23.679688 -41.972656 21.828125 -40.765625 C 19.984375 -39.554688 18.113281 -38.394531 16.21875 -37.28125 C 15.09375 -36.59375 14.003906 -35.632812 12.953125 -34.40625 C 11.898438 -33.175781 11.375 -31.894531 11.375 -30.5625 C 11.375 -30 11.515625 -29.414062 11.796875 -28.8125 C 12.078125 -28.207031 12.539062 -27.648438 13.1875 -27.140625 C 14.988281 -25.671875 16.71875 -24.007812 18.375 -22.15625 C 20.039062 -20.300781 21.410156 -18.34375 22.484375 -16.28125 C 23.554688 -14.21875 24.09375 -12.128906 24.09375 -10.015625 C 24.09375 -9.835938 24.082031 -9.671875 24.0625 -9.515625 C 24.039062 -9.367188 24.03125 -9.210938 24.03125 -9.046875 Z M 24.03125 -9.046875 "/></g></g></g><g fill="#ff3131" fill-opacity="1"><g transform="translate(277.505405, 205.734361)"><g><path d="M 5.5625 -40.3125 C 5.90625 -41.738281 6.503906 -42.816406 7.359375 -43.546875 C 8.222656 -44.273438 9.128906 -44.640625 10.078125 -44.640625 C 10.984375 -44.640625 11.851562 -44.316406 12.6875 -43.671875 C 13.53125 -43.023438 14.144531 -42.015625 14.53125 -40.640625 C 14.53125 -39.648438 14.53125 -38.644531 14.53125 -37.625 C 14.53125 -36.613281 14.53125 -35.613281 14.53125 -34.625 C 14.53125 -33.164062 14.539062 -31.691406 14.5625 -30.203125 C 14.59375 -28.710938 14.628906 -27.21875 14.671875 -25.71875 C 15.484375 -27.175781 16.332031 -28.722656 17.21875 -30.359375 C 18.101562 -32.003906 18.898438 -33.644531 19.609375 -35.28125 C 20.316406 -36.914062 20.78125 -38.421875 21 -39.796875 C 21.34375 -41.265625 21.953125 -42.351562 22.828125 -43.0625 C 23.710938 -43.769531 24.628906 -44.125 25.578125 -44.125 C 26.742188 -44.125 27.757812 -43.648438 28.625 -42.703125 C 29.488281 -41.753906 29.921875 -40.398438 29.921875 -38.640625 C 29.566406 -36.441406 28.90625 -34.273438 27.9375 -32.140625 C 26.96875 -30.003906 25.96875 -27.925781 24.9375 -25.90625 C 25.539062 -24.957031 26.132812 -23.65625 26.71875 -22 C 27.300781 -20.34375 27.945312 -18.617188 28.65625 -16.828125 C 29.363281 -15.046875 30.171875 -13.410156 31.078125 -11.921875 C 31.984375 -10.429688 33.015625 -9.382812 34.171875 -8.78125 C 35.035156 -8.175781 35.671875 -7.5 36.078125 -6.75 C 36.492188 -6 36.703125 -5.253906 36.703125 -4.515625 C 36.703125 -3.398438 36.269531 -2.421875 35.40625 -1.578125 C 34.539062 -0.742188 33.359375 -0.328125 31.859375 -0.328125 C 30.515625 -0.328125 29.25 -0.820312 28.0625 -1.8125 C 26.882812 -2.800781 25.789062 -4.113281 24.78125 -5.75 C 23.769531 -7.382812 22.820312 -9.191406 21.9375 -11.171875 C 21.050781 -13.160156 20.242188 -15.125 19.515625 -17.0625 C 18.648438 -16.113281 17.613281 -15.640625 16.40625 -15.640625 C 16.101562 -15.640625 15.867188 -15.660156 15.703125 -15.703125 C 15.828125 -14.234375 16 -12.863281 16.21875 -11.59375 C 16.4375 -10.320312 16.617188 -9.03125 16.765625 -7.71875 C 16.921875 -6.40625 17 -4.910156 17 -3.234375 C 17 -2.148438 16.585938 -1.195312 15.765625 -0.375 C 14.941406 0.4375 13.882812 0.84375 12.59375 0.84375 C 11.039062 0.84375 9.898438 0.445312 9.171875 -0.34375 C 8.441406 -1.144531 7.96875 -2.160156 7.75 -3.390625 C 7.539062 -4.617188 7.4375 -5.835938 7.4375 -7.046875 C 7.4375 -10.015625 7.25 -12.992188 6.875 -15.984375 C 6.507812 -18.984375 6.132812 -22 5.75 -25.03125 C 5.363281 -28.070312 5.171875 -31.097656 5.171875 -34.109375 C 5.171875 -36.179688 5.300781 -38.25 5.5625 -40.3125 Z M 5.5625 -40.3125 "/></g></g></g><g fill="#ff3131" fill-opacity="1"><g transform="translate(314.194613, 205.734361)"><g><path d="M 16.546875 -12.140625 C 15.941406 -12.234375 15.378906 -12.375 14.859375 -12.5625 C 14.335938 -12.757812 13.882812 -13.007812 13.5 -13.3125 C 13.414062 -12.0625 13.316406 -11.078125 13.203125 -10.359375 C 13.097656 -9.648438 13.015625 -8.929688 12.953125 -8.203125 C 12.890625 -7.472656 12.859375 -6.484375 12.859375 -5.234375 C 12.816406 -3.554688 12.332031 -2.296875 11.40625 -1.453125 C 10.476562 -0.609375 9.476562 -0.1875 8.40625 -0.1875 C 7.363281 -0.1875 6.398438 -0.570312 5.515625 -1.34375 C 4.640625 -2.125 4.09375 -3.3125 3.875 -4.90625 C 3.875 -10.289062 4.269531 -15.46875 5.0625 -20.4375 C 5.863281 -25.414062 6.71875 -29.992188 7.625 -34.171875 C 8.050781 -36.203125 8.578125 -38.066406 9.203125 -39.765625 C 9.828125 -41.460938 10.804688 -42.828125 12.140625 -43.859375 C 13.484375 -44.898438 15.425781 -45.421875 17.96875 -45.421875 C 18.476562 -45.421875 18.976562 -45.3125 19.46875 -45.09375 C 19.96875 -44.882812 20.5 -44.5625 21.0625 -44.125 C 23 -42.1875 24.734375 -39.726562 26.265625 -36.75 C 27.796875 -33.78125 29.128906 -30.59375 30.265625 -27.1875 C 31.410156 -23.789062 32.378906 -20.429688 33.171875 -17.109375 C 33.972656 -13.796875 34.609375 -10.828125 35.078125 -8.203125 L 35.859375 -6.390625 C 36.078125 -5.617188 36.1875 -4.972656 36.1875 -4.453125 C 36.1875 -3.117188 35.765625 -2.039062 34.921875 -1.21875 C 34.078125 -0.40625 33.097656 0 31.984375 0 C 30.648438 0 29.601562 -0.40625 28.84375 -1.21875 C 28.09375 -2.039062 27.519531 -3.054688 27.125 -4.265625 C 26.738281 -5.472656 26.425781 -6.675781 26.1875 -7.875 C 25.957031 -9.082031 25.710938 -10.09375 25.453125 -10.90625 C 25.191406 -11.726562 24.785156 -12.140625 24.234375 -12.140625 C 24.179688 -12.140625 24.132812 -12.140625 24.09375 -12.140625 C 24.050781 -12.140625 24.007812 -12.140625 23.96875 -12.140625 Z M 17.515625 -34.625 C 17.078125 -33.25 16.535156 -31.753906 15.890625 -30.140625 C 15.242188 -28.523438 14.921875 -26.789062 14.921875 -24.9375 C 14.921875 -23.726562 15.039062 -22.789062 15.28125 -22.125 C 15.519531 -21.457031 16.046875 -21.125 16.859375 -21.125 L 22.03125 -21.125 C 22.507812 -21.125 22.75 -21.316406 22.75 -21.703125 C 22.75 -21.878906 22.722656 -22.039062 22.671875 -22.1875 C 22.628906 -22.34375 22.585938 -22.503906 22.546875 -22.671875 C 21.898438 -24.828125 21.175781 -26.796875 20.375 -28.578125 C 19.582031 -30.367188 18.628906 -32.382812 17.515625 -34.625 Z M 17.515625 -34.625 "/></g></g></g><path stroke-linecap="round" transform="matrix(0.75, 0, 0, 0.75, 165.866638, 124.137486)" fill="none" stroke-linejoin="miter" d="M 8.000733 7.998977 L 49.688235 7.998977 " stroke="#ff3131" stroke-width="16" stroke-opacity="1" stroke-miterlimit="4"/></svg>