<?xml version="1.0" standalone="no"?>
<!DOCTYPE svg PUBLIC "-//W3C//DTD SVG 20010904//EN"
 "http://www.w3.org/TR/2001/REC-SVG-20010904/DTD/svg10.dtd">
<svg version="1.0" xmlns="http://www.w3.org/2000/svg"
 width="3000.000000pt" height="3000.000000pt" viewBox="0 0 3000.000000 3000.000000"
 preserveAspectRatio="xMidYMid meet">

<g transform="translate(0.000000,3000.000000) scale(0.100000,-0.100000)"
fill="#000000" stroke="none">
<path d="M0 15000 l0 -15000 15000 0 15000 0 0 15000 0 15000 -15000 0 -15000
0 0 -15000z m9040 8242 c0 -5 -7 -17 -15 -28 -21 -28 -18 -36 7 -23 18 10 24
8 40 -11 10 -12 18 -32 18 -44 0 -43 16 -50 40 -16 20 28 27 31 56 25 19 -3
60 -19 91 -35 47 -23 66 -41 103 -96 25 -36 55 -74 68 -84 12 -10 20 -24 17
-31 -4 -11 13 -15 77 -17 45 -1 96 -6 114 -11 18 -5 68 -5 118 0 53 5 113 5
154 -1 37 -5 100 -10 141 -10 41 0 98 -8 128 -17 42 -13 60 -15 83 -6 19 7 44
8 77 1 62 -12 141 -2 178 22 28 18 29 18 76 -6 56 -28 86 -30 135 -9 19 8 48
12 63 9 34 -7 60 5 124 59 46 39 48 40 87 28 31 -9 40 -17 40 -33 0 -13 20
-41 50 -70 l50 -48 135 0 c117 0 145 -3 217 -26 66 -21 91 -35 121 -66 32 -34
42 -39 67 -33 16 3 57 -1 92 -9 35 -8 88 -18 118 -22 74 -9 150 -29 241 -64
97 -37 203 -50 414 -50 164 0 174 1 280 34 61 18 133 42 160 53 44 18 83 30
161 49 12 4 28 -1 38 -11 16 -17 15 -19 -14 -37 -21 -12 -30 -24 -26 -34 3 -9
6 -23 6 -32 1 -13 6 -10 25 11 13 15 28 27 33 27 5 0 17 10 28 22 24 26 135
78 168 78 14 0 47 -13 73 -30 26 -16 55 -30 65 -30 22 0 23 -9 3 -36 -13 -19
-12 -22 8 -32 12 -6 55 -13 95 -15 62 -4 81 -10 132 -41 74 -46 121 -61 132
-43 6 9 17 7 47 -10 22 -13 44 -23 49 -23 5 0 7 10 5 23 -3 15 9 37 40 72 43
48 46 50 93 47 27 -1 72 6 100 15 l52 16 32 -26 c17 -15 74 -40 131 -58 60
-19 115 -44 137 -62 70 -56 139 -82 224 -83 43 0 81 -4 85 -7 13 -14 60 -6
143 23 46 17 93 30 105 30 11 0 53 23 93 50 81 55 92 59 92 31 0 -10 19 -42
42 -69 34 -40 46 -48 60 -41 35 19 56 10 80 -33 24 -45 58 -63 58 -32 0 10 7
25 16 35 15 16 19 16 87 -3 81 -22 107 -45 107 -94 0 -52 -37 -146 -65 -167
-14 -10 -25 -28 -25 -39 0 -29 63 -88 93 -88 22 0 28 8 47 65 12 36 25 65 30
65 4 0 14 -19 22 -41 12 -38 17 -43 68 -59 30 -9 74 -26 97 -38 23 -12 53 -22
66 -22 13 0 45 -14 73 -32 50 -33 90 -41 174 -38 135 5 125 7 128 -20 7 -60
13 -71 66 -100 60 -34 82 -56 88 -85 2 -10 16 -26 31 -35 28 -15 29 -14 56 18
24 28 30 31 40 18 26 -31 51 -29 124 9 l72 37 88 -48 c67 -37 96 -60 122 -96
44 -61 77 -82 113 -74 15 4 45 11 67 15 22 5 60 18 85 29 60 29 81 27 133 -8
53 -36 73 -37 103 -9 22 21 24 21 74 4 45 -15 60 -16 111 -5 33 7 81 10 108 7
34 -4 55 -2 67 8 18 13 18 15 1 46 -14 26 -16 45 -11 111 l7 81 72 -6 c50 -5
92 -16 139 -38 50 -23 86 -33 139 -36 87 -5 131 -26 173 -81 23 -29 35 -37 42
-30 6 6 47 13 92 16 l80 5 35 -39 c54 -59 89 -136 82 -183 -3 -23 0 -44 6 -50
7 -7 10 -37 9 -72 -2 -36 1 -66 9 -75 18 -22 80 -17 119 9 19 13 49 31 65 39
17 8 44 23 60 32 39 21 138 22 155 1 7 -8 36 -22 64 -30 70 -21 77 -26 106
-86 14 -29 32 -57 41 -62 27 -17 71 3 122 53 38 38 59 51 98 59 68 15 131 14
154 -3 11 -7 37 -19 57 -25 20 -7 53 -25 74 -42 48 -38 78 -45 108 -26 16 11
36 14 64 10 45 -6 46 -5 56 58 7 40 26 52 99 64 21 3 50 18 67 35 32 31 74 46
156 56 44 6 58 3 98 -21 36 -21 56 -26 84 -23 l37 5 0 -47 c0 -56 24 -90 64
-90 38 0 101 -19 101 -31 0 -5 -4 -17 -9 -27 -6 -9 -12 -29 -15 -44 -4 -16
-18 -32 -37 -42 -27 -14 -34 -14 -66 2 -34 16 -35 16 -54 -7 -15 -18 -19 -39
-19 -91 0 -65 2 -70 31 -92 71 -53 79 -65 79 -111 0 -24 9 -70 20 -102 30 -87
7 -150 -84 -228 -31 -27 -65 -66 -76 -88 -12 -22 -30 -41 -43 -44 -12 -3 -29
-18 -38 -33 -9 -17 -45 -42 -93 -66 -43 -22 -88 -53 -100 -69 -11 -16 -52 -45
-90 -64 -38 -19 -131 -76 -205 -126 -75 -50 -165 -108 -200 -129 -57 -33 -71
-48 -123 -130 -33 -51 -62 -106 -65 -121 -9 -46 -101 -94 -273 -142 -52 -15
-122 -37 -155 -50 -33 -13 -88 -30 -123 -39 -34 -9 -120 -40 -190 -70 -70 -30
-151 -59 -181 -66 -38 -9 -67 -25 -102 -56 -45 -40 -54 -44 -102 -44 -106 0
-177 -55 -311 -242 -37 -51 -80 -109 -96 -128 -53 -64 -45 -120 16 -120 13 0
42 -12 64 -26 22 -15 46 -24 55 -20 22 8 19 -22 -5 -62 -25 -40 -96 -75 -194
-96 -108 -22 -131 -53 -273 -366 -27 -59 -161 -285 -180 -302 -5 -4 -20 -18
-36 -30 -15 -13 -49 -66 -75 -118 -38 -78 -54 -99 -84 -115 -29 -16 -39 -28
-48 -63 -15 -61 -48 -124 -132 -250 -76 -116 -113 -188 -124 -247 -4 -21 -19
-57 -34 -79 -38 -56 -75 -151 -95 -241 -23 -100 -11 -161 55 -305 38 -81 54
-130 61 -183 17 -133 66 -246 150 -340 55 -64 142 -127 172 -127 58 0 177 -63
177 -94 0 -7 11 -23 25 -36 14 -13 25 -29 25 -36 0 -6 -29 -36 -65 -65 -36
-29 -77 -68 -92 -87 -22 -29 -30 -33 -57 -28 -41 8 -59 -6 -92 -74 -34 -70
-52 -90 -80 -90 -12 0 -59 -15 -103 -34 -171 -72 -226 -123 -226 -207 0 -43
-2 -48 -20 -43 -31 8 -72 -11 -92 -43 -14 -20 -18 -47 -18 -107 l0 -80 -59
-44 c-85 -65 -99 -92 -90 -172 10 -95 8 -109 -18 -138 -68 -74 -88 -114 -94
-195 -5 -57 -10 -77 -20 -73 -14 5 -70 -76 -83 -121 -21 -74 89 -179 137 -131
8 8 15 8 27 -2 14 -12 14 -15 -2 -32 -26 -29 -61 -45 -137 -62 -37 -9 -77 -23
-89 -31 -31 -22 -53 -18 -74 11 -17 24 -22 25 -42 14 -13 -6 -37 -10 -55 -7
-40 6 -62 -6 -81 -43 -20 -38 -30 -38 -66 2 -30 31 -31 31 -80 20 -28 -7 -59
-12 -70 -12 -23 0 -158 -98 -188 -136 -12 -15 -21 -35 -21 -44 0 -13 -24 -29
-80 -56 -55 -25 -95 -53 -125 -85 -25 -27 -45 -52 -45 -56 0 -4 -18 -28 -41
-53 -56 -61 -83 -119 -124 -263 -19 -67 -42 -139 -50 -160 -8 -20 -15 -49 -15
-64 0 -20 -16 -41 -60 -82 -38 -36 -60 -64 -60 -78 0 -12 -18 -43 -40 -68 -22
-25 -40 -52 -40 -59 0 -19 -84 -94 -114 -102 -21 -5 -34 4 -86 59 -75 81 -133
112 -193 103 -23 -3 -51 -6 -62 -5 -11 0 -37 1 -57 2 -46 1 -73 -22 -134 -114
-58 -88 -75 -101 -133 -107 -72 -7 -113 4 -173 44 l-53 36 -219 10 -220 9 -88
-41 c-98 -47 -110 -47 -213 -10 -69 25 -193 38 -221 22 -14 -8 -26 -6 -49 5
-45 24 -161 29 -208 9 -28 -11 -44 -13 -57 -6 -27 15 -111 12 -158 -4 -98 -35
-156 -40 -238 -20 -76 17 -78 17 -111 -2 -20 -11 -55 -52 -86 -99 -40 -61 -62
-85 -94 -100 -23 -11 -68 -48 -100 -83 -66 -70 -83 -74 -167 -46 -71 24 -174
14 -261 -25 -37 -17 -75 -31 -84 -31 -35 0 -122 -53 -163 -99 -58 -64 -144
-225 -151 -280 -7 -60 -16 -66 -73 -52 -41 10 -49 10 -66 -6 -16 -14 -18 -25
-12 -70 6 -50 5 -54 -25 -82 -17 -16 -62 -42 -100 -56 l-69 -27 -35 35 c-33
32 -97 60 -187 81 -17 4 -35 23 -55 58 -25 43 -41 58 -93 85 -46 24 -77 33
-111 33 -47 0 -48 1 -67 43 -10 23 -50 89 -88 147 -68 103 -189 340 -179 350
8 9 33 -33 33 -57 0 -44 72 -42 92 2 15 32 4 42 -27 25 -33 -18 -39 -10 -24
38 13 46 7 72 -17 72 -9 0 -26 10 -38 21 -12 12 -47 31 -77 43 -34 14 -58 31
-65 47 -6 13 -19 40 -29 60 -22 48 -14 72 41 109 48 34 53 44 27 59 -10 5 -26
33 -37 63 -44 126 -150 253 -297 354 -93 64 -356 205 -429 230 -80 27 -263 25
-344 -5 -92 -33 -106 -12 -117 179 -12 200 -25 277 -58 345 l-30 60 37 65 c58
104 72 137 72 171 0 32 28 66 106 130 51 42 111 144 119 202 11 78 18 87 71
87 50 0 79 12 105 44 15 18 21 19 38 9 23 -14 70 -17 87 -5 18 12 34 49 34 78
0 15 8 36 17 46 10 11 16 34 16 56 -1 20 5 47 13 59 8 12 14 25 14 28 0 13
-53 3 -105 -21 -70 -32 -62 -38 -137 111 -73 145 -116 216 -155 253 -21 20
-31 37 -27 44 5 7 8 35 9 63 0 42 9 65 43 123 40 68 42 75 31 106 -21 59 -5
102 64 170 34 34 80 70 102 81 55 26 81 59 105 132 12 34 32 77 46 95 13 18
33 52 45 76 33 68 7 123 -74 157 -20 8 -54 15 -76 15 -40 0 -40 1 -34 30 7 36
-13 63 -68 91 -43 21 -51 38 -43 87 4 31 -1 48 -36 105 -44 73 -45 75 -25 188
6 34 4 39 -39 74 -25 20 -46 45 -46 54 -1 9 -18 28 -38 42 -21 14 -53 48 -70
75 -32 47 -60 119 -51 129 3 2 27 -3 54 -12 46 -15 147 -21 432 -25 88 -1 147
63 144 158 -1 53 1 56 55 115 49 53 55 65 51 92 -3 20 3 46 14 69 11 21 22 58
25 82 10 68 -23 118 -135 208 -14 12 -21 29 -21 53 0 70 49 128 118 140 46 7
80 35 120 94 28 43 29 45 16 89 -21 67 -18 165 4 192 18 22 18 24 1 57 -16 31
-16 38 -2 96 18 68 19 114 8 228 -6 62 -4 82 10 113 18 36 17 38 -9 106 -15
38 -45 96 -67 130 -21 33 -39 63 -39 65 0 3 12 5 28 5 38 0 126 43 146 71 9
13 16 36 16 51 0 33 109 182 148 202 15 7 54 17 87 21 56 7 63 10 132 78 54
52 72 75 67 89 -5 18 -1 21 46 32 19 4 33 23 63 86 21 44 44 83 50 87 33 20
57 67 57 109 0 52 -33 94 -111 144 -44 29 -55 32 -102 27 -28 -3 -64 -9 -79
-13 -21 -5 -33 0 -54 21 -26 26 -27 30 -21 111 3 58 10 91 21 103 21 23 20 44
-4 91 -16 32 -18 44 -9 64 20 44 5 60 -49 52 -135 -19 -142 -19 -162 -1 -11
10 -20 29 -20 42 0 27 -30 32 -51 7 -38 -46 -118 -58 -156 -22 -20 19 -27 20
-43 10 -30 -18 -62 -15 -100 12 -75 50 -110 42 -110 -26 0 -81 -46 -124 -143
-135 -29 -3 -67 -14 -85 -24 -43 -25 -51 -24 -62 6 -16 42 -51 51 -102 27 -80
-38 -90 -34 -73 31 6 24 5 27 -18 27 -13 0 -42 7 -63 16 -50 21 -121 13 -180
-20 l-44 -25 -6 27 c-15 71 -2 74 -165 -43 -68 -49 -149 -40 -149 16 0 10 -11
29 -25 43 -33 33 -32 71 4 128 28 43 78 88 99 88 17 0 23 35 13 63 -7 17 -20
29 -38 32 -65 14 -73 22 -73 70 0 25 -4 45 -9 45 -5 0 -45 -18 -88 -40 -72
-37 -87 -40 -183 -46 -159 -10 -197 -27 -305 -139 -111 -114 -173 -150 -189
-109 -9 23 -7 84 3 120 5 17 5 62 1 100 -9 84 3 118 43 122 22 3 27 8 27 29 0
38 33 85 87 123 26 18 59 43 73 56 14 12 39 25 56 28 28 6 32 12 37 49 3 23 4
43 2 45 -7 8 -26 -11 -50 -47 -24 -40 -63 -55 -173 -68 -51 -6 -67 5 -58 42 6
25 8 26 25 11 27 -25 33 -20 29 24 l-4 40 38 0 c28 0 41 6 57 28 11 15 25 31
30 36 5 4 18 16 30 27 12 10 18 25 15 34 -8 20 -15 19 -56 -8 -48 -33 -114
-41 -138 -17 -11 11 -16 27 -13 38 5 20 -15 46 -53 68 -17 10 -16 12 13 28 46
23 56 21 50 -13 -5 -21 -2 -31 10 -35 19 -8 17 -9 36 35 11 26 13 49 7 79 -7
40 -6 45 29 84 21 23 47 58 59 79 l21 37 -36 -19 c-37 -19 -37 -19 -48 3 -6
11 -19 22 -29 24 -15 3 -17 -1 -12 -25 9 -41 -17 -64 -36 -34 -7 12 -15 21
-18 21 -3 0 -16 -17 -29 -38 -13 -21 -36 -47 -50 -57 -15 -9 -35 -31 -44 -47
-14 -25 -20 -28 -32 -18 -8 7 -15 28 -15 46 0 24 -5 34 -15 34 -22 0 -18 24
15 87 17 31 30 64 30 75 0 28 36 72 102 124 32 25 58 52 58 60 0 20 -8 18 -43
-12 -21 -18 -36 -23 -51 -19 -12 4 -36 9 -53 12 -28 4 -33 2 -33 -15 0 -24
-25 -46 -44 -39 -8 3 -23 18 -32 32 -14 22 -15 31 -6 46 7 10 17 28 24 38 10
16 9 23 -5 39 -9 10 -17 34 -17 53 -1 19 -9 49 -19 68 -18 34 -18 34 -30 12
-12 -21 -14 -22 -31 -6 -17 16 -20 14 -44 -21 l-25 -37 -7 27 c-4 15 0 42 10
66 21 53 22 148 1 156 -24 9 -18 17 30 43 25 13 45 28 45 32 0 5 9 4 21 -3 17
-11 22 -10 35 6 26 36 15 73 -14 44 -9 -9 -12 -6 -12 14 0 17 11 35 31 52 34
29 55 32 94 14 23 -10 29 -8 58 20 28 27 38 31 64 26 39 -8 50 9 28 42 -20 30
-14 54 12 48 11 -3 28 5 42 20 14 14 32 26 42 26 9 0 22 7 29 15 11 13 19 10
57 -26 43 -40 47 -41 92 -34 25 4 84 12 131 18 66 9 91 17 110 35 27 25 90 56
98 47 3 -2 10 -15 16 -27 17 -35 40 -29 46 12 3 23 11 36 23 38 27 5 67 -25
83 -64 19 -46 45 -46 37 0 -6 39 10 76 35 77 14 0 14 2 -3 9 -11 4 -42 14 -68
21 -46 11 -68 31 -53 47 4 4 35 7 68 7 51 0 63 4 79 24 28 34 23 45 -10 22
-16 -12 -40 -20 -53 -20 -12 1 -42 -3 -66 -9 -23 -5 -44 -7 -46 -3 -2 3 3 24
11 46 8 22 17 52 20 68 4 18 11 27 25 27 23 0 98 37 98 49 0 13 116 81 139 81
18 0 20 4 15 25 -8 32 11 55 45 55 14 0 44 11 66 25 22 13 54 31 70 39 l30 14
3 -36 c2 -20 -2 -54 -9 -75 -7 -20 -9 -40 -6 -43 13 -14 37 7 37 32 0 19 4 25
15 20 9 -3 15 0 15 9 0 8 32 30 70 51 39 20 70 40 70 45 0 5 7 9 15 9 8 0 15
-4 15 -8z m9200 -4971 c0 -16 -51 -51 -74 -51 -33 0 -50 14 -34 27 26 22 108
39 108 24z m3910 -576 c5 3 10 -1 13 -7 3 -9 9 -7 20 7 15 20 16 19 22 -7 7
-26 71 -78 97 -78 15 -1 72 -121 76 -160 1 -14 3 -43 5 -65 l2 -40 -50 0 c-42
1 -61 8 -122 48 -143 92 -208 112 -277 83 -21 -9 -47 -16 -57 -16 -25 0 -49
38 -49 77 0 23 -5 33 -15 33 -10 0 -15 10 -15 29 0 41 50 81 98 81 85 -1 192
13 203 26 9 11 13 11 26 -1 8 -9 18 -13 23 -10z m-1061 -276 c-11 -15 -37 -36
-59 -46 -22 -10 -40 -21 -40 -25 0 -13 44 -38 68 -38 19 0 21 -3 12 -19 -15
-29 -12 -83 6 -109 41 -58 122 -68 186 -22 51 38 80 38 141 0 51 -33 56 -49
33 -110 -42 -107 -83 -189 -111 -223 -24 -28 -41 -68 -65 -150 -31 -104 -36
-115 -79 -152 -25 -22 -62 -57 -82 -77 -36 -37 -50 -42 -94 -39 -23 2 -65 45
-65 66 0 32 -43 45 -139 43 -93 -2 -93 -2 -121 29 -22 24 -30 46 -35 90 -9 86
-32 141 -65 158 -39 20 -42 20 -103 -19 -65 -41 -74 -53 -79 -91 -6 -57 -71
-36 -80 25 -2 21 -9 26 -45 30 -52 6 -83 31 -83 66 0 32 90 129 167 180 30 20
105 88 166 151 107 109 149 143 180 143 8 0 33 18 56 40 23 22 48 40 55 40 7
0 40 13 72 30 32 16 73 30 89 30 17 0 51 10 75 23 52 26 68 16 39 -24z m-155
-1207 c9 -14 -23 -45 -40 -38 -16 6 -15 8 1 26 19 21 31 25 39 12z m-1567
-248 l22 -38 -55 -57 c-30 -32 -54 -67 -54 -78 0 -13 -14 -28 -42 -43 -30 -16
-49 -38 -67 -73 -29 -56 -45 -63 -93 -41 -18 9 -52 15 -74 14 -60 -3 -72 11
-71 83 l0 60 43 11 c35 10 41 15 34 28 -18 34 54 140 95 140 7 0 50 18 96 39
l84 39 30 -23 c17 -12 40 -40 52 -61z m-157 -509 c5 -14 14 -24 20 -23 11 3
109 -63 110 -74 0 -5 -33 -8 -74 -8 -53 0 -77 -4 -86 -15 -41 -49 -58 50 -20
113 24 39 37 41 50 7z m3563 -1853 c29 -32 36 -65 21 -100 -7 -18 -18 -32 -23
-32 -6 0 -10 -29 -9 -74 1 -63 -2 -79 -25 -119 -31 -52 -67 -77 -155 -106 -35
-12 -101 -47 -147 -77 -62 -42 -95 -57 -130 -61 -75 -8 -94 22 -53 87 16 25
21 47 19 80 -3 58 26 103 94 147 28 17 72 45 99 62 29 19 61 31 82 31 74 0
134 49 182 148 18 37 23 39 45 14z m-5782 -549 c23 -12 53 -17 90 -16 l56 2
32 -61 c36 -70 39 -110 12 -154 -14 -23 -18 -43 -14 -72 10 -74 -66 -265 -116
-291 -17 -9 -20 -6 -26 26 -4 21 -33 97 -66 171 -32 73 -59 136 -59 138 0 3
-12 30 -26 60 -33 70 -26 102 34 166 24 26 46 48 47 48 1 0 17 -8 36 -17z
m5262 -214 c30 -31 32 -36 35 -128 3 -72 -1 -124 -18 -205 -12 -59 -19 -113
-16 -121 16 -41 -66 -277 -107 -307 -33 -24 -95 -45 -187 -64 -41 -9 -96 -25
-122 -36 -52 -22 -118 -87 -118 -116 0 -29 -51 -70 -95 -77 -50 -8 -149 9
-184 31 l-25 17 22 18 c13 10 48 23 80 29 96 19 145 41 189 86 55 57 67 81 98
203 24 96 92 246 147 323 36 52 70 139 79 206 13 96 25 118 73 141 87 40 108
40 149 0z m-2965 -241 c6 -6 12 -16 12 -23 0 -17 -63 -72 -106 -93 -19 -8 -34
-19 -34 -22 0 -4 -34 -35 -75 -69 -85 -70 -115 -111 -115 -159 0 -18 -7 -47
-16 -65 -9 -17 -30 -72 -46 -122 -16 -49 -41 -106 -56 -125 -15 -19 -37 -50
-50 -69 -43 -62 -86 -86 -209 -115 l-62 -14 -11 32 c-5 17 -41 83 -80 146 -39
64 -81 149 -96 193 -14 43 -41 101 -60 129 -33 48 -34 52 -17 62 33 20 58 24
156 25 55 1 108 6 120 13 12 6 51 12 87 13 102 3 197 55 253 139 21 31 50 62
65 69 15 6 40 22 56 34 26 22 35 23 100 17 57 -5 79 -3 102 9 29 16 57 14 82
-5z m-1451 -554 c30 -9 63 -24 73 -34 11 -11 33 -26 49 -35 52 -26 54 -87 5
-145 -53 -62 -138 -79 -202 -40 -84 51 -95 202 -20 254 28 20 27 20 95 0z
m2374 -115 c-13 -10 -17 -20 -11 -24 5 -3 10 -24 10 -46 0 -24 12 -62 29 -97
24 -47 29 -71 30 -127 1 -90 -29 -155 -104 -223 -66 -60 -114 -84 -183 -90
-102 -9 -235 85 -292 205 -17 37 -21 60 -18 110 4 62 5 63 61 114 67 60 107
123 109 172 1 31 5 37 30 42 17 4 40 0 60 -10 18 -9 78 -21 133 -26 l100 -9
25 29 c21 26 26 28 34 14 6 -12 3 -21 -13 -34z m-3252 -450 c13 -24 12 -29
-18 -73 -18 -26 -52 -83 -76 -128 -40 -76 -44 -79 -55 -58 -6 12 -41 35 -78
51 -109 49 -117 54 -120 75 -4 30 31 58 57 45 11 -6 34 -11 52 -11 27 0 43 11
95 66 56 58 67 65 96 62 23 -2 37 -11 47 -29z m-3776 -1437 c209 -106 316
-248 263 -350 -49 -93 -161 -130 -238 -77 -20 13 -82 48 -138 76 -94 48 -106
51 -155 46 -109 -11 -241 -106 -295 -213 -34 -68 -39 -166 -12 -225 24 -53 77
-116 129 -152 21 -14 107 -51 192 -81 190 -68 290 -119 406 -206 113 -85 204
-190 257 -299 l41 -84 -11 -171 c-12 -190 -23 -232 -94 -368 -56 -109 -164
-219 -263 -270 -151 -77 -257 -98 -496 -98 -141 0 -178 3 -235 21 -79 24 -475
223 -528 265 -81 65 -102 172 -52 259 28 46 96 95 134 95 58 0 294 -102 383
-165 89 -63 254 -100 414 -92 118 6 157 16 222 61 46 31 49 37 71 117 17 62
24 114 25 199 2 109 1 117 -25 162 -52 87 -152 149 -416 254 -194 78 -282 122
-357 177 -36 26 -56 56 -110 159 -83 160 -106 226 -106 305 -1 171 75 318 249
484 102 98 120 108 293 164 252 81 303 82 452 7z m9013 -75 c36 -19 64 -70 64
-119 0 -18 -18 -135 -40 -260 -41 -239 -94 -650 -88 -693 3 -24 10 -20 136 80
143 112 259 192 366 251 64 35 70 36 107 25 105 -32 175 -160 140 -254 -6 -14
-37 -42 -71 -63 -102 -65 -262 -172 -318 -214 -30 -21 -58 -40 -64 -42 -5 -2
74 -89 177 -193 197 -201 241 -255 330 -405 42 -73 55 -103 55 -134 0 -116
-73 -196 -176 -196 -75 0 -119 43 -266 257 -51 75 -130 176 -176 224 -89 94
-240 206 -266 196 -31 -12 -37 -178 -23 -567 7 -176 6 -187 -13 -218 -43 -69
-195 -102 -258 -55 -79 59 -97 165 -88 522 7 314 21 598 35 711 6 47 15 157
21 245 17 257 72 592 122 745 52 161 77 183 193 177 39 -2 84 -11 101 -20z
m-15947 -203 c236 -78 426 -287 525 -578 58 -167 68 -233 73 -491 5 -236 4
-241 -20 -307 -34 -94 -98 -202 -186 -315 -86 -110 -167 -172 -326 -248 -151
-72 -239 -90 -450 -90 -158 0 -190 3 -259 23 -141 41 -229 94 -336 201 -108
109 -164 199 -231 371 l-42 105 6 165 c11 319 74 545 212 757 135 206 342 364
528 403 224 47 374 48 506 4z m10911 -509 c84 -43 167 -255 204 -520 22 -151
70 -338 106 -411 28 -58 56 -89 201 -225 42 -40 54 -73 45 -124 -14 -72 -115
-170 -188 -182 -31 -4 -46 0 -90 28 -70 44 -180 150 -219 211 l-32 49 -29 -57
c-37 -75 -96 -151 -171 -220 -71 -66 -73 -67 -209 -89 -92 -15 -120 -16 -199
-6 l-92 12 -118 82 c-64 46 -133 102 -152 125 -75 89 -107 191 -107 338 0 241
133 537 329 735 76 76 76 76 191 112 63 20 153 46 199 57 53 14 96 31 115 47
17 14 45 32 61 39 41 18 120 17 155 -1z m7280 0 c84 -43 168 -258 204 -520 20
-148 69 -336 107 -413 29 -59 48 -80 200 -223 42 -40 54 -73 45 -124 -14 -72
-115 -170 -188 -182 -33 -5 -47 0 -102 37 -71 45 -195 170 -221 221 l-17 32
-29 -59 c-38 -75 -97 -151 -172 -220 -71 -66 -73 -67 -209 -89 -92 -15 -120
-16 -199 -6 l-92 12 -116 81 c-125 87 -155 116 -201 194 -95 162 -80 420 38
668 65 137 139 245 231 337 76 76 76 76 191 113 63 19 153 45 199 57 54 13 96
30 115 46 17 14 45 32 61 39 41 18 120 17 155 -1z m-3659 -20 c52 -13 128 -37
169 -52 69 -26 77 -32 98 -73 46 -92 17 -224 -58 -263 -45 -23 -116 -16 -209
21 -58 23 -80 26 -186 26 -183 0 -245 -26 -245 -103 0 -54 35 -95 97 -111 278
-72 483 -183 585 -317 21 -27 52 -80 70 -119 28 -59 33 -80 33 -144 0 -95 -23
-145 -140 -316 -75 -108 -93 -128 -138 -150 -63 -32 -251 -81 -372 -96 -108
-14 -189 -1 -399 64 -151 47 -249 94 -314 153 -39 36 -45 46 -44 78 2 51 34
108 83 150 65 56 76 55 258 -13 294 -109 495 -121 609 -33 47 35 96 143 87
190 -13 71 -101 127 -305 193 -64 21 -137 48 -161 60 -86 43 -217 131 -234
156 -49 76 -84 267 -64 351 28 114 79 175 226 274 94 62 109 69 156 70 29 0
102 7 162 13 61 7 117 14 126 15 9 0 59 -10 110 -24z m-13069 -45 c14 -7 42
-34 62 -61 l37 -48 48 34 c88 63 131 77 250 78 123 1 153 -9 275 -93 77 -53
103 -84 155 -188 l31 -61 25 25 c35 35 193 107 290 132 112 30 195 36 306 23
238 -27 361 -112 476 -329 41 -76 42 -78 58 -257 8 -99 22 -232 30 -295 8 -63
16 -159 17 -212 3 -95 2 -97 -26 -127 -58 -61 -194 -79 -254 -34 -32 24 -67
92 -82 158 -6 28 -15 132 -20 233 -5 100 -11 186 -14 191 -3 4 -12 48 -21 97
-18 105 -42 136 -139 181 -54 25 -72 28 -161 27 -82 0 -109 -4 -152 -23 -127
-56 -202 -200 -208 -394 -6 -213 -25 -454 -40 -503 -16 -56 -63 -127 -94 -144
-64 -34 -171 -19 -227 33 -46 42 -53 80 -38 197 34 254 36 305 25 480 -14 198
-23 255 -59 364 -25 78 -26 79 -79 103 -30 14 -80 27 -111 30 -52 5 -61 2
-106 -28 -97 -66 -147 -207 -169 -477 -10 -119 -10 -163 1 -232 26 -171 -1
-310 -70 -347 -50 -27 -186 -25 -225 3 -69 51 -87 159 -81 488 4 183 11 269
33 417 l28 186 -27 92 c-31 109 -33 155 -7 197 23 37 78 82 118 94 34 11 109
6 145 -10z m10691 -71 c12 -6 45 -35 72 -65 l50 -54 68 25 c57 21 85 25 175
25 255 -1 442 -93 525 -257 39 -77 53 -138 103 -448 39 -248 45 -304 40 -385
-8 -142 -49 -240 -112 -266 -52 -22 -149 -18 -194 7 -66 37 -68 50 -74 369 -8
430 -32 545 -126 602 -178 109 -355 10 -408 -227 -23 -99 -33 -342 -22 -515 6
-90 8 -176 5 -190 -19 -75 -105 -134 -197 -134 -128 -1 -183 102 -183 344 0
128 36 527 62 693 l17 109 -27 81 c-35 104 -35 152 -1 203 27 40 33 45 88 77
34 19 106 23 139 6z m-3141 -108 c254 -65 374 -220 385 -496 4 -86 1 -140 -10
-192 -15 -71 -91 -249 -131 -307 -31 -47 -183 -152 -301 -210 -135 -67 -163
-75 -292 -86 -78 -7 -217 -34 -224 -44 0 0 -4 -149 -9 -331 -8 -305 -14 -384
-46 -537 -8 -40 -56 -58 -155 -58 l-82 0 -37 39 c-55 58 -65 109 -56 305 8
165 13 434 20 1001 3 176 6 331 7 345 1 14 -6 77 -16 140 -10 63 -18 162 -19
220 -1 89 2 110 19 140 28 48 85 74 160 75 80 0 112 -10 146 -46 l28 -30 39
20 c36 18 158 53 222 64 14 2 82 5 151 6 95 1 144 -4 201 -18z"/>
<path d="M5920 9431 c-111 -28 -177 -68 -276 -166 -80 -79 -98 -103 -143 -195
-101 -206 -137 -461 -90 -630 27 -97 66 -165 131 -226 104 -98 231 -134 410
-114 175 20 280 64 372 159 70 72 88 95 119 157 51 100 65 362 28 516 -51 215
-189 435 -313 499 -47 24 -146 24 -238 0z"/>
<path d="M16780 8813 c-124 -62 -245 -232 -290 -409 -26 -102 -25 -146 4 -192
32 -50 102 -118 151 -148 35 -20 46 -22 76 -14 72 20 114 70 194 233 41 84 81
181 90 217 14 64 14 67 -17 203 l-32 137 -61 0 c-46 0 -74 -7 -115 -27z"/>
<path d="M24063 8815 c-63 -32 -134 -93 -174 -151 -75 -109 -139 -283 -139
-376 0 -63 83 -170 175 -223 36 -22 45 -23 78 -13 74 23 111 68 193 235 96
197 110 256 84 357 -10 40 -24 101 -30 134 l-13 62 -61 0 c-46 0 -75 -6 -113
-25z"/>
<path d="M14879 8670 c-38 -11 -69 -28 -125 -71 l-52 -38 -6 -178 c-3 -98 -9
-215 -12 -260 -7 -97 -12 -95 114 -64 42 10 106 26 142 34 36 8 99 28 139 44
61 23 81 37 112 75 51 65 80 146 86 244 5 72 3 86 -17 122 -26 47 -81 80 -141
87 -96 10 -215 13 -240 5z"/>
</g>
</svg>
